<?xml version="1.0" encoding="UTF-8"?>
<svg width="1344px" height="1047px" viewBox="0 0 1344 1047" version="1.1" xmlns="http://www.w3.org/2000/svg" xmlns:xlink="http://www.w3.org/1999/xlink">
    <title>blogging bw</title>
    <g id="Page-1" stroke="none" stroke-width="1" fill="none" fill-rule="evenodd">
        <g id="70-beautiful-illustrations-andy-dao" transform="translate(-5245.000000, -3612.000000)">
            <g id="blogging-bw" transform="translate(5245.000000, 3612.000000)">
                <g id="background" transform="translate(635.000000, 15.000000)" fill="#E8E8E8" fill-rule="nonzero">
                    <path d="M314.797554,147.4 C315,150.5 315.1,153.6 315.3,156.6 C315.3,157.2 315.7,158 316.4,158 C400.6,169.6 485.5,159.8 570,160 C593.9,160 617.7,160.9 641.5,163.2 C642.1,163.3 642.8,162.7 642.9,162.1 C643.7,158 644.6,153.9 645.4,149.8 C645.8,147.9 642.9,147.1 642.5,149 C641.7,153.1 640.8,157.2 640,161.3 C640.5,160.9 641,160.6 641.4,160.2 C557.7,152 473.7,162.3 389.8,160.5 C365.5,160 341.2,158.4 317.1,155.1 C317.5,155.6 317.8,156.1 318.2,156.5 C318,153.4 317.9,150.3 317.7,147.3 C317.7,145.5 314.7,145.5 314.797554,147.4 L314.797554,147.4 Z" id="Path"></path>
                    <path d="M317.3,148.9 C401.9,148.9 486.6,148.9 571.2,148.9 C595.2,148.9 619.2,148.9 643.2,148.9 C645.1,148.9 645.1,145.9 643.2,145.9 C558.6,145.9 473.9,145.9 389.3,145.9 C365.3,145.9 341.3,145.9 317.3,145.9 C315.4,145.9 315.4,148.9 317.3,148.9 L317.3,148.9 Z" id="Path"></path>
                    <path d="M335.5,146.5 C338,110.6 340.1,74.6 343.2,38.8 C343.6,34.1 344.1,29.5 344.9,24.9 C345.2,23.2 345.3,19.7 346.3,18.3 C347.6,16.5 350.4,16.5 352.4,16.2 C357,15.4 364.7,12.6 367.9,17.3 C368.8,18.7 369,21.6 369.3,23.3 C369.9,26.3 370.3,29.3 370.6,32.3 C372.2,49.9 369.9,67.8 368.6,85.4 C367.1,105.8 365.6,126.2 364.1,146.6 C364,148.5 367,148.5 367.1,146.6 C369.3,117.4 371.7,88.3 373.5,59.1 C374.3,45.7 374.7,32 371.4,18.8 C370.5,15.1 369.1,12 364.9,11.6 C358.5,11.1 351.1,13.3 344.9,14.6 C344.4,14.7 344,15.2 343.9,15.6 C338.6,36.3 338.8,58.6 337.3,79.8 C335.7,102 334.2,124.3 332.6,146.5 C332.4,148.4 335.4,148.4 335.5,146.5 L335.5,146.5 Z" id="Path"></path>
                    <path d="M372.7,56.2 C384.9,86.9 397.8,117.3 411.3,147.4 C412.1,149.2 414.7,147.6 413.9,145.9 C400.5,116 387.7,85.8 375.6,55.4 C374.9,53.6 372,54.4 372.7,56.2 L372.7,56.2 Z" id="Path"></path>
                    <path d="M375.3,40.1 C377.8,33 385.5,29.1 392.7,31.1 C394.6,31.6 395.4,28.7 393.5,28.2 C384.7,25.7 375.4,30.7 372.4,39.3 C371.8,41.2 374.7,41.9 375.3,40.1 L375.3,40.1 Z" id="Path"></path>
                    <path d="M392.7,31.7 C412.5,70.1 432.2,108.6 452,147 C452.9,148.7 455.5,147.2 454.6,145.5 C434.8,107.1 415.1,68.6 395.3,30.2 C394.4,28.4 391.8,29.9 392.7,31.7 L392.7,31.7 Z" id="Path"></path>
                    <path d="M444.8,5.9 C448,52.4 451.2,98.9 454.3,145.4 C454.4,147.3 457.4,147.3 457.3,145.4 C454.1,98.9 450.9,52.4 447.8,5.9 C447.7,4 444.7,4 444.8,5.9 L444.8,5.9 Z" id="Path"></path>
                    <path d="M447.4,7.5 C452.5,2.9 459.4,2.9 465.8,4 C468.4,4.4 471.2,4.9 473.7,5.8 C478.3,7.5 477.6,11.7 477.8,15.8 C478.4,30.1 478.9,44.4 479.5,58.7 C480.6,87.6 481.8,116.6 482.9,145.5 C483,147.4 486,147.4 485.9,145.5 C484.5,110.9 483.2,76.3 481.8,41.8 C481.5,33.2 481.1,24.5 480.8,15.9 C480.6,11.5 481.2,6.1 476.6,3.7 C471.8,1.2 464.4,0.3 459,0.4 C453.8,0.5 449.2,1.9 445.4,5.4 C443.9,6.6 446,8.8 447.4,7.5 L447.4,7.5 Z" id="Path"></path>
                    <path d="M395.1,30 C404.6,30.6 413.9,33.4 423,36 C431.4,38.4 439.6,41.4 446.7,46.6 C448.3,47.7 449.8,45.1 448.2,44 C440.8,38.7 432.4,35.6 423.7,33.1 C414.3,30.4 404.8,27.7 395,27 C393.1,26.8 393.1,29.8 395.1,30 L395.1,30 Z" id="Path"></path>
                    <path d="M481.3,24.7 C485.7,23.6 490.6,22.5 495.2,23.4 C502,24.8 503.4,30.8 503.7,36.9 C504.2,49.2 504.4,61.4 504.7,73.7 C505.3,97.9 505.6,122.1 505.7,146.3 C505.7,148.2 508.7,148.2 508.7,146.3 C508.6,117.4 508.2,88.6 507.4,59.8 C507.2,52.8 507,45.9 506.8,38.9 C506.6,34.3 506.7,29.2 503.9,25.3 C498.7,18 488,19.8 480.6,21.7 C478.6,22.3 479.4,25.2 481.3,24.7 L481.3,24.7 Z" id="Path"></path>
                    <path d="M503.2,8.9 C503.2,17.9 503.2,26.8 503.2,35.8 C503.2,37.7 506.2,37.7 506.2,35.8 C506.2,26.8 506.2,17.9 506.2,8.9 C506.2,7 503.2,7 503.2,8.9 L503.2,8.9 Z" id="Path"></path>
                    <path d="M507.6,10 C508.4,10.3 509.3,10.6 510.1,10.9 C510.2,11.6 510.3,12.3 510.4,13.1 C510.6,14.7 510.6,16.4 510.8,18.1 C511,20.7 511.2,23.4 511.4,26 C511.8,31.6 512.1,37.3 512.4,42.9 C513.1,54.5 513.6,66.1 514,77.7 C514.9,100.6 515.2,123.5 515.2,146.4 C515.2,148.3 518.2,148.3 518.2,146.4 C518.2,117.9 517.6,89.3 516.3,60.8 C515.6,46.9 514.8,33 513.8,19.1 C513.6,15.7 514.2,9.5 511.1,7.1 C509,5.5 506.1,6.1 505,8.5 C504.3,10.3 506.8,11.8 507.6,10 L507.6,10 Z" id="Path"></path>
                    <path d="M360.2,162.1 C363.3,167.3 366.3,175.1 371.3,178.8 C376.2,182.5 382.2,179.2 387.6,181.1 C389.4,181.7 390.2,178.8 388.4,178.2 C383.6,176.5 378,179.2 373.7,176.5 C368.8,173.5 365.7,165.4 362.8,160.5 C361.8,158.9 359.2,160.4 360.2,162.1 L360.2,162.1 Z" id="Path"></path>
                    <path d="M391.6,163.4 C391.2,168.6 389.6,173.3 387,177.7 C386,179.4 388.6,180.9 389.6,179.2 C392.6,174.3 394.2,169 394.6,163.4 C394.8,161.5 391.8,161.5 391.6,163.4 L391.6,163.4 Z" id="Path"></path>
                    <path d="M383.1,165.9 C384,170.5 384.9,175.1 385.9,179.7 C386.3,181.6 389.2,180.8 388.8,178.9 C387.9,174.3 387,169.7 386,165.1 C385.6,163.2 382.7,164 383.1,165.9 L383.1,165.9 Z" id="Path"></path>
                    <path d="M386.7,165.8 C386.9,165.8 387.1,165.9 387.3,166 C387.6,166.6 387.6,167.2 387.5,167.8 C387.4,168.5 387.1,169.2 386.9,169.9 C386.5,171.3 386.4,172.6 386.8,174 C387.4,175.9 390,175.1 389.7,173.2 C389.2,170.5 389.6,167.8 390.7,165.3 C389.7,165.2 388.7,165 387.8,164.9 C387.5,168 387.3,171.2 387,174.3 C386.8,176.2 389.8,176.2 390,174.3 C390.3,171.2 390.5,168 390.8,164.9 C391,163.1 388.4,163.1 387.9,164.5 C386.6,167.6 386.4,170.8 386.9,174 C387.9,173.7 388.8,173.5 389.8,173.2 C388.9,170.2 392.4,166.5 389.4,163.8 C387.6,162.2 384.7,162.8 384,165.1 C383.2,166.9 386.1,167.7 386.7,165.8 L386.7,165.8 Z" id="Path"></path>
                    <path d="M543.4,143.9 C542.5,140.2 542.1,136.6 542.4,132.8 C541.9,133.3 541.4,133.8 540.9,134.3 C558.6,133.4 576.3,132.3 594,131.9 C602.9,131.7 611.8,131.7 620.7,131.9 C622.7,131.9 624.7,132 626.6,132 C628.6,132.1 632.7,131.4 634.5,132.3 C638.5,134.2 636.8,141.9 636.8,145.4 C636.8,147.3 639.8,147.3 639.8,145.4 C639.8,140.7 642.2,130.7 635.8,129.4 C631.4,128.5 626.2,129 621.7,128.9 C616.1,128.8 610.5,128.7 604.9,128.8 C583.6,128.9 562.3,130.2 540.9,131.3 C540.1,131.3 539.4,132 539.4,132.8 C539.2,136.9 539.5,140.8 540.6,144.7 C540.9,146.6 543.8,145.8 543.4,143.9 L543.4,143.9 Z" id="Path"></path>
                    <path d="M554.5,113.8 C555.7,119.3 556.6,124.8 557,130.4 C557.1,132.3 560.1,132.3 560,130.4 C559.6,124.5 558.7,118.7 557.4,113 C557,111.2 554.1,112 554.5,113.8 L554.5,113.8 Z" id="Path"></path>
                    <path d="M556.5,115.7 C568.6,114.7 580.7,113.6 592.8,114.1 C604.2,114.6 615.7,118.3 627.1,117.1 C626.6,116.6 626.1,116.1 625.6,115.6 C625.2,120.9 625.8,125.9 627.5,131 C628.1,132.8 631,132 630.4,130.2 C628.8,125.4 628.2,120.7 628.6,115.6 C628.7,114.8 627.9,114 627.1,114.1 C615.7,115.2 604.2,111.5 592.8,111.1 C580.7,110.6 568.5,111.7 556.5,112.7 C554.6,112.8 554.6,115.8 556.5,115.7 L556.5,115.7 Z" id="Path"></path>
                    <path d="M454.7,426 C454.7,430.2 454.7,434.3 454.7,438.5 C454.7,440.4 457.7,440.4 457.7,438.5 C457.7,434.3 457.7,430.2 457.7,426 C457.7,424.1 454.7,424.1 454.7,426 L454.7,426 Z" id="Path"></path>
                    <path d="M456.2,425 C534,425 611.8,425 689.6,425 C691.5,425 691.5,422 689.6,422 C611.8,422 534,422 456.2,422 C454.2,422 454.2,425 456.2,425 L456.2,425 Z" id="Path"></path>
                    <path d="M458.6,438.8 C535.2,438.8 611.7,438.8 688.3,438.8 C690.2,438.8 690.2,435.8 688.3,435.8 C611.7,435.8 535.2,435.8 458.6,435.8 C456.7,435.8 456.7,438.8 458.6,438.8 L458.6,438.8 Z" id="Path"></path>
                    <path d="M688.1,426 C688.1,428.9 688.1,431.8 688.1,434.7 C688.1,436.6 691.1,436.6 691.1,434.7 C691.1,431.8 691.1,428.9 691.1,426 C691.1,424.1 688.1,424.1 688.1,426 L688.1,426 Z" id="Path"></path>
                    <path d="M477.8,392.3 C480.4,402.6 482.8,413 484.8,423.4 C485.2,425.3 488.1,424.5 487.7,422.6 C485.7,412.2 483.4,401.8 480.7,391.5 C480.2,389.6 477.3,390.4 477.8,392.3 L477.8,392.3 Z" id="Path"></path>
                    <path d="M529.8,391.4 C527.4,401.7 525.4,412 523.9,422.4 C523.6,424.3 526.5,425.1 526.8,423.2 C528.3,412.8 530.3,402.4 532.7,392.2 C533.1,390.3 530.2,389.5 529.8,391.4 L529.8,391.4 Z" id="Path"></path>
                    <path d="M469.6,386.7 C469.8,391.9 477.6,391.5 481.4,391.7 C490,392.1 498.7,390.8 507.3,390.3 C511.6,390 515.9,389.9 520.2,390.3 C523.7,390.6 527.5,391.8 530.9,391.1 C534.7,390.3 537.1,386.7 534.9,383.2 C533.9,381.6 531.3,383.1 532.3,384.7 C535.1,389.4 525.6,387.9 524.7,387.8 C522.6,387.5 520.4,387.3 518.3,387.2 C513.4,386.9 508.4,387.2 503.5,387.6 C500.3,387.8 472.7,391.1 472.6,386.7 C472.6,384.7 469.6,384.7 469.6,386.7 L469.6,386.7 Z" id="Path"></path>
                    <path d="M473.1,386.3 C471.3,380.7 486.8,381.3 489.4,381.2 C494,381 498.7,380.8 503.3,380.6 C505.8,380.5 531.8,379.8 531.1,381.7 C530.5,383.5 533.4,384.3 534,382.5 C537,373.6 504.5,377.5 500.3,377.7 C492.5,378 483.8,377.3 476.2,378.8 C472.2,379.6 468.8,382.6 470.2,387 C470.8,388.9 473.7,388.1 473.1,386.3 L473.1,386.3 Z" id="Path"></path>
                    <path d="M486.4,378 C481.8,375.9 477.7,372.9 474.5,369.1 C473.2,367.5 464,354.2 469.4,353.4 C470.3,353.3 470.8,351.9 470.3,351.2 C467.4,347 466.2,341.6 464.7,336.8 C463,331.6 461.4,326.4 459.7,321.3 C459.4,320.2 458.9,319.2 458.7,318.1 C458.2,316 457.9,316 460.4,315.8 C463.1,315.6 464.5,317.7 466.3,319.5 C469.7,322.9 472.7,326.6 475.4,330.5 C485.5,345.1 491.1,362.3 495.3,379.4 C495.8,381.3 498.7,380.5 498.2,378.6 C492.8,356.8 484.9,334.4 468.9,317.9 C466.7,315.6 462.5,310.3 458.8,310.9 C456,311.4 455.2,314.4 455.4,316.9 C455.8,322.5 458.8,328.6 460.6,334 C462.6,340.2 463.9,347.4 467.7,352.8 C468,352.1 468.3,351.3 468.6,350.6 C462,351.6 465.8,360.8 467.6,364.4 C471.4,371.7 477.5,377.3 484.9,380.8 C486.6,381.4 488.1,378.8 486.4,378 L486.4,378 Z" id="Path"></path>
                    <path d="M489.8,350.6 C489.5,337.9 489.2,324.7 493.5,312.6 C495.6,306.7 498.8,301.4 502.5,296.4 C503.4,295.1 504.4,293 505.8,292.2 C506.8,290.6 508.3,290.4 510.2,291.7 C512.6,291.1 513.8,291.7 513.8,293.5 C515,296.2 514.6,300.8 514.6,303.6 C514.6,310.3 513,316.5 511.4,322.9 C510.8,325.1 510.3,327.4 510.5,329.6 C510.7,332.2 512.1,334.2 512.8,336.6 C514.8,343.4 511.3,350.4 508.9,356.6 C506.5,363.1 504,369.6 501.6,376.2 C500.9,378 503.8,378.8 504.5,377 C507.7,368.4 511.1,359.9 514.1,351.2 C516.2,345.1 517.2,339.8 514.8,333.8 C511.6,325.7 516.7,316.6 517.4,308.3 C517.8,302.9 518.7,293.7 515.2,288.9 C507.6,278.4 495.5,300.8 493.1,305.8 C486.3,319.8 486.4,335.5 486.8,350.7 C486.9,352.6 489.9,352.6 489.8,350.6 L489.8,350.6 Z" id="Path"></path>
                    <path d="M464.6,326 C474.5,339.9 480.4,356.6 487.3,372.1 C488.1,373.9 490.7,372.3 489.9,370.6 C483.1,355 477.1,338.4 467.2,324.5 C466.1,322.9 463.5,324.4 464.6,326 L464.6,326 Z" id="Path"></path>
                    <path d="M492.2,318.9 C492.6,324.2 494.4,328.9 497.7,333 C498.9,334.5 501,332.4 499.8,330.9 C497.1,327.4 495.5,323.3 495.2,318.9 C495.1,317 492.1,317 492.2,318.9 L492.2,318.9 Z" id="Path"></path>
                    <path d="M505.8,318.2 C508.2,314.6 510.7,311 513.1,307.4 C514.2,305.8 511.6,304.3 510.5,305.9 C508.1,309.5 505.6,313.1 503.2,316.7 C502.2,318.3 504.8,319.8 505.8,318.2 L505.8,318.2 Z" id="Path"></path>
                    <path d="M535.6,316.2 C533.1,320.2 529.5,323.3 526.2,326.5 C522.6,329.9 519,333.4 515.4,336.8 C514,338.1 516.1,340.3 517.5,338.9 C524.4,332.3 533.1,325.9 538.2,317.7 C539.2,316.1 536.6,314.6 535.6,316.2 L535.6,316.2 Z" id="Path"></path>
                    <path d="M534.3,320.2 C534.5,325.5 543.3,335.3 536.5,338.5 C535.6,339 535.6,340.2 536.2,340.9 C538.5,343.7 537,347.9 536.7,351.2 C536.4,354.9 536.7,358.6 535.7,362.2 C533.9,369.1 527.5,373.2 521.8,376.8 C520.2,377.8 521.7,380.4 523.3,379.4 C530.2,375 537.3,370 538.9,361.4 C539.7,356.8 539.7,352 540.1,347.4 C540.5,344.1 540.4,341.5 538.2,338.9 C538.1,339.7 538,340.5 537.9,341.3 C547.4,336.8 537.4,326.6 537.2,320.4 C537.2,318.3 534.2,318.3 534.3,320.2 L534.3,320.2 Z" id="Path"></path>
                    <path d="M529.5,334.9 C522.6,346 516.7,357.6 511.8,369.8 C511.1,371.6 514,372.4 514.7,370.6 C519.5,358.7 525.3,347.3 532.1,336.4 C533.1,334.7 530.5,333.2 529.5,334.9 L529.5,334.9 Z" id="Path"></path>
                    <path d="M483.1,412.8 C487.1,418.2 492.6,421.9 499.2,423.3 C501.1,423.7 501.9,420.8 500,420.4 C494.2,419.2 489.2,416.1 485.7,411.3 C484.6,409.8 482,411.3 483.1,412.8 L483.1,412.8 Z" id="Path"></path>
                    <path d="M481.4,400.5 C491.7,408.4 502.6,419.7 515.8,422.4 C517.7,422.8 518.5,419.9 516.6,419.5 C503.8,416.9 493,405.6 482.9,397.9 C481.4,396.7 479.9,399.3 481.4,400.5 L481.4,400.5 Z" id="Path"></path>
                    <path d="M489.3,392.9 C495.5,398 501.5,403.2 507.8,408.1 C510.5,410.2 513.3,412.2 516.6,413.5 C519.7,414.8 523,415.4 525.8,417.4 C527.4,418.5 528.9,415.9 527.3,414.8 C525.1,413.3 522.9,412.6 520.5,411.7 C516.4,410.3 513.1,408.4 509.7,405.7 C503.5,400.9 497.5,395.8 491.5,390.8 C489.9,389.6 487.8,391.7 489.3,392.9 L489.3,392.9 Z" id="Path"></path>
                    <path d="M505.7,391.5 C511.5,397.5 518.5,401.9 526.5,404.5 C528.3,405.1 529.1,402.2 527.3,401.6 C519.8,399.1 513.3,395 507.8,389.3 C506.5,388 504.3,390.1 505.7,391.5 L505.7,391.5 Z" id="Path"></path>
                    <path d="M579.3,420.6 C578.7,419 577.8,416.9 577.9,415.2 C578.3,410.8 581.3,410.4 584.2,409.9 C588.4,409.1 592.8,409 597.1,409 C604.4,408.9 611.8,409.5 619.1,409.8 C626.4,410 633.6,409.6 640.9,409 C643.9,408.7 649.2,407.5 652.1,408.5 C655.1,409.6 655.9,411.1 656,413.9 C656.1,416.1 656.1,418.3 656.2,420.6 C656.3,422.5 659.3,422.5 659.2,420.6 C659.1,417.2 660.1,411.2 658.4,408 C656.8,405.2 653.1,405.5 650.3,405.5 C638.9,405.5 627.8,407.2 616.3,406.7 C605.7,406.3 595,405.4 584.5,407 C575.9,408.3 573.7,413.6 576.6,421.6 C577,423.2 579.9,422.4 579.3,420.6 L579.3,420.6 Z" id="Path"></path>
                    <path d="M600.5,404.5 C601.3,402.7 602,400.9 602.8,399.1 C603.7,399 604.6,398.9 605.5,398.7 C606.7,398.6 607.8,398.7 609,398.6 C611.6,398.6 614.1,398.5 616.7,398.5 C622.2,398.4 627.6,398.4 633.1,398.3 C638.2,398.2 643.4,398.2 648.5,398.1 C649.8,398.1 651.1,398.1 652.4,398 C654,398 654.5,397.6 655,398.8 C655.6,400.3 654.5,404.5 654.3,406.1 C654.1,408 657.1,408 657.3,406.1 C657.5,403.7 659,398.7 657.8,396.5 C656.8,394.7 655.3,395 653.3,395 C643.7,395 634,395.3 624.4,395.4 C619.9,395.5 615.4,395.5 610.9,395.6 C607.5,395.6 603.3,395.2 600.2,396.8 C596.6,398.7 594.9,403.6 598.4,406.5 C599.9,407.8 602,405.7 600.5,404.5 L600.5,404.5 Z" id="Path"></path>
                    <path d="M621.1,392.3 C618.5,388.8 629.4,389.2 630.1,389.1 C632.5,388.9 640.7,387.4 639.1,392.8 C638.5,394.7 641.4,395.4 642,393.6 C642.7,391.2 641.9,389 640,387.4 C636.7,384.7 632.6,386 628.7,386.2 C625.6,386.3 621.9,385.3 619.4,387.7 C617.6,389.3 617.1,391.8 618.5,393.8 C619.7,395.3 622.3,393.8 621.1,392.3 L621.1,392.3 Z" id="Path"></path>
                    <path d="M468.1,441 C471.9,446.2 476.4,450.5 481.7,454.1 C483.3,455.2 484.8,452.6 483.2,451.5 C478.4,448.2 474.1,444.2 470.7,439.4 C469.5,437.9 466.9,439.4 468.1,441 L468.1,441 Z" id="Path"></path>
                    <path d="M481.3,453.1 C484.6,453.1 487.9,453.1 491.2,453.1 C493.1,453.1 496.2,453.6 497.9,452.7 C499.2,452 499.6,450.4 500.2,449.2 C501.8,446 503.7,443 505.9,440.1 C507.1,438.6 505,436.5 503.8,438 C502.7,439.3 501.7,440.7 500.7,442.1 C499.5,444 498.7,446.7 497.3,448.4 C494.5,451.7 485.4,450.2 481.3,450.1 C479.4,450.1 479.4,453.1 481.3,453.1 L481.3,453.1 Z" id="Path"></path>
                    <path d="M492.4,440.8 C493.2,443.8 494,446.9 494.9,449.9 C495.4,451.8 498.3,451 497.8,449.1 C497,446.1 496.2,443 495.3,440 C494.8,438.1 491.9,438.9 492.4,440.8 L492.4,440.8 Z" id="Path"></path>
                    <path d="M614.3,440.3 C615.9,443.6 617.6,446.8 619.7,449.8 C620.8,451.4 622.2,453.9 624.1,454.8 C626.1,455.8 628.9,455 630.9,454.8 C634.5,454.4 638.1,454.1 641.7,453.7 C643.6,453.5 643.6,450.5 641.7,450.7 C639.3,450.9 636.9,451.2 634.5,451.4 C632.4,451.6 629.3,452.5 627.3,452.1 C622.1,451.1 618.9,442.9 616.9,438.7 C616,437 613.4,438.5 614.3,440.3 L614.3,440.3 Z" id="Path"></path>
                    <path d="M641.8,437.8 C640.6,442.1 640,446.5 640.1,450.9 C640.2,452.8 643.2,452.8 643.1,450.9 C643,446.7 643.5,442.6 644.6,438.6 C645.2,436.8 642.3,436 641.8,437.8 L641.8,437.8 Z" id="Path"></path>
                    <path d="M643.1,452.4 C647.1,448.6 650.9,444.6 654.6,440.5 C655.9,439.1 653.8,436.9 652.5,438.4 C648.8,442.5 645,446.5 641,450.3 C639.6,451.6 641.7,453.7 643.1,452.4 L643.1,452.4 Z" id="Path"></path>
                    <path d="M0.9,147.4 C0.9,175.6 0.9,203.7 0.9,231.9 C0.9,233.8 3.9,233.8 3.9,231.9 C3.9,203.7 3.9,175.6 3.9,147.4 C3.9,145.5 0.9,145.5 0.9,147.4 L0.9,147.4 Z" id="Path"></path>
                    <path d="M3.3,234.2 C39,234.2 74.8,234.2 110.5,234.2 C112.4,234.2 112.4,231.2 110.5,231.2 C74.8,231.2 39,231.2 3.3,231.2 C1.3,231.2 1.3,234.2 3.3,234.2 L3.3,234.2 Z" id="Path"></path>
                    <path d="M3.3,148.9 C38,148.9 72.6,148.9 107.3,148.9 C109.2,148.9 109.2,145.9 107.3,145.9 C72.6,145.9 38,145.9 3.3,145.9 C1.3,145.9 1.3,148.9 3.3,148.9 L3.3,148.9 Z" id="Path"></path>
                    <path d="M107.3,147.4 C107.3,175.6 107.3,203.7 107.3,231.9 C107.3,233.8 110.3,233.8 110.3,231.9 C110.3,203.7 110.3,175.6 110.3,147.4 C110.3,145.5 107.3,145.5 107.3,147.4 L107.3,147.4 Z" id="Path"></path>
                    <path d="M56.7,144.9 C56.6,143.6 56.8,142.4 57.4,141.2 C57.7,140.5 58.9,138.7 59.6,139.2 C60.4,139.7 60.7,142 60.8,142.8 C61.1,144.3 61.1,145.8 60.9,147.3 C60.7,149.2 63.7,149.2 63.9,147.3 C64.1,144.7 63.9,142.1 63,139.6 C62.4,138 61.6,136.1 59.7,135.9 C55.6,135.4 53.5,141.7 53.7,144.8 C53.8,146.9 56.8,146.9 56.7,144.9 L56.7,144.9 Z" id="Path"></path>
                    <path d="M6.6,157.1 C6.6,179.6 6.6,202 6.6,224.5 C6.6,226.4 9.6,226.4 9.6,224.5 C9.6,202 9.6,179.6 9.6,157.1 C9.6,155.2 6.6,155.2 6.6,157.1 L6.6,157.1 Z" id="Path"></path>
                    <path d="M8.1,226 C39.5,226 70.9,226 102.3,226 C104.2,226 104.2,223 102.3,223 C70.9,223 39.5,223 8.1,223 C6.2,223 6.2,226 8.1,226 L8.1,226 Z" id="Path"></path>
                    <path d="M104.7,223.7 C104.7,201.2 104.7,178.8 104.7,156.3 C104.7,154.4 101.7,154.4 101.7,156.3 C101.7,178.8 101.7,201.2 101.7,223.7 C101.7,225.7 104.7,225.7 104.7,223.7 L104.7,223.7 Z" id="Path"></path>
                    <path d="M8.9,159.4 C39.2,159.4 69.5,159.4 99.9,159.4 C101.8,159.4 101.8,156.4 99.9,156.4 C69.6,156.4 39.3,156.4 8.9,156.4 C7,156.4 7,159.4 8.9,159.4 L8.9,159.4 Z" id="Path"></path>
                    <path d="M9.4,210.1 C21.1,206.6 33,203.5 44.6,208.9 C52.9,212.8 60.1,218.7 69.4,220.4 C71.3,220.7 72.1,217.9 70.2,217.5 C59.6,215.5 51.6,207.8 41.5,204.4 C30.6,200.8 19.2,204 8.6,207.2 C6.8,207.8 7.6,210.7 9.4,210.1 L9.4,210.1 Z" id="Path"></path>
                    <path d="M48.4,208.4 C62.7,203.4 77.6,201.6 92.6,203.1 C94.5,203.3 94.5,200.3 92.6,200.1 C77.3,198.6 62.1,200.4 47.6,205.5 C45.8,206.2 46.6,209.1 48.4,208.4 L48.4,208.4 Z" id="Path"></path>
                    <path d="M51.5,185.2 C50.4,183.3 50.7,180.5 52.6,179.2 C54.3,178 57,178.5 58.2,180.1 C59.4,181.8 58.7,184.5 56.8,185.5 C54.6,186.6 52.1,184.5 52.1,182.3 C52.1,180.4 49.1,180.4 49.1,182.3 C49,186.3 53.1,189.7 57.1,188.6 C60.8,187.6 62.8,182.9 61.2,179.5 C59.6,175.9 54.8,174.6 51.4,176.4 C47.7,178.4 46.8,183.3 48.8,186.8 C49.9,188.4 52.4,186.9 51.5,185.2 L51.5,185.2 Z" id="Path"></path>
                    <path d="M538.6,161.9 C542.2,166.7 542.9,173.2 547.3,177.4 C551.4,181.4 556.3,180.8 561.3,179 C563.1,178.4 562.3,175.5 560.5,176.1 C557.8,177 554.7,178 551.9,176.9 C549.5,175.9 547.9,173.7 546.7,171.4 C544.8,167.7 543.7,163.7 541.2,160.3 C540,158.8 537.4,160.3 538.6,161.9 L538.6,161.9 Z" id="Path"></path>
                    <path d="M560.9,177.8 C565.7,173.7 569.9,169 573.5,163.8 C574.6,162.2 572,160.7 570.9,162.3 C567.5,167.3 563.4,171.8 558.8,175.7 C557.3,176.9 559.4,179.1 560.9,177.8 L560.9,177.8 Z" id="Path"></path>
                    <path d="M553.6,160.8 C555,164.1 555.6,167.5 555.5,171 C555.4,172.9 558.4,172.9 558.5,171 C558.6,166.9 557.8,163 556.2,159.3 C555.5,157.5 552.9,159 553.6,160.8 L553.6,160.8 Z" id="Path"></path>
                    <path d="M473.5,552 C473.5,565.3 473.5,578.7 473.5,592 C473.5,593.9 476.5,593.9 476.5,592 C476.5,578.7 476.5,565.3 476.5,552 C476.5,550.1 473.5,550.1 473.5,552 L473.5,552 Z" id="Path"></path>
                    <path d="M437,597.5 C472.3,597.5 507.7,597.5 543,597.5 C544.9,597.5 544.9,594.5 543,594.5 C507.7,594.5 472.3,594.5 437,594.5 C435.1,594.5 435.1,597.5 437,597.5 L437,597.5 Z" id="Path"></path>
                    <path d="M494.5,600 C494.5,608.3 494.5,616.7 494.5,625 C494.5,626.9 497.5,626.9 497.5,625 C497.5,616.7 497.5,608.3 497.5,600 C497.5,598.1 494.5,598.1 494.5,600 L494.5,600 Z" id="Path"></path>
                    <path d="M436,629.5 C467.3,629.5 498.7,629.5 530,629.5 C531.9,629.5 531.9,626.5 530,626.5 C498.7,626.5 467.3,626.5 436,626.5 C434.1,626.5 434.1,629.5 436,629.5 L436,629.5 Z" id="Path"></path>
                    <path d="M459.5,632 C459.5,638.3 459.5,644.7 459.5,651 C459.5,652.9 462.5,652.9 462.5,651 C462.5,644.7 462.5,638.3 462.5,632 C462.5,630.1 459.5,630.1 459.5,632 L459.5,632 Z" id="Path"></path>
                    <path d="M469.5,147.8 C469.5,143.6 468.7,138.3 469.5,134.2 C470.6,128.4 478.7,129.5 483.4,129.2 C485.3,129.1 485.3,126.1 483.4,126.2 C479.6,126.4 475.6,126.4 471.8,127 C470.1,127.3 468.6,127.8 467.6,129.3 C466.4,131.1 466.6,133.6 466.6,135.7 C466.6,139.7 466.6,143.8 466.6,147.8 C466.5,149.8 469.5,149.8 469.5,147.8 L469.5,147.8 Z" id="Path"></path>
                    <path d="M451.9,36.1 C461,33.6 470.1,34.2 478.8,37.7 C480.6,38.4 481.4,35.5 479.6,34.8 C470.4,31.1 460.7,30.6 451.1,33.2 C449.2,33.8 450,36.7 451.9,36.1 L451.9,36.1 Z" id="Path"></path>
                    <path d="M448.2,27.1 C456.2,21.6 465.8,20.6 474.8,24.2 C476.6,24.9 477.4,22 475.6,21.3 C466,17.4 455.2,18.6 446.7,24.5 C445.1,25.6 446.6,28.2 448.2,27.1 L448.2,27.1 Z" id="Path"></path>
                    <path d="M415.7,79.5 C412.5,81.7 406.4,84.6 405.5,88.8 C405.1,91 406.1,93 406.9,95 C408.3,98.5 409.7,102 411.2,105.5 C417,119.2 423.5,132.6 430.7,145.6 C431.6,147.3 434.2,145.8 433.3,144.1 C427.8,134.1 422.7,123.9 418,113.5 C415.5,108 413.1,102.4 410.9,96.8 C409.6,93.5 407.8,90.6 410.2,87.2 C411.6,85.2 415.2,83.5 417.3,82.1 C418.8,81 417.3,78.4 415.7,79.5 L415.7,79.5 Z" id="Path"></path>
                </g>
                <g id="hand_r" transform="translate(465.000000, 461.000000)" fill-rule="nonzero">
                    <path d="M165.2,123.6 C157,129.7 147.1,139.5 143.5,153.5 C140.9,163.9 143.4,170 142.5,183.4 C141.9,192.7 139.5,205.8 131.8,221.4 C114.3,217.8 84.9,214.3 50.2,222.3 C29.5,227.1 12.9,234.6 0.7,241.4 C2.6,242.6 5.2,244 8.5,244.9 C27.2,250 46.9,234.3 47.5,235.4 C48.1,236.4 25.5,247 26.7,256.2 C27.5,262.4 38.6,265.7 50.1,269.2 C59.8,272.1 69,274.9 81.3,273.5 C98.2,271.6 109.9,263.1 115.1,258.7 C120.1,261.2 127.5,264.5 136.8,267.4 C153.9,272.6 177.5,279.8 193.2,270 C203.4,263.6 206.5,248.6 212.3,218.8 C219.3,182.5 222.6,164.3 213.2,149.4 C200.9,129.5 175.6,124.9 165.2,123.6 Z" id="Path" stroke="#161616" stroke-width="3" fill="#FFFFFF"></path>
                    <path d="M128.6,222.5 C140.7,227 150.7,235.2 157.6,246.1 C158.6,247.7 161.2,246.2 160.2,244.6 C152.9,233 142.2,224.4 129.4,219.6 C127.5,218.9 126.8,221.8 128.6,222.5 L128.6,222.5 Z" id="Path" fill="#161616"></path>
                    <path d="M64.2,242.2 C52.3,244.2 42.7,252.2 38.4,263.4 C37.7,265.2 40.6,266 41.3,264.2 C45.2,254 54.2,246.9 65,245.1 C66.9,244.8 66.1,241.9 64.2,242.2 L64.2,242.2 Z" id="Path" fill="#161616"></path>
                    <path d="M78.2,252.2 C73.9,254.8 69.9,257.8 66.1,261 C63.6,263.2 60.8,265.8 61.4,269.4 C62.9,278.9 74.3,276.8 80.5,274.4 C82.3,273.7 81.5,270.8 79.7,271.5 C77,272.5 74,273.8 71.1,273.7 C66.4,273.5 62.2,269 66.2,264.9 C70,260.9 75,257.7 79.7,254.7 C81.3,253.7 79.8,251.1 78.2,252.2 L78.2,252.2 Z" id="Path" fill="#161616"></path>
                    <path d="M258.5,0.5 C253.4,2.2 246.9,4.8 239.6,8.4 C237.5,9.4 232.2,12.1 226.5,15.8 C217.7,21.4 211.3,27.3 204,34.7 C194.7,44.2 185.3,53.7 174.1,68.9 C164.7,81.7 150.1,101.8 139.6,131.3 C135.4,143 133,153.1 131.6,160.3 C137.1,157.1 142.1,155.5 146,154.6 C168.5,149.5 190.1,160.9 210.6,171.6 C218.3,175.6 224.4,179.5 228.6,182.2 C230.8,171.4 233,160.5 235.2,149.7 C237.1,140.6 238.9,131.4 240.8,122.3 C243.7,119.8 247.6,116.1 251.9,111.3 C260,102.1 276.1,83.8 278.3,58.4 C281,29.1 263.6,6.7 258.5,0.5 Z" id="Path" fill="#FFFFFF"></path>
                    <path d="M252.6,1.7 C241.9,3.3 232.7,9 224.4,15.6 C214.8,23.1 205.8,31.4 197.4,40.2 C181,57.2 166.7,76.2 154.9,96.7 C153.9,98.4 156.5,99.9 157.5,98.2 C168.9,78.4 182.5,60 198.3,43.5 C206,35.5 214.1,27.9 222.6,20.8 C231.7,13.3 241.4,6.3 253.4,4.5 C255.3,4.3 254.5,1.4 252.6,1.7 L252.6,1.7 Z" id="Path" fill="#161616"></path>
                    <path d="M248.4,110.9 C241,118.4 233.4,125.7 225.7,132.8 C224.3,134.1 226.4,136.2 227.8,134.9 C235.5,127.8 243.1,120.5 250.5,113 C251.8,111.6 249.7,109.5 248.4,110.9 L248.4,110.9 Z" id="Path" fill="#161616"></path>
                    <path d="M238,124.6 C234.5,143.8 231.1,163.1 227.6,182.3 C228.3,182 229.1,181.7 229.8,181.4 C213.9,170.3 196.2,162 177.4,156.8 C162.7,152.8 144,148.9 131.4,160 C130,161.3 132.1,163.4 133.5,162.1 C146.3,150.7 167,156.7 181.5,161.1 C198.2,166.2 213.9,174 228.2,183.9 C229,184.4 230.2,183.9 230.4,183 C233.9,163.8 237.3,144.5 240.8,125.3 C241.2,123.5 238.3,122.7 238,124.6 L238,124.6 Z" id="Path" fill="#161616"></path>
                    <path d="M155.6,95.3 C145.2,115.6 132.2,136.5 131.3,160 C131.2,161.9 134.2,161.9 134.3,160 C135.2,137.1 148,116.7 158.2,96.8 C159,95.1 156.4,93.6 155.6,95.3 L155.6,95.3 Z" id="Path" fill="#161616"></path>
                    <path d="M244.5,57.5 C226.6,93.1 216.9,123.1 211.2,144.1 C202.9,174.9 200,199.2 178.5,219.4 C175,222.7 164.7,232.2 148.5,238.1 C114.5,250.4 89.3,233.8 67.9,251.4 C65.5,253.4 58.4,258.4 59.2,264.1 C60,269.5 67.4,272.3 68.5,272.8 C77.3,276.2 86.4,272.7 97.8,268.1 C110.7,262.9 109.3,261.1 115.1,260.1 C127.3,258 132.9,265.7 149.1,270.8 C156,272.9 176.4,279.3 191.1,270.8 C201.9,264.5 205.2,252.7 210.4,232.8 C214,219.3 217.7,199.6 217.1,174.8 C221.1,177.9 225.1,181 229.1,184.1 C234.3,141.9 239.4,99.7 244.5,57.5 Z" id="Path" fill="#3D3D3D" opacity="0.4"></path>
                    <path d="M238.5,100.8 C224.8,126.7 218.1,148.6 214.5,163.4 C207.3,193.1 209.6,207.1 199.8,228 C189.3,250.7 172.3,265.1 160.5,273.3 C167.1,274.8 183,277.6 194.5,268.6 C202.6,262.3 204.7,253.3 207.8,238.6 C211.7,220.5 215.8,199.9 219.8,177.3 C222.9,179.3 226,181.3 229.1,183.3 C232.3,155.9 235.4,128.3 238.5,100.8 Z" id="Path" fill="#3D3D3D" opacity="0.38"></path>
                </g>
                <g id="torso" transform="translate(675.000000, 437.000000)" fill-rule="nonzero">
                    <path d="M46.4,22.5 C42.8,46 39.3,69.7 35.9,93.5 C22.7,185.8 11.3,276.5 1.7,365.7 C1.9,368.7 2.7,373.5 5.7,378.3 C8.7,383.2 12.7,385.7 14.6,387 C32.8,400 41.9,406.6 51.1,411 C95.2,432.3 144,429.8 144,429.8 C154.3,429.3 174.8,428 196.8,419.2 C198,418.7 206.4,414.8 223.2,406.9 C238.4,399.8 241.1,398.4 244.8,395 C253.6,386.9 257,376.9 259.3,369.8 C264.2,354.7 263.7,341.9 263.5,338.8 C263.5,338.8 262.5,313.9 261.8,168.5 C261.7,138.9 264.6,95.4 280.2,41.7 C264,33.8 248.8,26.5 230.5,17.7 C217.9,11.6 206.2,6 189.4,4 C184.6,3.4 180.3,3.2 173.9,3.3 C147.9,3.5 126.5,7.5 117.3,9.1 C99.4,12 75.2,16.4 46.4,22.5 Z" id="Path" fill="#FFFFFF"></path>
                    <path d="M45.6,26 C76.6,19.4 107.9,14.1 139.3,10.2 C140.7,10 141.5,8.2 140.1,7.4 C139.7,7.2 139.3,6.9 138.8,6.7 C137.1,5.7 135.6,8.3 137.3,9.3 C137.7,9.5 138.1,9.8 138.6,10 C138.9,9.1 139.1,8.1 139.4,7.2 C107.7,11.1 76.1,16.4 44.9,23.1 C42.9,23.5 43.7,26.4 45.6,26 L45.6,26 Z" id="Path" fill="#161616"></path>
                    <path d="M36.3,78.4 C25.3,156.8 15.3,235.3 6.3,314 C5.2,323.9 4.1,333.7 3,343.6 C2.1,352.2 -0.4,361.9 0.7,370.5 C1.7,378.1 7.7,382.9 13.2,387.5 C19.2,392.5 25.5,397.2 32.1,401.5 C59.2,419 90.9,429.5 123.1,431.4 C161.4,433.6 199.9,423.8 232.6,403.8 C234.2,402.8 232.7,400.2 231.1,401.2 C173.9,436.1 101.1,437.5 42.8,404.4 C36.1,400.6 29.6,396.4 23.4,391.8 C17.1,387.1 6.9,380.7 4.3,373 C3.1,369.3 3.7,365.2 4.1,361.3 C4.6,356.4 5.2,351.4 5.7,346.5 C6.7,337.3 7.7,328.1 8.8,318.9 C13.1,281.4 17.5,244 22.3,206.6 C27.7,164.1 33.3,121.6 39.3,79.2 C39.5,77.3 36.6,76.5 36.3,78.4 L36.3,78.4 Z" id="Path" fill="#161616"></path>
                    <path d="M183.6,3.1 C201.2,6.6 217.7,14.7 234.1,21.6 C250.2,28.4 268.1,33.9 282.3,44.3 C283.9,45.4 285.4,42.8 283.8,41.7 C269.9,31.5 252.4,26.1 236.7,19.5 C219.7,12.4 202.6,3.9 184.4,0.2 C182.5,-0.2 181.7,2.7 183.6,3.1 L183.6,3.1 Z" id="Path" fill="#161616"></path>
                    <path d="M262,172.7 C260.4,214.8 258.8,256.9 260.3,298.9 C261,319.3 264.2,340.5 260.4,360.8 C257.2,377.5 247.8,394.2 231.1,400.4 C229.3,401.1 230.1,404 231.9,403.3 C258.5,393.4 265.4,363.1 265,337.7 C264.8,320.5 263.3,303.3 262.9,286 C262.5,268.4 262.7,250.9 263,233.3 C263.4,213.1 264.2,192.9 264.9,172.7 C265.1,170.7 262.1,170.7 262,172.7 L262,172.7 Z" id="Path" fill="#161616"></path>
                    <path d="M247.6,149 C242.3,167.2 234,187.1 221.2,206.9 C163.9,295 59,312.6 32.2,316.3 C68.2,320.1 104.6,324.2 141.4,328.6 C182,333.4 222.1,338.5 261.6,343.7 C259.1,299 259.1,262.2 259.7,235.9 C260.8,181.5 264.7,137.5 257.6,136.1 C255.9,135.7 252.9,137.6 247.6,149 Z" id="Path" fill="#3D3D3D" opacity="0.38"></path>
                    <path d="M259.9,181.7 C256.3,192.3 250.8,207.3 242.7,224.6 C231.3,249.1 220.4,272.7 206.3,287.2 C166.9,327.7 89.9,310.2 89.6997355,313 C89.6,314.6 117.8,319.1 260.2,332.2 C260.2,282 260.1,231.9 259.9,181.7 Z" id="Path" fill="#3D3D3D" opacity="0.42"></path>
                </g>
                <g id="table" transform="translate(9.000000, 695.000000)">
                    <path d="M1105.3,336 C738.3,287 371.2,238 4.2,189.1 C112.5,126.3 220.9,63.5 329.2,0.7 C660.3,33.3 991.5,66 1322.6,98.6 C1250.1,177.7 1177.7,256.9 1105.3,336 Z" id="Path" stroke="#161616" stroke-width="3" fill="#FFFFFF" fill-rule="nonzero"></path>
                    <path d="M0.6,197.6 C368.5,246.4 736.4,295.2 1104.2,344" id="Path" stroke="#161616" stroke-width="16"></path>
                    <path d="M1097.2,346.2 C1174.3,264.7 1251.4,183.1 1328.4,101.6" id="Path" stroke="#161616" stroke-width="16"></path>
                    <path d="M974.4,132 C936.9,161.3 900.2,191.5 864.1,222.5 C862.6,223.8 864.8,225.9 866.2,224.6 C902.3,193.6 939.1,163.4 976.5,134.1 C978,133 975.9,130.8 974.4,132 L974.4,132 Z" id="Path" fill="#161616" fill-rule="nonzero"></path>
                    <path d="M865.5,224.1 C877.3,226.6 889.3,226.6 901.4,226.7 C915,226.9 927.8,228.3 940.8,232.1 C965.2,239.2 989.1,243.9 1014.6,243.3 C1016.5,243.3 1016.5,240.3 1014.6,240.3 C1001.5,240.6 988.4,239.8 975.4,237.7 C963.2,235.7 951.6,232.1 939.7,228.8 C928.3,225.6 916.9,224.1 905,223.9 C892,223.6 879,224 866.2,221.3 C864.4,220.8 863.6,223.7 865.5,224.1 L865.5,224.1 Z" id="Path" fill="#161616" fill-rule="nonzero"></path>
                    <path d="M976.6,134.2 C1016.2,137.4 1055.5,143.7 1094.1,153.1 C1096,153.6 1096.8,150.7 1094.9,150.2 C1056.1,140.7 1016.5,134.4 976.6,131.2 C974.7,131 974.7,134 976.6,134.2 L976.6,134.2 Z" id="Path" fill="#161616" fill-rule="nonzero"></path>
                    <path d="M1016.9,241.5 C1044.8,213.9 1071.6,185.1 1097,155.1 C1098.2,153.6 1096.1,151.5 1094.9,153 C1069.5,182.9 1042.7,211.7 1014.8,239.4 C1013.4,240.8 1015.5,242.9 1016.9,241.5 L1016.9,241.5 Z" id="Path" fill="#161616" fill-rule="nonzero"></path>
                    <path d="M900.4,212.2 C934.8,208 969.6,212.3 1001.9,224.9 C1003.7,225.6 1004.5,222.7 1002.7,222 C970.2,209.4 935,205 900.4,209.2 C898.5,209.4 898.5,212.4 900.4,212.2 L900.4,212.2 Z" id="Path" fill="#161616" fill-rule="nonzero"></path>
                    <path d="M952.5,201.2 C973.7,202.8 994.6,206.1 1015.3,211 C1017.2,211.5 1018,208.6 1016.1,208.1 C995.2,203.1 974,199.8 952.5,198.2 C950.5,198.1 950.6,201.1 952.5,201.2 L952.5,201.2 Z" id="Path" fill="#161616" fill-rule="nonzero"></path>
                    <path d="M936.6,179.1 C968.5,179.8 1000.1,184.4 1030.9,192.9 C1032.8,193.4 1033.6,190.5 1031.7,190 C1000.7,181.5 968.8,176.8 936.6,176.1 C934.7,176.1 934.7,179.1 936.6,179.1 L936.6,179.1 Z" id="Path" fill="#161616" fill-rule="nonzero"></path>
                    <path d="M976.2,169.9 C993.4,172.3 1010.4,175.3 1027.4,178.9 C1029.3,179.3 1030.1,176.4 1028.2,176 C1011.2,172.4 994.2,169.4 977,167 C975.1,166.7 974.3,169.6 976.2,169.9 L976.2,169.9 Z" id="Path" fill="#161616" fill-rule="nonzero"></path>
                    <path d="M954.3,237 C948.2,246.4 942.1,255.8 935.9,265.1 C935.3,266 936.1,267.5 937.2,267.4 C986.5,261.8 1036.5,265 1084.7,276.8 C1086.6,277.3 1087.4,274.4 1085.5,273.9 C1037,262 986.8,258.8 937.2,264.3 C937.6,265.1 938.1,265.8 938.5,266.6 C944.6,257.2 950.7,247.8 956.9,238.5 C958,236.9 955.4,235.4 954.3,237 L954.3,237 Z" id="Path" fill="#161616" fill-rule="nonzero"></path>
                    <path d="M1075.2,180.2 C1094.5,179.8 1113.7,179.4 1133,179 C1132.5,178.4 1132,177.7 1131.6,177.1 C1118.3,208.8 1104.9,240.4 1091.6,272.1 C1090.9,273.9 1093.8,274.7 1094.5,272.9 C1107.8,241.2 1121.2,209.6 1134.5,177.9 C1134.9,177 1133.9,176 1133.1,176 C1113.8,176.4 1094.6,176.8 1075.3,177.2 C1073.3,177.3 1073.3,180.3 1075.2,180.2 L1075.2,180.2 Z" id="Path" fill="#161616" fill-rule="nonzero"></path>
                    <path d="M1002.1,254.7 C1007.2,253.7 1012.3,253.5 1017.5,253.9 C1019.4,254 1019.4,251 1017.5,250.9 C1012,250.5 1006.7,250.8 1001.3,251.8 C999.4,252.1 1000.2,255 1002.1,254.7 L1002.1,254.7 Z" id="Path" fill="#161616" fill-rule="nonzero"></path>
                    <path d="M1030.5,255 C1046.2,255.6 1061.9,257.1 1077.5,259.5 C1079.4,259.8 1080.2,256.9 1078.3,256.6 C1062.5,254.1 1046.5,252.6 1030.5,252 C1028.6,251.9 1028.6,254.9 1030.5,255 L1030.5,255 Z" id="Path" fill="#161616" fill-rule="nonzero"></path>
                    <path d="M1031.4,236.2 C1035.1,236.2 1038.8,236.2 1042.6,236.2 C1044.5,236.2 1044.5,233.2 1042.6,233.2 C1038.9,233.2 1035.2,233.2 1031.4,233.2 C1029.5,233.2 1029.5,236.2 1031.4,236.2 L1031.4,236.2 Z" id="Path" fill="#161616" fill-rule="nonzero"></path>
                    <path d="M1054.7,235.9 C1067,236.2 1079.2,237.4 1091.4,239.4 C1093.3,239.7 1094.1,236.8 1092.2,236.5 C1079.8,234.5 1067.3,233.3 1054.7,232.9 C1052.8,232.9 1052.8,235.9 1054.7,235.9 L1054.7,235.9 Z" id="Path" fill="#161616" fill-rule="nonzero"></path>
                    <path d="M1052.8,218.8 C1066.8,219 1080.7,219.8 1094.6,221.4 C1096.5,221.6 1096.5,218.6 1094.6,218.4 C1080.7,216.8 1066.8,215.9 1052.8,215.8 C1050.9,215.7 1050.9,218.7 1052.8,218.8 L1052.8,218.8 Z" id="Path" fill="#161616" fill-rule="nonzero"></path>
                    <path d="M958.9,252 C965.6,252.2 972.2,251.4 978.8,249.8 C980.7,249.3 979.9,246.4 978,246.9 C971.7,248.5 965.4,249.2 958.9,249 C957,249 957,252 958.9,252 L958.9,252 Z" id="Path" fill="#161616" fill-rule="nonzero"></path>
                    <path d="M1006.4,95.3 C1003.8,98.5 1000.8,105 1003.9,108.9 C1005.8,111.3 1009.4,110.8 1012.1,110.9 C1017,111.1 1021.9,111.4 1026.8,111.6 C1046.7,112.5 1066.5,113.5 1086.4,114.4 C1088.3,114.5 1088.3,111.5 1086.4,111.4 C1071.7,110.7 1057.1,110 1042.4,109.3 C1035.2,109 1028.1,108.6 1020.9,108.3 C1017.4,108.1 1013.7,108.3 1010.2,107.8 C1007.6,107.4 1005.7,107.3 1005.8,104.1 C1005.9,101.6 1007,99.3 1008.5,97.4 C1009.7,95.9 1007.6,93.7 1006.4,95.3 L1006.4,95.3 Z" id="Path" fill="#161616" fill-rule="nonzero"></path>
                    <path d="M1009.1,99.1 C1025.9,99.7 1042.7,100.2 1059.5,100.8 C1067.7,101.1 1076,101.3 1084.2,101.6 C1091.6,101.9 1099.4,102.4 1104.7,108.1 C1106,109.5 1108.1,107.4 1106.8,106 C1102.8,101.6 1097.4,99.9 1091.6,99.1 C1083,98 1074.1,98.2 1065.4,97.9 C1046.6,97.3 1027.8,96.6 1009.1,96 C1007.2,96.1 1007.2,99.1 1009.1,99.1 L1009.1,99.1 Z" id="Path" fill="#161616" fill-rule="nonzero"></path>
                    <path d="M1085.4,114.5 C1093.1,114.6 1100.4,112.2 1106.6,107.6 C1108.1,106.5 1106.6,103.9 1105.1,105 C1099.3,109.3 1092.7,111.6 1085.4,111.5 C1083.4,111.5 1083.4,114.5 1085.4,114.5 L1085.4,114.5 Z" id="Path" fill="#161616" fill-rule="nonzero"></path>
                    <path d="M1087.8,99.1 C1083.6,101.9 1081.7,107.1 1083.1,111.9 C1083.6,113.7 1086.5,113 1086,111.1 C1085,107.6 1086.2,103.7 1089.3,101.6 C1090.9,100.6 1089.4,98 1087.8,99.1 L1087.8,99.1 Z" id="Path" fill="#161616" fill-rule="nonzero"></path>
                </g>
                <g id="color_1_" transform="translate(93.000000, 38.000000)" fill-rule="nonzero">
                    <path d="M274.1,396.6 C271.6,391.4 264.5,391 260.7,394.9 C256.6,399.1 254.7,407.2 255.1,412.9 C256,424.4 267.2,429.8 270.2,440.1 C271.6,444.8 278.8,446.3 281.2,441.5 C285.2,433.6 290.8,426.8 295.8,419.6 C300.2,413.2 306.9,403.3 304.5,395.1 C303.5,391.6 300.4,388.6 296.6,388.2 C292,387.7 288.8,390.5 286.1,393.9 C283.4,397.4 281,401 279,404.9 C277.2,408.3 275.8,412.3 272.3,414.2 C275.2,415.4 278.2,416.6 281.1,417.8 C279.8,413.5 278.5,409.2 277.3,405 C274,406.9 270.6,408.9 267.3,410.8 C271.8,415.9 279.5,416.6 284.9,412.3 C287.4,410.3 288.8,407.6 290.5,405 C291.3,403.8 292,402.7 293.2,401.9 C294,401.3 295,400.9 296,400.6 C298,400.5 297.9,400.3 295.8,400 C294.8,398.3 293.8,396.5 292.8,394.8 C292.8,395 292.8,395.3 292.8,395.5 C294.3,393.6 295.7,391.6 297.2,389.7 C297,389.8 296.8,389.8 296.6,389.9 C289.3,392.2 292.4,403.8 299.8,401.5 C300,401.4 300.2,401.4 300.4,401.3 C303.1,400.5 304.6,398.2 304.8,395.5 C304.8,395.3 304.8,395 304.8,394.8 C304.9,392.7 303.5,390.7 301.8,389.6 C296.8,386.4 289.4,389.5 285.3,392.8 C283,394.7 281.4,396.9 279.8,399.4 C278.8,401 277.7,404.4 275.8,402.2 C271.8,397.7 264.1,402.5 265.8,408 C267.1,412.3 268.4,416.6 269.6,420.8 C270.7,424.6 275,426.3 278.4,424.4 C283.5,421.7 286.3,417 288.8,412 C290.3,409.1 291.8,406.3 293.7,403.7 C294,403.2 296.7,400.4 296.6,399.9 C294,397.7 292.7,397.8 292.5,400.2 C292.3,401 292,401.7 291.7,402.4 C286.7,414.5 276.7,423.7 270.8,435.3 C274.5,435.8 278.1,436.3 281.8,436.7 C279.9,430.2 275.6,425.5 271.5,420.3 C269.8,418.1 267.9,415.7 267.3,413 C266.9,411.1 267.1,409.4 267.6,407.6 C267.9,406.4 268.3,405.3 268.8,404.2 C270.5,401.8 268.8,401.2 263.8,402.5 C267.1,409.6 277.4,403.5 274.1,396.6 L274.1,396.6 Z" id="Path" fill="#333333"></path>
                    <path d="M280.6,429.4 C289.4,418.8 297.1,407.5 303.5,395.4 C307.1,388.6 296.7,382.5 293.1,389.3 C287.2,400.6 280.3,411.2 272.1,420.9 C267.2,426.8 275.6,435.3 280.6,429.4 L280.6,429.4 Z" id="Path" fill="#333333"></path>
                    <path d="M304.3,259.7 C302.7,270.2 303.1,280.5 305.9,290.8 C307.4,296.4 316.1,294 314.6,288.4 C312.3,279.8 311.6,270.9 313,262.1 C313.8,256.4 305.1,254 304.3,259.7 L304.3,259.7 Z" id="Path" fill="#3F3F3F"></path>
                    <path d="M307.7,264.3 C318.7,269 327.5,259.8 327.9,249 C327.9,248 327.3,245.3 327.7,244.4 C327.5,244.4 327.3,244.4 327.2,244.4 C328.1,244.7 328.8,245.2 329.2,246.1 C330.8,248.1 331.6,250.7 333.3,252.7 C336.8,256.8 341.6,257.4 346.7,257.7 C349.2,257.8 352.2,257.5 353.7,259.9 C355.2,262.2 354.4,266.1 354.2,268.7 C354,272.3 353.7,276 353.4,279.6 C353.3,280.5 352.4,283.9 353.7,282.6 C352.9,283.5 349.6,283.7 348.5,284 C341.9,285.5 335.1,286.1 328.4,285.7 C324.9,285.5 319.6,285.9 317.6,282.8 C315.8,279.9 315.7,275.5 316.2,272.2 C313.5,272.6 310.7,272.9 308,273.3 C310.4,278.6 312.7,283.9 315.1,289.3 C316.7,292.8 322.5,291.8 323.3,288.2 C325.7,277.4 322.4,266.1 325.8,255.5 C323.3,256.2 320.8,256.8 318.3,257.5 C321.2,261 320.5,268.5 321.2,272.8 C322,277.8 323.4,282.4 325.7,286.8 C327.8,290.6 334.4,289 334.1,284.5 C333.3,272.5 332.5,260.4 331.8,248.4 C328.9,248.8 325.9,249.2 323,249.6 C327.2,260.9 327.8,272.7 324.5,284.3 C326.7,283.4 328.9,282.5 331.1,281.6 C325.5,277.3 321.3,271.7 318.4,265.3 C316.5,261.2 309.8,263.3 310,267.6 C310.2,271.6 310.3,275.6 310.5,279.6 C313.5,279.6 316.5,279.6 319.5,279.6 C319.3,274.6 319.5,269.7 320.5,264.8 C320.9,263.1 321.3,261.3 321.8,259.6 C322.1,258.5 322.5,257.3 322.9,256.2 C324.2,254.6 324,254 322.3,254.4 C327.1,261.2 327.7,271.4 326.9,279.3 C329.7,278.5 332.5,277.8 335.3,277 C333,272.3 331.5,267.3 330.9,262.1 C330.6,259.4 330.5,256.7 330.7,254 C330.7,253.6 331.2,250.8 331,250.6 C330.3,250.7 329.6,250.7 328.9,250.8 C329.3,251.6 329.7,252.3 330.1,253.1 C334.7,262.5 336.1,273.1 335,283.5 C337.8,282.7 340.6,282 343.4,281.2 C341.6,277.3 340.2,273.2 339.4,269 C339.1,267.2 338.9,265.4 339.1,263.6 C339.2,262.6 339.4,261.6 339.7,260.6 C340.8,259.4 340.9,258.9 340,259.2 C338.8,259 337.7,258.9 336.5,258.7 C338.1,259.5 339.1,267.4 339.4,269.2 C340,273.5 339.9,278 339.3,282.3 C342.2,282.3 345.1,282.3 348,282.3 C346.9,279.1 346.1,275.8 345.6,272.5 C345.1,269.3 345.4,266 344.4,262.9 C346.6,269.8 346.2,277.1 344.2,283.9 C346.9,283.5 349.7,283.2 352.4,282.8 C351.2,280.2 350.2,277.4 349.7,274.5 C349.4,273.1 349.3,271.7 349.2,270.3 C349.2,269.7 349.1,269.1 349.2,268.5 C349.5,267.1 348.8,267 347.2,268.1 C346.3,267.4 345.4,266.7 344.5,266 C350.2,275.8 338.8,286.7 329.1,285.3 C330.2,286.7 331.3,288.2 332.4,289.6 C332.3,287.8 331.7,285.2 332.3,283.5 C331.6,284.4 330.9,285.3 330.2,286.2 C328.5,287.3 337.6,286 333.8,285.6 C328.6,285.1 327.8,293.1 332.6,294.4 C337.4,295.7 341.8,298.3 346.9,297.7 C351.3,297.2 354.6,294.6 356.4,290.7 C358.3,286.6 358.7,281.8 358.1,277.3 C357.8,274.8 357.2,272.5 356.2,270.3 C355.8,269.3 355.3,268.3 354.8,267.3 C354.5,266.7 354.1,266.1 353.7,265.5 C353.3,264.6 353.1,264.8 353.3,266.1 C356.1,266.9 358.9,267.6 361.7,268.4 C361.8,266.5 362,264.7 362.1,262.8 C359.2,263.2 356.2,263.6 353.3,264 C355,269 354.7,273.6 352.7,278.5 C350.5,283.9 359.2,286.2 361.4,280.9 C363.9,274.6 364.1,268 362,261.6 C360.4,256.7 353.5,257.7 353.2,262.8 C353.1,264.7 352.9,266.5 352.8,268.4 C352.5,272.8 359.3,274.7 361.2,270.7 C363.4,265.9 362.8,259.7 357.7,257 C353.3,254.7 347.4,256.7 345.3,261.2 C342.4,267.4 348.9,272.9 349.5,278.9 C349.8,281.7 349.8,287.3 346.7,288.7 C343.7,290 338,286.5 335.2,285.7 C334.8,288.6 334.4,291.6 334,294.5 C343.1,295.3 343.3,283.3 337,279.4 C333.9,277.5 329.7,276 326.4,278 C322.3,280.5 323.5,285.5 323.6,289.5 C323.7,291.3 324.9,293.6 326.9,293.8 C342.9,296.1 357.5,283.3 354.4,266.6 C353.8,263.3 352.5,259.6 348.8,258.9 C345.7,258.3 342.6,260.1 341.3,262.9 C338,270 341.9,280.5 344.9,287 C346.6,290.7 352.1,289.4 353.1,285.9 C355.1,279.2 355.7,272.3 354.5,265.4 C353.6,260.2 352,253.4 345.5,253.2 C331,252.9 337,276.7 339.5,284.2 C340.8,288 347.4,288.9 348.2,284.2 C349.4,276.5 349.3,268.8 347.3,261.2 C346.1,256.7 343.7,247.9 337.2,250.2 C332,252.1 330.4,259.6 330.4,264.5 C330.4,271.7 333,278.8 336,285.1 C338.1,289.6 344,286.8 344.4,282.8 C345.3,274.4 344.6,265.9 342.2,257.8 C340.5,252.1 337.4,240.6 329.8,240.9 C322.4,241.1 322,250.6 322,256 C322,264.7 324.2,273.1 328,281 C330.1,285.4 336,282.7 336.4,278.7 C337.2,271.6 336.5,264.4 334.3,257.6 C332.7,252.6 330.1,245.4 324.1,244.7 C317.5,244 315.2,251.6 313.7,256.5 C311.5,263.7 310.8,271.3 311.1,278.9 C311.4,284.7 320.3,284.7 320.1,278.9 C319.9,274.9 319.8,270.9 319.6,266.9 C316.8,267.7 314,268.4 311.2,269.2 C314.8,277.1 320.3,283.5 327.1,288.7 C329.5,290.5 333,288.5 333.7,286 C337.5,273 337,259.2 332.2,246.5 C330.5,242.1 323,242.3 323.4,247.7 C324.2,259.7 325,271.8 325.7,283.8 C328.5,283 331.3,282.3 334.1,281.5 C328.9,271.8 332.4,258.9 325.3,250.3 C323,247.5 318.7,249.3 317.8,252.3 C314.3,263 317.7,274.2 315.3,285 C318,284.6 320.8,284.3 323.5,283.9 C321.1,278.6 318.8,273.3 316.4,267.9 C314.9,264.5 308.8,265.3 308.2,269 C307.1,276 307.6,285.8 313.7,290.6 C316.5,292.8 320.2,293 323.7,293.4 C328.4,293.9 333.2,294.1 338,293.8 C342.6,293.5 347.1,292.8 351.6,291.8 C354.6,291.1 358.6,290.6 360.7,288.2 C363.4,285.3 362.9,280.6 363.2,276.9 C363.5,272.5 364,268.2 364.1,263.8 C364.2,256.6 361.3,250.3 353.9,248.5 C350.9,247.8 347.8,248.2 344.7,247.7 C339.9,247 339.4,242.9 336.8,239.5 C333.5,235.1 326.4,232.3 321.9,236.6 C319,239.4 319.6,243 319.7,246.6 C319.8,249.8 318.2,257.9 313.1,255.7 C307,254.3 302.4,262.1 307.7,264.3 L307.7,264.3 Z" id="Path" fill="#3F3F3F"></path>
                    <path d="M42.7,314.1 C49.7,320.5 56.3,327.4 62,335 C65.8,340 69.7,350 76.5,351.4 C80.5,352.2 83.7,350.1 86.7,347.7 C90.8,344.4 94.8,341 98.9,337.6 C103,334.2 107,330.9 111.1,327.5 C114,325.1 117.3,322.9 117.5,318.8 C117.7,314.9 115.2,312 112.9,309.1 C109.7,305 106.4,300.9 103.2,296.8 C100,292.7 96.7,288.6 93.5,284.5 C91.1,281.5 88.9,277.5 84.9,276.6 C81.3,275.8 78,277.9 75,279.5 C71,281.6 67.1,284 63.4,286.5 C56.1,291.5 49.3,297.2 43.1,303.6 C41.2,305.6 41.4,309.3 44,310.7 C50.5,314 56.7,317.9 62.3,322.7 C64.8,324.8 67.2,327.1 69.5,329.5 C70.6,330.7 71.7,331.9 72.8,333.2 C73.5,334 74.2,334.9 74.9,335.7 C75.8,338.1 77.1,338 78.7,335.2 C79.1,337.9 79.4,340.7 79.8,343.4 C90.2,337.1 99.7,329.3 107.9,320.3 C111.3,316.5 107,310.7 102.4,313.2 C95.4,317 88.2,320.1 80.7,322.5 C82.4,324.7 84.1,326.9 85.8,329.1 C90,322.4 95.2,316.6 101.3,311.5 C98.9,309.7 96.6,307.9 94.2,306 C88.7,314.2 81.8,321.4 73.9,327.3 C76.1,329 78.3,330.7 80.5,332.4 C83.1,323 88.4,314.7 96.3,308.8 C94.2,306.7 92.2,304.7 90.1,302.6 C85.6,311.5 79.3,319.1 71.2,324.9 C72.7,324.9 74.2,324.9 75.7,324.9 C76,325.2 76.2,325.6 76.5,325.9 C76.7,325.1 76.9,324.3 77.1,323.6 C77.4,322.6 77.7,321.6 78.1,320.5 C79,317.8 80.2,315.3 81.5,312.8 C84,308.1 87.1,304 90.8,300.2 C88.4,298.4 86.1,296.6 83.7,294.7 C78.4,305.6 71.1,315.1 61.9,323.1 C64.5,324.2 67,325.2 69.6,326.3 C70.7,314.5 75.8,303.7 84.1,295.2 C81.7,293.4 79.4,291.6 77,289.7 C72.9,297.7 66.9,304 59.1,308.5 C61.4,309.8 63.6,311.1 65.9,312.4 C65.8,308.8 66.3,305.3 68,302.1 C68.7,300.7 69.6,299.4 70.6,298.3 C72.2,296.4 75.2,295.9 72.4,294.1 C71.1,292.5 70.4,292.6 70.3,294.6 C69.8,295.6 69.4,296.6 68.9,297.6 C68.1,299.1 67.3,300.5 66.5,301.9 C65.6,303.3 64.7,304.7 63.7,306 C62.9,307 62.2,308 61.3,309 C59.9,309.8 59.8,310.4 61,310.7 C61.7,311.6 62.4,312.5 63.1,313.4 C62.1,310.2 65.4,304.2 66.9,301.5 C67.8,300 73,291.4 75.3,291.9 C76.4,292.1 77.9,297.7 78.3,298.7 C79.1,300.9 79.8,303.2 80.3,305.5 C80.8,307.8 81.4,310.2 81.4,312.5 C81.4,315.2 81.4,315.3 79.2,313.4 C72.9,308 72.2,294.3 81.5,291.2 C86.2,289.6 87.6,295.6 88.7,299 C90.3,303.9 91.8,308.9 93.4,313.9 C95.9,312.4 98.4,311 100.9,309.5 C95.3,304 92.3,297 92.1,289.1 C90.2,290.5 88.3,292 86.4,293.4 C96.9,297.4 98.6,310.6 100,320.2 C100.8,325.9 109.5,323.5 108.7,317.8 C106.7,304.2 103,290 88.8,284.7 C86.1,283.7 83,286.3 83.1,289 C83.3,299.2 87.3,308.5 94.5,315.7 C97.6,318.8 103.4,315.7 102,311.3 C100.2,305.6 98.6,299.9 96.6,294.3 C95.2,290.3 93.4,286.1 89.7,283.7 C81.7,278.4 72.3,284.4 68.2,291.7 C63.5,300.2 64.7,310.8 71.1,318 C76.4,323.9 86.7,327.1 89.6,317.2 C92.2,308.4 87.7,295.4 83.3,287.8 C77.3,277.6 67.4,285.3 62.3,291.9 C59.6,295.4 57.5,299.2 56,303.3 C54.6,307.1 52.3,313.3 55.1,317 C61.7,325.6 71.2,311 74.1,306.2 C76.6,302.2 80.2,296.7 79.6,291.7 C79,287 74.6,284.8 70.4,286.6 C61.2,290.6 56.5,302.9 56.9,312.2 C57,315.6 60.6,317.8 63.7,316.1 C72.7,310.9 80,303.3 84.8,294.1 C87.1,289.7 81.4,284.9 77.7,288.6 C67.7,298.8 61.9,311.8 60.6,326 C60.2,330.2 65.6,331.5 68.3,329.2 C78,320.8 85.9,310.5 91.5,299 C93.6,294.6 88.2,289.7 84.4,293.5 C78.6,299.5 74,306.4 70.8,314.1 C68.7,319.2 64.3,328.9 71.1,332.4 C72.5,333.1 74.3,333.3 75.6,332.4 C85,325.7 92.6,317.2 97.8,306.9 C99.6,303.3 95.6,297.8 91.6,300.7 C81.8,308.1 74.9,317.9 71.7,329.7 C70.7,333.2 75,337.2 78.3,334.8 C87.6,328 95.4,319.9 101.9,310.3 C104.9,305.8 98.5,301.8 94.8,304.8 C88.1,310.3 82.5,316.8 77.9,324.2 C75.8,327.5 79.3,332 83,330.8 C91.3,328.2 99.3,324.8 106.9,320.6 C105.1,318.2 103.3,315.9 101.4,313.5 C93.7,322 84.9,329.3 75.1,335.2 C71.5,337.4 72.7,342 76.2,343.4 C80.4,345.1 84.9,341.7 85.1,337.4 C85.4,332.2 80,327.3 76.8,323.9 C68.7,315.1 59,307.9 48.4,302.6 C48.7,305 49,307.3 49.3,309.7 C54,304.9 59,300.5 64.3,296.5 C69.1,292.9 75.1,288.1 80.8,286.2 C82.5,285.6 82.4,285.3 83.8,286.7 C85.2,288.1 86.3,289.8 87.4,291.3 C89.6,294.1 91.9,297 94.1,299.8 C96.5,302.9 99,306 101.4,309.1 C102.7,310.8 108,315.9 107.6,317.8 C107.2,320 101.7,323.2 99.9,324.7 C97.1,327 94.3,329.3 91.5,331.6 C88.7,333.9 85.9,336.2 83.1,338.5 C81.9,339.5 79.3,342.4 77.2,341.3 C76.4,340.9 75,337.9 74.5,337.2 C67.2,326.2 58.5,316.3 48.8,307.4 C44.8,303.9 38.4,310.2 42.7,314.1 L42.7,314.1 Z" id="Path" fill="#5B5B5B"></path>
                    <path d="M47.5,306.1 C51.1,313.1 73.7,352.1 83.3,338.8 C86.7,334.1 78.9,329.6 75.5,334.3 C75.3,334.5 75.2,334.8 75,335 C76.3,334.3 77.6,333.5 78.9,332.8 C77.2,333 73.1,327.3 72,326 C69.8,323.5 67.6,321 65.6,318.3 C61.7,313 58.3,307.4 55.3,301.6 C52.7,296.4 44.9,301 47.5,306.1 L47.5,306.1 Z" id="Path" fill="#5B5B5B"></path>
                    <path d="M226.4,182.6 C215.7,174.8 211.6,158.8 218.3,147.1 C221.6,141.3 227.6,136.6 234.6,137.4 C241.8,138.2 245.3,143.4 245.8,150.2 C246.1,154 245.7,157.9 245.6,161.7 C245.4,165.3 245.8,169.5 244.8,173 C243.8,176.5 240.2,178.4 238.8,181.9 C237.6,184.9 238.9,187.5 235.4,188.5 C234.4,188.8 233,188.7 232.1,189 C230.5,188.8 230.5,189.1 232.1,189.8 C231.7,188.5 231.4,187.3 231,186 C229.7,181.6 228.4,177.1 227.1,172.7 C224.9,165.3 220.3,154.4 226.1,147.5 C223.7,147.8 221.3,148.1 218.8,148.4 C222.3,151 221,161.6 221.2,165.2 C221.5,172.7 221.8,180.2 222.1,187.7 C222.4,195.6 233.3,195.3 234.1,187.7 C234.9,179.8 233.8,172 233.5,164 C233.3,160.6 233.3,157.1 233.8,153.7 C234,152 234.4,150.4 234.9,148.8 C235.2,147.7 235.7,146.6 236.2,145.6 C237.3,143.9 237.3,143.7 236.3,145 C234.8,145.2 233.2,145.4 231.7,145.6 C231.4,145.5 232.8,149.2 233,150 C233.4,151.5 233.6,153.1 233.8,154.6 C234.2,158.8 234.2,163.1 234,167.3 C233.9,169.2 233.7,171.1 233.4,173.1 C233.2,174.3 233,175.5 232.8,176.7 C231.8,179.1 233.5,179.7 237.9,178.2 C238.3,177.4 237.2,174.2 237.1,173.3 C236.9,171.2 236.8,169 236.9,166.9 C237,162.8 237.5,158.9 238.5,154.9 C238.8,153.7 239.1,152.6 239.5,151.4 C241,148.8 239.4,147.9 234.7,148.8 C234.3,149.5 235.9,153.3 236.1,154 C237,158.2 237.2,162.5 236.8,166.8 C236.6,168.8 236.4,175.3 234.1,175.8 C226.6,177.6 229.8,189.2 237.3,187.4 C245.2,185.5 247.4,177.5 248.4,170.4 C249.5,162 249.1,152.5 245.9,144.6 C242.8,137 233.7,136.9 229.7,143.9 C225.7,150.9 224.8,160.8 224.9,168.7 C225,175.1 225.1,186.1 232.8,188.4 C241.3,190.9 244.3,181.7 245.2,175.3 C246.4,166.9 246.7,158.3 245.3,149.9 C244.3,143.7 240.3,131.8 231.8,134.1 C223.6,136.2 222,150.5 221.6,157.3 C221.1,167.5 223.3,177.6 222.3,187.8 C226.3,187.8 230.3,187.8 234.3,187.8 C233.9,177.7 233.5,167.6 233,157.5 C232.7,149.8 231.5,143 225,138.2 C223.1,136.7 219.3,137.3 217.7,139.1 C211.1,146.9 210.6,156.5 212.9,166.1 C214.1,171.3 215.8,176.5 217.3,181.6 C218.7,186.4 219.5,192.2 222.1,196.4 C226.2,203.2 237.6,201.6 243.5,198.1 C246.6,196.3 248.7,193.3 249.5,189.8 C250,187.6 249.8,186.7 251.2,184.9 C252.8,182.9 254.4,181.3 255.4,178.9 C257.1,175.1 257.2,170.9 257.4,166.9 C257.6,161.9 258.1,156.8 258,151.7 C257.8,142.8 254.9,134.4 247.2,129.3 C232.4,119.5 213.8,128.6 206.8,143.4 C198.6,160.9 205.2,181.6 220.5,192.8 C226.6,197.5 232.6,187.1 226.4,182.6 L226.4,182.6 Z" id="Path" fill="#666666"></path>
                    <path d="M225.8,209.1 C227.8,212.3 231.4,213.5 235,212.4 C236.6,211.9 238,211 239.2,209.9 C239.5,209.6 239.9,209.3 240.2,208.9 C240.5,208.6 240.4,208.6 240,209 C241.9,208 240.4,207.7 235.6,207.9 C238,209.9 241.8,210.4 244.1,207.9 C246.2,205.7 246.6,201.6 244.1,199.4 C241.2,196.9 237.5,196.5 234.1,198.5 C233,199.1 231.9,200 231.1,201 C230.4,201.9 232,200.4 230.9,201.2 C231.1,201.1 231.3,201 231.5,201 C229.4,201.5 230.9,202.2 236,203.1 C234.3,200.4 230.6,199.1 227.8,200.9 C225.3,202.6 224,206.3 225.8,209.1 L225.8,209.1 Z" id="Path" fill="#666666"></path>
                    <path d="M228.6,217 C228.6,217.3 228.6,217.6 228.6,217.9 C228.6,219.4 229.3,221.1 230.4,222.1 C231.4,223.1 233.1,223.9 234.6,223.9 C236.2,223.8 237.8,223.3 238.8,222.1 C239.9,220.9 240.6,219.5 240.6,217.9 C240.6,217.6 240.6,217.3 240.6,217 C240.6,215.5 239.9,213.8 238.8,212.8 C237.8,211.8 236.1,211 234.6,211 C233,211.1 231.4,211.6 230.4,212.8 C229.3,213.9 228.6,215.3 228.6,217 L228.6,217 Z" id="Path" fill="#666666"></path>
                    <path d="M169.2,106.4 C195.5,75.1 220.7,42.9 244.9,9.8 C242.6,10.7 240.4,11.6 238.1,12.6 C240.4,13.3 242.1,14.5 243.8,16.2 C243.5,13.8 243.2,11.4 242.9,8.9 C219.8,41.9 196.8,74.8 173.7,107.8 C176.4,107.1 179.2,106.4 181.9,105.6 C179.9,104.4 177.9,103.2 175.9,101.9 C176.6,104.6 177.3,107.4 178.1,110.1 C188.6,96.4 198.2,82.2 206.9,67.3 C210.8,60.6 200.4,54.6 196.5,61.2 C187.8,76 178.2,90.3 167.7,104 C165.7,106.6 167.4,110.7 169.9,112.2 C171.9,113.4 173.9,114.6 175.9,115.9 C178.8,117.7 182.3,116.4 184.1,113.7 C207.2,80.7 230.2,47.8 253.3,14.8 C254.8,12.6 254.1,9.3 252.4,7.5 C249.3,4.3 245.6,2.1 241.4,0.8 C238.7,-0.1 236.2,1.4 234.6,3.6 C211.1,35.8 186.5,67.2 160.8,97.7 C155.8,103.8 164.3,112.4 169.2,106.4 L169.2,106.4 Z" id="Path" fill="#494949"></path>
                    <path d="M101.9,446.4 C101.9,446.1 101.9,445.8 101.9,445.5 C101.9,437.8 89.9,437.8 89.9,445.5 C89.9,445.8 89.9,446.1 89.9,446.4 C89.9,454.2 101.9,454.2 101.9,446.4 C101.9,446.1 101.9,445.8 101.9,445.5 C101.9,437.8 89.9,437.8 89.9,445.5 C89.9,445.8 89.9,446.1 89.9,446.4 C89.9,454.2 101.9,454.2 101.9,446.4 L101.9,446.4 Z" id="Path" fill="#1E1E1E"></path>
                    <path d="M6.1,362.7 C13.8,362.7 13.8,350.7 6.1,350.7 C-1.6,350.7 -1.6,362.7 6.1,362.7 L6.1,362.7 Z" id="Path" fill="#303030"></path>
                    <path d="M33.2,368 C39,368 39,359 33.2,359 C27.4,359 27.4,368 33.2,368 L33.2,368 Z" id="Path" fill="#6C6C6D"></path>
                    <path d="M400.7,139.4 C406.5,139.4 406.5,130.4 400.7,130.4 C394.9,130.4 394.9,139.4 400.7,139.4 L400.7,139.4 Z" id="Path" fill="#6C6C6D"></path>
                    <path d="M457.1,275.4 C457.1,276 457.1,276.5 457.1,277.1 C457.1,278.3 457.6,279.5 458.4,280.3 C459.2,281.1 460.5,281.7 461.6,281.6 C462.8,281.5 464,281.2 464.8,280.3 C465.6,279.4 466.1,278.3 466.1,277.1 C466.1,276.5 466.1,276 466.1,275.4 C466.1,274.2 465.6,273 464.8,272.2 C464,271.4 462.7,270.8 461.6,270.9 C460.4,271 459.2,271.3 458.4,272.2 C457.6,273.1 457.1,274.2 457.1,275.4 L457.1,275.4 Z" id="Path" fill="#6C6C6D"></path>
                </g>
                <g id="doodles" fill="#161616" fill-rule="nonzero">
                    <path d="M513.8,242 C530.8,244.7 554.6,252.6 548.3,274.8 C545.4,285 537.4,292.3 529.5,298.8 C521.7,305.1 514,311.3 506.9,318.4 C500.1,325.2 493.9,332.6 488.2,340.4 C483.7,346.6 477.5,354.3 478.2,362.6 C478.8,370 485.3,371.8 491.2,374.1 C499.7,377.4 508.7,383.2 512,392.1 C516.4,404.1 507.2,414.7 498.5,421.8 C490.7,428.2 482.2,433.7 476.9,442.5 C475.9,444.2 478.5,445.7 479.5,444 C489,428 513.2,421.6 515.9,401.4 C517,393.5 513.4,386.1 507.7,380.8 C504.9,378.1 501.6,375.9 498.2,374 C494.1,371.8 489.3,370.9 485.3,368.6 C474.1,362.1 488.1,345.5 492.9,339.2 C499.8,330.1 507.5,321.7 516,314.1 C529.6,301.7 550.9,290.7 552.4,270 C553.9,249 531.4,241.9 514.8,239.3 C512.7,238.8 511.9,241.7 513.8,242 L513.8,242 Z" id="Path"></path>
                    <path d="M218.4,238.8 C200.6,260.7 180.5,280.6 158.3,298 C136.5,315.1 112.8,328.7 88.7,342.2 C66.5,354.7 44.1,367.5 25.1,384.8 C16.6,392.5 7.2,401.5 2.4,412.2 C-1.3,420.5 -1.6,431.3 7.9,435.6 C13.1,437.9 19.2,437.101161 24.6,436.2 C33.4,434.7 42.1,432.8 50.8,431.1 C59.7,429.4 68.6,427.6 77.5,425.9 C86,424.3 101.9,422.8 102.3,435.5 C102.4,437.4 105.4,437.4 105.3,435.5 C104.9,423.7 92.3,420.7 82.6,421.9 C67.8,423.8 53.2,427.5 38.5,430.3 C28.2,432.3 0.7,440.6 2.7,420.9 C4,408.2 16,397.2 24.7,388.9 C43.1,371.5 65.2,358.6 87.2,346.2 C110.3,333.2 133.3,320.4 154.5,304.4 C178.9,285.9 201,264.5 220.3,240.8 C221.7,239.4 219.6,237.3 218.4,238.8 L218.4,238.8 Z" id="Path"></path>
                    <path d="M59.3,444.2 C50.5,454.8 40.2,467.3 41.8,482 C43,493.3 51.1,503.9 63.3,503.1 C71.1,502.6 78,498.3 84.8,495 C93.3,490.9 102,487.2 111,484.5 C119.9,481.9 129.2,480.2 138.5,480 C145.9,479.9 154.3,480.4 160.5,485 C169.9,491.8 164.1,502 159.1,509.6 C154.2,516.9 149.9,524.4 146.1,532.3 C142.7,539.5 139.7,547 137.3,554.6 C135.5,560.3 133.4,567 137.8,572 C147.2,582.9 161.5,573.6 169.4,566.2 C181.5,554.9 194.6,545.5 209.7,538.5 C226.6,530.7 245,526.1 263.5,525.1 C272.9,524.6 282.4,524.9 291.7,526.4 C300,527.7 309.3,530.3 313.2,538.6 C314,540.3 316.6,538.8 315.8,537.1 C310.4,525.4 295.6,523.6 284.2,522.5 C269.3,521.1 254.1,522.2 239.5,525.4 C224.9,528.6 210.6,534 197.6,541.4 C191.2,545 185.2,549.1 179.4,553.6 C172.9,558.7 167.4,565 160.8,569.7 C154.9,573.9 142.3,577 138.8,567.8 C137.1,563.3 139.3,558.1 140.7,553.7 C142.2,549.1 143.9,544.6 145.8,540.2 C149.1,532.4 153,524.9 157.4,517.7 C161.3,511.4 167.1,505 168.5,497.5 C170.8,485.3 158.8,479 148.5,477.5 C133.2,475.4 117,478.9 102.6,484.1 C93.8,487.3 85.5,491.4 77.1,495.5 C68.4,499.8 57.6,503.1 50.2,494.6 C36.4,478.8 50.9,458.9 61.4,446.2 C62.7,444.8 60.6,442.7 59.3,444.2 L59.3,444.2 Z" id="Path"></path>
                    <path d="M116.8,494.8 C126.2,491.8 134.5,501 134.7,509.9 C134.9,519.3 128.7,527.4 122.5,533.8 C121.1,535.2 123.3,537.3 124.6,535.9 C132.2,528.1 140.1,517 137.1,505.4 C134.7,496.3 125.5,488.9 116,491.9 C114.2,492.5 114.9,495.4 116.8,494.8 L116.8,494.8 Z" id="Path"></path>
                    <path d="M466.1,236.8 C470.7,240.6 476.1,241.4 481.8,242.6 C488,243.9 493.4,246.3 497.7,251.1 C505.8,260.2 508.3,273.9 502.3,284.7 C501.4,286.4 503.9,287.9 504.9,286.2 C510.7,275.8 509.5,263 503.1,253.2 C500.1,248.6 495.9,244.6 490.8,242.2 C483.6,238.8 474.6,239.9 468.2,234.7 C466.7,233.5 464.6,235.6 466.1,236.8 L466.1,236.8 Z" id="Path"></path>
                    <path d="M99.4,449.8 C105.1,465.1 123.2,461.2 134.3,455.2 C141.4,451.4 148,446.5 153.8,440.9 C160,434.8 165,427.6 171.1,421.4 C177.8,414.6 187.2,408.4 197.3,410.1 C206.4,411.6 211.9,419.7 217.7,425.9 C225.3,433.9 240.6,442.1 248.3,429.4 C249.3,427.7 246.7,426.2 245.7,427.9 C240.8,435.9 230.4,433.1 224.4,428.3 C219,423.9 215.1,417.9 209.8,413.4 C199.8,404.8 187.3,405.6 176.7,412.8 C165,420.7 157.9,433.8 147.2,442.9 C140.9,448.2 133.6,453.1 125.8,456 C117.5,459.1 105.9,458.9 102.3,449.1 C101.6,447.2 98.7,448 99.4,449.8 L99.4,449.8 Z" id="Path"></path>
                    <path d="M124.4,356.6 C137.2,367.7 147.9,380.9 156.2,395.7 C157.1,397.4 159.7,395.9 158.8,394.2 C150.4,379.1 139.6,365.8 126.5,354.5 C125.1,353.2 122.9,355.4 124.4,356.6 L124.4,356.6 Z" id="Path"></path>
                    <path d="M127,353.4 C137.8,339.1 153.1,324.5 170.1,318 C172.8,317 175.9,316.1 178.8,316.8 C182.4,317.6 184.5,320.7 186.6,323.5 C189.6,327.4 192.5,331.4 195.4,335.4 C201.1,343.4 206.5,351.7 211.6,360.1 C212.6,361.7 215.2,360.2 214.2,358.6 C207.8,348.1 200.9,337.8 193.6,327.9 C188.1,320.4 183.1,311.6 172.4,314.1 C163.1,316.3 154.2,323.1 146.9,328.8 C138.4,335.5 130.9,343.3 124.3,351.9 C123.3,353.4 125.9,354.9 127,353.4 L127,353.4 Z" id="Path"></path>
                    <path d="M158,397 C178.4,388.4 196.6,375.8 211.7,359.6 C213,358.2 210.9,356.1 209.6,357.5 C194.9,373.3 177.1,385.8 157.2,394.1 C155.4,394.9 156.2,397.8 158,397 L158,397 Z" id="Path"></path>
                    <path d="M138.6,355.4 C150,345.1 162.7,336.6 176.7,330.1 C178.4,329.3 176.9,326.7 175.2,327.5 C161,334.1 148.1,342.8 136.5,353.3 C135,354.5 137.2,356.7 138.6,355.4 L138.6,355.4 Z" id="Path"></path>
                    <path d="M146.9,360.4 C153.1,355.9 159.3,351.5 165.5,347 C167.1,345.9 165.6,343.3 164,344.4 C157.8,348.9 151.6,353.3 145.4,357.8 C143.8,359 145.3,361.6 146.9,360.4 L146.9,360.4 Z" id="Path"></path>
                    <path d="M151.1,367.3 C161.5,360 171.9,352.6 182.3,345.3 C183.9,344.2 182.4,341.6 180.8,342.7 C170.4,350 160,357.4 149.6,364.7 C148,365.8 149.5,368.4 151.1,367.3 L151.1,367.3 Z" id="Path"></path>
                    <path d="M159.9,375.5 C166.3,370.3 173,365.7 180,361.4 C181.7,360.4 180.1,357.8 178.5,358.8 C171.2,363.1 164.3,368 157.8,373.3 C156.3,374.6 158.4,376.7 159.9,375.5 L159.9,375.5 Z" id="Path"></path>
                    <path d="M164.5,383.7 C173.9,376 184.1,369.6 195,364.3 C196.7,363.5 195.2,360.9 193.5,361.7 C182.3,367.1 172,373.8 162.4,381.6 C160.9,382.8 163,384.9 164.5,383.7 L164.5,383.7 Z" id="Path"></path>
                    <path d="M370.1,446.5 C375,440.3 369.2,432.7 362.7,430.9 C354.9,428.7 346,432.4 342.1,439.4 C337.7,447.2 339.5,457.4 345.2,464 C352.5,472.6 371.5,477.8 368.1,492 C367.6,493.9 370.5,494.7 371,492.8 C374.9,476.6 355.4,471.6 347.3,461.9 C341.6,455 340.6,443.4 347.8,437.1 C350.7,434.6 354.8,433.1 358.6,433.3 C363.1,433.5 372.8,438.4 368.1,444.5 C366.8,445.9 368.9,448 370.1,446.5 L370.1,446.5 Z" id="Path"></path>
                    <path d="M371.7,445.9 C372.5,440.5 375,435.7 379,432 C380.9,430.2 383.1,428.8 385.5,427.7 C386.7,427.2 388,426.7 389.3,426.4 C392.1,425.8 392.7,425.8 395,427.8 C397.3,429.9 397.4,430.5 397.3,433.4 C397.3,434.5 397.1,435.6 397,436.6 C396.7,438.6 396.1,440.5 395.4,442.4 C393.9,446.5 391.6,450.3 389.2,453.9 C380.6,466.7 368.3,478.4 367.6,494.7 C367.5,496.6 370.5,496.6 370.6,494.7 C371.5,472.8 394.2,460.2 399.4,439.8 C400.4,435.9 401.2,430.9 399.5,427.1 C397.4,422.7 392.8,422.5 388.6,423.5 C378.4,425.9 370.6,434.8 369,445.1 C368.5,447 371.4,447.9 371.7,445.9 L371.7,445.9 Z" id="Path"></path>
                    <path d="M388.7,294.9 C386.9,304.6 386.5,314.8 388.7,324.5 C390.8,333.8 397.5,331.8 405.2,332.3 C422.7,333.5 445.9,344.6 457.4,324.8 C458.4,323.1 455.8,321.6 454.8,323.3 C445,340.2 424.4,331.9 409.4,329.8 C405.9,329.3 402.6,329.3 399.1,329.4 C393.7,329.4 392.1,326.8 391.3,322 C389.8,313.3 390,304.5 391.7,295.8 C391.9,293.8 389,293 388.7,294.9 L388.7,294.9 Z" id="Path"></path>
                    <path d="M389.1,299.7 C394.5,296.4 399.2,295.8 405.3,294.8 C407.9,294.4 409.6,293.4 410,290.7 C411.1,283.9 408.2,276.9 413.6,271.1 C419.6,264.6 427.7,270.4 430.2,277 C431.4,280.1 432.1,283.7 434.5,286.2 C437.6,289.5 441.7,288.6 445.6,289.7 C460.7,293.8 456.2,313.3 453,323.8 C452.4,325.6 455.3,326.4 455.9,324.6 C459.3,313.7 462.7,300.1 453.6,291 C452.1,289.5 450.4,288.3 448.5,287.5 C445.6,286.3 442.4,286.9 439.4,285.8 C433.6,283.7 433.7,275.1 430.2,270.7 C423.9,262.9 413.1,264 408.8,273.1 C407.6,275.6 407.2,278.2 407,280.9 C406.8,284.1 408.3,290.5 404.9,291.8 C402.5,292.8 398.8,292.4 396.2,293.2 C393.1,294.1 390.3,295.5 387.6,297.1 C386,298.2 387.5,300.8 389.1,299.7 L389.1,299.7 Z" id="Path"></path>
                    <path d="M401,296.6 C399.5,308.4 401.5,320.1 406.7,330.8 C407.5,332.5 410.1,331 409.3,329.3 C404.3,319.1 402.5,307.9 404,296.6 C404.3,294.7 401.3,294.7 401,296.6 L401,296.6 Z" id="Path"></path>
                    <path d="M304.8,230.1 C291.9,224.1 284.2,210.2 284.9,196 C285.7,181.5 295.5,168.3 308,161.4 C315.8,157.1 324.1,155.8 332,160.4 C339.2,164.5 344.3,171.6 347.2,179.2 C352.4,193 350.5,208.7 342.3,221 C341.2,222.6 343.8,224.1 344.9,222.5 C358.5,202.2 355.4,166.9 330.5,156.4 C318,151.1 304.7,158.2 295.7,167 C286.9,175.6 281.2,187.9 281.9,200.3 C282.7,214 290.7,226.9 303.2,232.8 C305,233.5 306.5,230.9 304.8,230.1 L304.8,230.1 Z" id="Path"></path>
                    <path d="M303.4,233.7 C300.8,236.5 301.5,240.8 304.7,242.9 C309.9,246.3 318.9,243.2 324.4,241.9 C330.3,240.5 339.2,239.2 343.2,234 C345.6,230.8 345.6,226.4 342.5,223.7 C341,222.5 338.9,224.6 340.4,225.8 C345,229.7 339,234.2 335.4,235.6 C332.4,236.7 329.3,237.6 326.2,238.4 C323.3,239.1 320.4,239.8 317.5,240.3 C315.7,240.6 313.7,241.1 311.9,241.2 C309.3,241.3 301.8,239.9 305.6,235.9 C306.9,234.4 304.8,232.3 303.4,233.7 L303.4,233.7 Z" id="Path"></path>
                    <path d="M309.2,244.4 C309.6,250.3 314.6,254.1 320.4,254.5 C328.4,255 334.4,248.3 339.1,242.8 C340.3,241.3 338.2,239.2 337,240.7 C333.7,244.6 330,249.1 325.1,250.8 C320.1,252.6 312.7,250.6 312.3,244.4 C312.1,242.5 309.1,242.5 309.2,244.4 L309.2,244.4 Z" id="Path"></path>
                    <path d="M317.3,255.6 C316.5,259.7 319,264 323.3,264.7 C327.7,265.4 331.5,261.5 331.6,257.3 C331.6,255.4 328.6,255.4 328.6,257.3 C328.6,259.8 326.2,262.3 323.5,261.7 C321.2,261.2 319.7,258.6 320.2,256.4 C320.6,254.5 317.7,253.7 317.3,255.6 L317.3,255.6 Z" id="Path"></path>
                    <path d="M296.8,192.3 C305.4,197.8 312,205.5 316.2,214.8 C317,216.6 319.6,215 318.8,213.3 C314.4,203.5 307.4,195.5 298.3,189.7 C296.6,188.7 295.1,191.3 296.8,192.3 L296.8,192.3 Z" id="Path"></path>
                    <path d="M312.2,185 C314.1,199.4 316.1,213.8 318,228.1 C318.3,230 321.1,229.2 320.9,227.3 C319,212.9 317,198.5 315.1,184.2 C314.8,182.3 312,183.1 312.2,185 L312.2,185 Z" id="Path"></path>
                    <path d="M317.4,209.5 C320,200.1 326,192.5 334.5,187.7 C336.2,186.8 334.7,184.2 333,185.1 C323.9,190.2 317.3,198.6 314.5,208.7 C314,210.6 316.9,211.4 317.4,209.5 L317.4,209.5 Z" id="Path"></path>
                    <path d="M208.4,466.6 C212.4,475.3 216.7,483.9 221.5,492.2 C223.9,496.3 227.1,504.1 233,501.6 C234.8,500.8 233.2,498.3 231.5,499 C227.7,500.6 220.9,485.1 219.6,482.6 C216.5,476.9 213.7,471 211,465.1 C210.2,463.3 207.6,464.8 208.4,466.6 L208.4,466.6 Z" id="Path"></path>
                    <path d="M211.1,468.4 C219.6,461.8 227.9,455 236.5,448.6 C244,442.9 252.1,437.4 261.3,434.8 C271.2,431.9 279.8,434.2 286.4,442.2 C292,449 295.4,457.4 299.2,465.2 C300,466.9 302.6,465.4 301.8,463.7 C294.5,448.7 285.9,427.5 265.4,430.8 C255.2,432.4 246,438 237.7,444 C227.9,451.2 218.5,458.9 208.9,466.4 C207.5,467.5 209.6,469.6 211.1,468.4 L211.1,468.4 Z" id="Path"></path>
                    <path d="M228.9,501.9 C255,496.2 279.2,484 299.5,466.6 C301,465.3 298.8,463.2 297.4,464.5 C277.5,481.6 253.7,493.4 228.1,499.1 C226.2,499.5 227,502.4 228.9,501.9 L228.9,501.9 Z" id="Path"></path>
                    <path d="M253.2,473.7 C247.9,472.4 243.5,467.2 244.8,461.5 C246,456 252.7,452 258,454.6 C268.7,460 261.4,475.4 250.4,471.5 C248.6,470.9 247.8,473.8 249.6,474.4 C255.8,476.6 263.3,473.6 265.7,467.3 C268.1,461.1 264.2,453.6 258.1,451.4 C251.5,449 244,453.5 242.1,460.1 C239.9,467.5 245.3,474.8 252.4,476.6 C254.3,477.1 255.1,474.2 253.2,473.7 L253.2,473.7 Z" id="Path"></path>
                    <path d="M306.5,397.8 C305.3,387.1 305.2,374.9 317.9,372 C324.3,370.5 329.6,368.6 333.3,362.7 C337.1,356.7 336.6,351.1 335.1,344.5 C334,339.3 334.1,334.8 338.3,330.9 C341.7,327.8 346.2,326.6 350.6,328 C352.4,328.6 353.2,325.7 351.4,325.1 C345,323.1 338.3,325.6 334.2,330.9 C327.9,339.2 335.3,347.6 332.8,356.5 C331.3,361.8 327.2,366.3 321.9,368.1 C317.6,369.5 313,369.4 309.4,372.4 C301.8,378.6 302.5,389.1 303.5,397.8 C303.7,399.7 306.7,399.7 306.5,397.8 L306.5,397.8 Z" id="Path"></path>
                    <path d="M282.1,341.8 C279,339.3 281.5,333.7 285.5,335.8 C287.1,336.6 288.1,338.5 287.2,340.2 C286.3,341.9 284,342.8 282.3,341.9 C280.6,341 279.1,343.6 280.8,344.5 C283.9,346 287.7,344.9 289.6,342.1 C291.6,339.1 290.3,335.3 287.4,333.5 C284.5,331.7 280.6,332.2 278.7,335.2 C277,338 277.4,341.9 280,344 C281.5,345.1 283.6,343 282.1,341.8 L282.1,341.8 Z" id="Path"></path>
                    <path d="M418.9,186.8 C417.1,183.9 416,180.2 417.1,176.9 C418,174.1 420.8,172.4 423.7,172.7 C426.9,173 428.6,176 426.9,178.8 C425.4,181.4 422.3,182.7 419.4,182.3 C417.5,182.1 417.5,185.1 419.4,185.3 C423.7,185.8 428.4,183.2 430,179.1 C431.5,175.4 429.6,171.3 425.8,170.1 C422.2,168.9 417.8,170.3 415.6,173.4 C412.3,177.9 413.6,184 416.3,188.5 C417.3,189.9 419.9,188.4 418.9,186.8 L418.9,186.8 Z" id="Path"></path>
                    <path d="M257.6,309.4 C263,319.2 274,324.7 285.1,323.1 C298.7,321.1 306,310.7 311.4,299.1 C317.7,285.7 326.4,274.7 340.3,268.8 C352.9,263.5 369.2,266.2 379.6,256.3 C383.6,252.5 386.3,247.2 385.4,241.6 C384.7,237.3 382.1,233.7 383.1,229.2 C384.3,224.3 388.1,220.7 392.9,219.7 C394.8,219.3 394,216.4 392.1,216.8 C386.3,218.1 381.6,222.5 380.2,228.4 C379.4,231.6 380,234.5 381,237.6 C382.6,242.6 383.2,246.7 379.9,251.3 C374.1,259.4 363.9,260.5 354.8,261.8 C346.7,263 339.1,265.2 332.1,269.4 C325.9,273.1 320.4,278.1 316.1,283.9 C311.4,290.3 308.8,297.8 305,304.7 C300.2,313.2 292.3,319.7 282.2,320.3 C273,320.8 264.4,315.9 259.9,307.8 C259.3,306.2 256.7,307.7 257.6,309.4 L257.6,309.4 Z" id="Path"></path>
                    <path d="M236.7,145.4 C235,157.9 233.3,170.4 231.7,182.9 C231.4,184.8 234.3,185.6 234.6,183.7 C236.3,171.2 238,158.7 239.6,146.2 C239.9,144.3 237,143.5 236.7,145.4 L236.7,145.4 Z" id="Path"></path>
                    <path d="M236.2,184.6 C248,176.1 259.8,167.6 271.6,159.1 C273.2,158 271.7,155.4 270.1,156.5 C258.3,165 246.5,173.5 234.7,182 C233.1,183.1 234.6,185.7 236.2,184.6 L236.2,184.6 Z" id="Path"></path>
                    <path d="M238.6,147.1 C268.2,107.4 297.3,67.4 325.9,27 C327,25.4 324.4,23.9 323.3,25.5 C294.7,65.9 265.6,106 236,145.6 C234.9,147.1 237.5,148.6 238.6,147.1 L238.6,147.1 Z" id="Path"></path>
                    <path d="M275.3,154.6 C302.5,118.6 328.9,82 354.5,44.8 C355.6,43.2 353,41.7 351.9,43.3 C326.3,80.4 299.9,117.1 272.7,153.1 C271.5,154.6 274.1,156.1 275.3,154.6 L275.3,154.6 Z" id="Path"></path>
                    <path d="M325,27 C329.7,18.2 335.2,7.5 345.6,4.6 C355.9,1.7 366,9.5 366.2,20.2 C366.2,22.1 369.2,22.1 369.2,20.2 C369.1,9.9 360.4,0.6 349.8,0.9 C335.9,1.3 328.1,14.6 322.4,25.5 C321.5,27.2 324.1,28.7 325,27 L325,27 Z" id="Path"></path>
                    <path d="M355.1,44.5 C360.2,36.9 364.8,29.1 368.9,20.9 C369.8,19.2 367.2,17.7 366.3,19.4 C362.2,27.6 357.6,35.4 352.5,43 C351.5,44.5 354.1,46.1 355.1,44.5 L355.1,44.5 Z" id="Path"></path>
                    <path d="M322.8,31.9 C334.3,24.1 349.2,28.3 354.9,40.9 C355.7,42.7 358.3,41.1 357.5,39.4 C351.1,25.3 334,20.6 321.3,29.3 C319.7,30.4 321.2,33 322.8,31.9 L322.8,31.9 Z" id="Path"></path>
                    <path d="M317.5,40.9 C327.5,34.5 342.2,38.7 346.8,49.9 C347.5,51.7 350.4,50.9 349.7,49.1 C344.3,36.3 327.8,30.8 316,38.3 C314.4,39.4 315.9,42 317.5,40.9 L317.5,40.9 Z" id="Path"></path>
                    <path d="M236.8,148.5 C242.3,151.8 247.8,144.6 253.5,144.7 C257.8,144.8 261.8,146.8 264.3,150.4 C266.1,153 267,155.5 269.9,157 C271.6,157.9 273.1,155.3 271.4,154.4 C268,152.6 267,148.2 264.1,145.7 C262.1,144 259.7,142.8 257.1,142.2 C254.5,141.6 251.8,141.6 249.3,142.2 C246.1,143 241.4,147.7 238.4,145.9 C236.7,144.9 235.2,147.5 236.8,148.5 L236.8,148.5 Z" id="Path"></path>
                    <path d="M253.2,143.1 C273.4,116.5 293.7,89.8 313.9,63.2 C315.1,61.7 312.5,60.2 311.3,61.7 C291.1,88.3 270.8,115 250.6,141.6 C249.5,143.1 252.1,144.6 253.2,143.1 L253.2,143.1 Z" id="Path"></path>
                    <path d="M284.9,123.1 C303.7,95.5 323.6,68.8 344.7,42.9 C345.9,41.4 343.8,39.3 342.6,40.8 C321.4,66.9 301.2,93.8 282.3,121.6 C281.3,123.2 283.9,124.7 284.9,123.1 L284.9,123.1 Z" id="Path"></path>
                    <path d="M235.6,175.1 C237.5,173.5 240.3,175.1 239.8,177.6 C239.4,179.5 242.3,180.3 242.7,178.4 C243.2,176 242.3,173.5 240.1,172.2 C237.9,170.9 235.3,171.4 233.4,173 C232,174.2 234.1,176.3 235.6,175.1 L235.6,175.1 Z" id="Path"></path>
                    <path d="M236.5,174.7 C236,176.8 235.1,178.7 233.8,180.4 C234.6,180.9 235.5,181.4 236.3,181.9 C236.9,179.7 238.1,177.8 239.8,176.2 C239,176.1 238.2,176 237.4,175.9 C237.9,177 237.5,178.2 236.5,178.8 C237.2,179.1 238,179.4 238.7,179.7 C238.3,178.3 238.6,177 239.5,175.9 C238.9,176 238.3,176.1 237.7,176.1 C238.5,176.5 238.4,177.6 237.6,178 C238.2,178.1 238.8,178.2 239.4,178.2 C238.8,177.7 238.3,177.1 238,176.4 C237.9,176.1 237.8,175.8 237.7,175.4 C237.7,175.2 237.5,173.1 237.2,173.7 C236.3,175.4 238.9,176.9 239.8,175.2 C241.2,172.6 237.6,170.3 235.6,172.4 C233.5,174.7 235.4,178.5 237.4,180.2 C237.9,180.7 238.6,180.8 239.2,180.4 C242,179 242,174.8 239.3,173.3 C238.8,173 237.9,173 237.5,173.5 C235.9,175.4 235.3,177.8 235.9,180.2 C236.1,181.1 237.3,181.6 238.1,181.1 C240.6,179.6 241.3,176.6 240.1,174.1 C239.7,173.2 238.4,173.2 237.7,173.8 C235.6,175.7 234.2,178.1 233.5,180.8 C233.1,182.1 235,183.5 236,182.3 C237.6,180.2 238.8,177.9 239.5,175.3 C239.9,173.6 237,172.8 236.5,174.7 L236.5,174.7 Z" id="Path"></path>
                    <path d="M230.9,190.4 C228.9,201.2 224.4,211.1 217.3,219.5 C216.1,221 218.2,223.1 219.4,221.6 C226.8,212.7 231.7,202.5 233.8,191.1 C234.1,189.3 231.2,188.5 230.9,190.4 L230.9,190.4 Z" id="Path"></path>
                    <path d="M210,202.9 C199.6,210.6 188.6,217.5 177.2,223.6 C175.5,224.5 177,227.1 178.7,226.2 C190.1,220.1 201.1,213.2 211.5,205.5 C213.1,204.3 211.6,201.7 210,202.9 L210,202.9 Z" id="Path"></path>
                    <path d="M454.1,431.5 C451.4,427.3 446.9,429.5 444.5,432.7 C441.9,436 439.8,439.9 437.6,443.5 C435.9,446.3 433.9,449.4 433.6,452.9 C433,459.9 438.3,460.7 443.6,462.4 C449.9,464.5 449.5,471.9 445.5,476 C442.3,479.3 437.6,480.7 433.4,482.1 C431.6,482.7 432.4,485.6 434.2,485 C442.6,482.3 455.1,476.2 450.8,465 C450.1,463.2 448.9,461.7 447.3,460.7 C446.4,460.2 445.4,459.8 444.4,459.5 C441.5,458.6 440.7,458.9 438.4,456.4 C436.5,455.3 435.9,453.8 436.8,451.8 C437.2,450.4 437.7,449.1 438.4,447.9 C439.2,446.3 440.2,444.8 441.2,443.3 C442.2,441.8 449.2,429.2 451.5,432.9 C452.5,434.6 455.1,433.1 454.1,431.5 L454.1,431.5 Z" id="Path"></path>
                    <path d="M282.4,549.2 C290.6,547.1 297.6,555.2 294,563 C293.2,564.7 295.8,566.3 296.6,564.5 C301.3,554.4 292.6,543.5 281.7,546.3 C279.7,546.8 280.5,549.7 282.4,549.2 L282.4,549.2 Z" id="Path"></path>
                    <path d="M435.6,384.5 C431.8,381.7 431.8,374.4 437.6,374.2 C439.7,374.1 441.9,375.3 441.8,377.6 C441.8,379.5 440.1,381.8 438,381.5 C436.1,381.2 435.3,384.1 437.2,384.4 C440.9,385 444.1,382.3 444.7,378.7 C445.4,375 442.7,371.8 439.1,371.3 C435.4,370.7 431.6,372.8 430.3,376.4 C429,380.4 430.8,384.7 434.1,387.1 C435.6,388.2 437.1,385.6 435.6,384.5 L435.6,384.5 Z" id="Path"></path>
                    <path d="M17.6,372.1 C19,366.5 23.8,363.3 28.3,360.2 C33,356.9 37.8,353.5 42.6,350.2 C52.1,343.5 61.6,336.9 71.1,330.2 C72.7,329.1 71.2,326.5 69.6,327.6 C58.5,335.4 47.4,343.1 36.3,350.9 C28.8,356.1 17.1,361.6 14.7,371.3 C14.2,373.2 17.1,374 17.6,372.1 L17.6,372.1 Z" id="Path"></path>
                </g>
                <g id="laptop" transform="translate(270.000000, 572.000000)">
                    <path d="M418.5,325.8 C297,305 175.5,284.2 54,263.4 C127.8,233.6 201.6,203.9 275.4,174.1 C390.8,199.8 506.2,225.5 621.5,251.2 C553.9,276.1 486.2,300.9 418.5,325.8 Z" id="Path" stroke="#161616" stroke-width="3" fill="#FFFFFF" fill-rule="nonzero"></path>
                    <path d="M413.5,327.3 C413.9,328.5 414.2,329.8 414.6,331 C415.1,332.6 417.5,332.3 417.5,330.6 C417.5,329.6 417.5,328.7 417.5,327.7 C417.5,325.8 414.5,325.8 414.5,327.7 C414.5,328.9 414.3,330 413.8,331.1 C414.8,331.1 415.7,331.1 416.7,331.1 C416.3,329.8 416.2,328.6 416.5,327.2 C415.6,327.3 414.7,327.4 413.8,327.6 C414.1,327.9 414.1,328.1 413.9,328.4 C414.8,328.5 415.7,328.6 416.6,328.8 C416.4,328.1 416.5,327.5 416.9,326.9 C416,326.6 415,326.4 414.1,326.1 C413.9,327.7 413.7,329.2 413.5,330.8 C413.4,331.6 414.3,332.3 415,332.3 C415.9,332.3 416.4,331.6 416.5,330.8 C416.7,329.2 416.9,327.7 417.1,326.1 C417.3,324.6 415,324.2 414.3,325.3 C413.5,326.6 413.3,328.1 413.7,329.6 C414,330.9 415.8,331 416.4,330 C417.2,328.8 417.2,327.3 416.3,326.2 C415.6,325.3 413.8,325.2 413.6,326.6 C413.2,328.4 413.3,330.3 413.8,332.1 C414.3,333.6 416.2,333.4 416.7,332.1 C417.2,330.7 417.5,329.3 417.5,327.9 C416.5,327.9 415.5,327.9 414.5,327.9 C414.5,328.9 414.5,329.8 414.5,330.8 C415.5,330.7 416.5,330.5 417.4,330.4 C417,329.2 416.7,327.9 416.3,326.7 C415.9,324.6 413,325.4 413.5,327.3 L413.5,327.3 Z" id="Path" fill="#161616" fill-rule="nonzero"></path>
                    <path d="M415.8,334.5 C431.9,326.2 449.5,321.8 466.8,316.9 C475.3,314.5 483.7,311.9 491.8,308.5 C499.6,305.3 507.1,301.3 514.8,297.7 C531.9,289.7 550.4,284.5 568.3,278.6 C586.9,272.4 605.4,266.2 624,260.1 C625.8,259.5 625,256.6 623.2,257.2 C604.6,263.4 586.1,269.6 567.5,275.7 C549.9,281.5 531.8,286.7 514.9,294.4 C506.1,298.4 497.5,303.1 488.5,306.6 C480.3,309.8 471.9,312.3 463.4,314.7 C446.7,319.5 429.8,323.9 414.2,331.9 C412.6,332.8 414.1,335.4 415.8,334.5 L415.8,334.5 Z" id="Path" fill="#161616" fill-rule="nonzero"></path>
                    <path d="M417.2,333.9 C486.3,310 555.2,285.8 624.1,261.2 C629.5,259.3 627.2,250.6 621.7,252.5 C552.9,277.1 483.9,301.3 414.8,325.2 C409.4,327.1 411.7,335.8 417.2,333.9 L417.2,333.9 Z" id="Path" fill="#161616" fill-rule="nonzero"></path>
                    <path d="M409.4,237.3 C422.4,238.6 433.5,246.5 446.3,249 C448.2,249.4 449,246.5 447.1,246.1 C434.1,243.5 422.8,235.6 409.4,234.3 C407.5,234.2 407.5,237.2 409.4,237.3 L409.4,237.3 Z" id="Path" fill="#161616" fill-rule="nonzero"></path>
                    <path d="M447.2,247.6 C455.1,243.3 462.5,238.2 469.2,232.2 C470.6,230.9 468.5,228.8 467.1,230.1 C460.5,235.9 453.4,240.9 445.7,245 C444,246 445.5,248.6 447.2,247.6 L447.2,247.6 Z" id="Path" fill="#161616" fill-rule="nonzero"></path>
                    <path d="M412.5,231.6 C418.8,227.1 425.3,222.8 432,218.8 C433.7,217.8 432.1,215.2 430.5,216.2 C423.8,220.2 417.3,224.4 411,229 C409.4,230.2 410.9,232.8 412.5,231.6 L412.5,231.6 Z" id="Path" fill="#161616" fill-rule="nonzero"></path>
                    <path d="M432.5,219.3 C443.9,223.6 455.3,227.8 466.8,232.1 C468.6,232.8 469.4,229.9 467.6,229.2 C456.2,224.9 444.8,220.7 433.3,216.4 C431.5,215.8 430.7,218.7 432.5,219.3 L432.5,219.3 Z" id="Path" fill="#161616" fill-rule="nonzero"></path>
                    <path d="M400.4,248.7 C430.5,258 460.2,268.7 489.3,280.8 C491.1,281.5 491.9,278.6 490.1,277.9 C461,265.8 431.3,255.1 401.2,245.8 C399.3,245.2 398.5,248.1 400.4,248.7 L400.4,248.7 Z" id="Path" fill="#161616" fill-rule="nonzero"></path>
                    <path d="M403.3,272 C422,281 440.9,289.5 460,297.8 C461.8,298.6 463.3,296 461.5,295.2 C442.4,287 423.5,278.4 404.8,269.4 C403.1,268.6 401.6,271.2 403.3,272 L403.3,272 Z" id="Path" fill="#161616" fill-rule="nonzero"></path>
                    <path d="M406,297.7 C416.2,302.9 426.4,308.2 436.6,313.4 C438.3,314.3 439.8,311.7 438.1,310.8 C427.9,305.6 417.7,300.3 407.5,295.1 C405.8,294.2 404.3,296.8 406,297.7 L406,297.7 Z" id="Path" fill="#161616" fill-rule="nonzero"></path>
                    <path d="M411.8,298.6 C425.9,286.6 440.7,275.6 456.1,265.4 C457.7,264.3 456.2,261.7 454.6,262.8 C439,273.1 424,284.4 409.7,296.5 C408.2,297.8 410.3,299.9 411.8,298.6 L411.8,298.6 Z" id="Path" fill="#161616" fill-rule="nonzero"></path>
                    <path d="M408.1,278.1 C416.1,272.5 424.1,266.9 432.1,261.2 C433.7,260.1 432.2,257.5 430.6,258.6 C422.6,264.2 414.6,269.8 406.6,275.5 C405.1,276.6 406.6,279.2 408.1,278.1 L408.1,278.1 Z" id="Path" fill="#161616" fill-rule="nonzero"></path>
                    <path d="M413.1,332.7 C287.4,311.3 161.7,289.9 36,268.5 C24.2,179.2 12.3,90 0.5,0.7 C135.8,18.9 271,37.1 406.3,55.4 C408.6,147.8 410.9,240.2 413.1,332.7 Z" id="Path" stroke="#161616" stroke-width="3" fill="#FFFFFF" fill-rule="nonzero"></path>
                    <path d="M189.1,178.2 C178.2,174.8 172.3,165.6 171.4,154.5 C170.5,143.2 172.7,132.3 183.2,126.4 C192.5,121.2 203.6,122.7 211.9,129 C220.2,135.3 227.6,148.2 220.9,158.1 C219.8,159.7 222.4,161.2 223.5,159.6 C230.7,149 223.9,135 215.1,127.7 C206,120.2 193.7,117.9 183,123.2 C170.6,129.3 167.4,141.7 168.4,154.6 C169.4,167.1 176,177.4 188.3,181.2 C190.1,181.7 190.9,178.8 189.1,178.2 L189.1,178.2 Z" id="Path" fill="#161616" fill-rule="nonzero"></path>
                    <path d="M191.9,179.3 C187.3,171.7 188.8,161.1 196.2,155.8 C203.6,150.5 214.2,152.7 219.8,159.5 C221,161 223.1,158.9 221.9,157.4 C215.3,149.5 202.9,147.3 194.3,153.4 C185.7,159.6 183.9,172 189.3,180.8 C190.3,182.4 192.9,180.9 191.9,179.3 L191.9,179.3 Z" id="Path" fill="#161616" fill-rule="nonzero"></path>
                    <path d="M202.2,183.5 C197.5,178.5 198.2,169.2 204.5,165.6 C210.7,162 219.1,166.1 221.1,172.7 C221.7,174.5 224.6,173.8 224,171.9 C221.4,163.5 210.9,158.5 203,163.1 C195.1,167.7 194.1,179.3 200.1,185.7 C201.4,187 203.5,184.9 202.2,183.5 L202.2,183.5 Z" id="Path" fill="#161616" fill-rule="nonzero"></path>
                    <path d="M209.9,190.5 C213.8,191.9 218.3,189.6 219.8,185.9 C221.4,182.2 219.3,178.2 215.8,176.6 C212.3,175 208.1,175.9 206.2,179.3 C204.4,182.6 205,187.1 208,189.5 C209.5,190.7 211.6,188.6 210.1,187.4 C206.1,184.3 208.9,177 214.2,179.2 C216.5,180.1 218.1,182.5 217,185 C215.9,187.4 213.1,188.6 210.7,187.7 C208.9,187 208.1,189.9 209.9,190.5 L209.9,190.5 Z" id="Path" fill="#161616" fill-rule="nonzero"></path>
                    <line x1="406.3" y1="55.3" x2="415.1" y2="330.8" id="Path" stroke="#161616" stroke-width="3"></line>
                    <path d="M406.9,55.1 C409.6,145.7 412.3,236.3 415,326.9" id="Path" stroke="#161616" stroke-width="3"></path>
                    <path d="M233.8,36.7 C240.3,40.1 296.1,70.5 300,124.5 C302.2,154.3 287.6,176.9 278.4,190.7 C228.8,265.3 130.7,278.5 104.1,281.3 C142.8,307 278,391.7 425.8,386.7 C458.7,385.6 509.7,383.3 565,352.9 C606.5,330.1 633.4,300.8 648.8,281.3 C639.3,275.4 629.9,269.6 620.4,263.7 C550.6,287.6 480.7,311.5 410.9,335.3 C407.3,242.9 403.7,150.6 400.1,58.2 C344.6,51.2 289.2,44 233.8,36.7 Z" id="Path" fill="#3D3D3D" fill-rule="nonzero" opacity="0.37"></path>
                    <path d="M154.3,287.8 C167.3,296.4 187.4,308.7 213.4,320.5 C245.8,335.3 341.7,379.1 445.6,354.8 C521.1,337.1 579.5,288.6 575.7,280.6 C573.3,275.6 544,280.8 413.5,332.7 C411.4,290.4 409.3,248 407.3,205.7 C403.7,241.3 400,276.9 396.4,312.4 C315.7,304.3 235,296 154.3,287.8 Z" id="Path" fill="#3D3D3D" fill-rule="nonzero" opacity="0.5"></path>
                </g>
                <g id="color" transform="translate(443.000000, 698.000000)" fill="#353535" fill-rule="nonzero">
                    <path d="M8.2,47.8 C0.9,39.8 -1.5,28.6 2.1,18.8 C5.8,8.9 15.6,0.4 27.3,0.8 C37.6,1.2 45.9,8.4 48.9,15.2 C51.1,20.4 50.6,25.2 50.6,25.2 C50.3,27.9 49.4,30 48.7,31.3 C43.6,25.4 35.8,22.7 28.5,24.4 C19.5,26.5 15.6,34.2 15.2,34.9 C11.1,43.3 14.7,51.1 15.2,52 C12.8,50.5 10.5,49.1 8.2,47.8 Z" id="Path"></path>
                </g>
                <g id="hand_L" transform="translate(794.000000, 472.000000)" fill-rule="nonzero">
                    <path d="M163.2,147.2 C157.8,151.2 152,156.6 146.7,163.7 C127,190.2 129.7,221.3 131.1,231.4 C113.6,227.8 84.2,224.3 49.5,232.3 C28.8,237.1 12.2,244.6 1.13686838e-13,251.4 C1.9,252.6 4.5,254 7.8,254.9 C26.5,260 46.2,244.3 46.8,245.4 C47.4,246.4 24.8,257 26,266.2 C26.8,272.4 37.9,275.7 49.4,279.2 C59.1,282.1 68.3,284.9 80.6,283.5 C97.5,281.6 109.2,273.1 114.4,268.7 C119.4,271.2 126.8,274.5 136.1,277.4 C153.2,282.6 176.8,289.8 192.5,280 C202.7,273.6 205.8,258.6 211.6,228.8 C219,190.6 222.7,171.5 212.5,159.4 C199,143.3 171.9,146 163.2,147.2 Z" id="Path" stroke="#161616" stroke-width="3" fill="#FFFFFF"></path>
                    <path d="M127.7,232.4 C139.8,236.9 149.8,245.1 156.7,256 C157.7,257.6 160.3,256.1 159.3,254.5 C152,242.9 141.3,234.3 128.5,229.5 C126.7,228.9 125.9,231.8 127.7,232.4 L127.7,232.4 Z" id="Path" fill="#161616"></path>
                    <path d="M63.4,252.2 C51.5,254.2 41.9,262.2 37.6,273.4 C36.9,275.2 39.8,276 40.5,274.2 C44.4,264 53.4,256.9 64.2,255.1 C66.1,254.8 65.3,251.9 63.4,252.2 L63.4,252.2 Z" id="Path" fill="#161616"></path>
                    <path d="M39,275.3 C45.2,281.2 53.8,283.2 61.9,280.6 C63.7,280 62.9,277.1 61.1,277.7 C54,280 46.5,278.4 41.1,273.2 C39.7,271.8 37.6,273.9 39,275.3 L39,275.3 Z" id="Path" fill="#161616"></path>
                    <path d="M77.3,262.1 C73,264.7 69,267.7 65.2,270.9 C62.7,273.1 59.9,275.7 60.5,279.3 C62,288.8 73.4,286.7 79.6,284.3 C81.4,283.6 80.6,280.7 78.8,281.4 C76.1,282.4 73.1,283.7 70.2,283.6 C65.5,283.4 61.3,278.9 65.3,274.8 C69.1,270.8 74.1,267.6 78.8,264.6 C80.5,263.7 79,261.1 77.3,262.1 L77.3,262.1 Z" id="Path" fill="#161616"></path>
                    <path d="M158.2,4.5 C162.3,7.7 167.6,12.1 173.2,17.8 C174.8,19.4 178.9,23.6 183,28.8 C189.4,36.8 193.5,44.4 198,53.7 C203.8,65.6 209.6,77.5 215.4,95.3 C220.3,110.3 227.8,133.9 228.7,165.3 C229.1,177.7 228.3,188.1 227.5,195.4 C223.4,190.7 219.3,187.6 215.9,185.6 C196.8,173.9 173.6,178.1 151.7,182.1 C143.5,183.6 136.7,185.4 132,186.7 C133.2,175.7 134.3,164.7 135.5,153.7 C136.5,144.5 137.4,135.2 138.4,125.9 C136.5,122.6 133.9,117.9 131.5,112 C126.8,100.7 117.4,78.5 122.8,53.6 C129.2,25 151.7,8.8 158.2,4.5 Z" id="Path" fill="#FFFFFF"></path>
                    <path d="M161.7,10 C171.7,15.2 178.4,24.2 184.2,33.5 C190.2,43.1 195.6,53 200.4,63.2 C210.2,84 217.4,106 222.1,128.5 C222.5,130.4 225.4,129.6 225,127.7 C220.2,104.3 212.6,81.6 202.2,60 C197.1,49.4 191.5,39.1 185.1,29.2 C179.4,20.4 172.7,12.2 163.3,7.3 C161.5,6.5 160,9.1 161.7,10 L161.7,10 Z" id="Path" fill="#161616"></path>
                    <path d="M130.5,111.7 C135.1,121.1 139.9,130.3 144.9,139.5 C145.8,141.2 148.4,139.7 147.5,138 C142.5,128.8 137.7,119.6 133.1,110.2 C132.2,108.4 129.6,109.9 130.5,111.7 L130.5,111.7 Z" id="Path" fill="#161616"></path>
                    <path d="M137.6,128.9 C135.1,148.3 132.6,167.7 130.2,187.1 C130.1,188.1 131.3,188.8 132.1,188.5 C149.1,183.1 166.8,180.5 184.6,181.1 C198.7,181.6 217.4,182.9 225.3,196.7 C226.3,198.4 228.8,196.9 227.9,195.2 C220.4,182 204,179.3 190.2,178.4 C170.3,177 150.3,179.6 131.4,185.6 C132,186.1 132.7,186.6 133.3,187 C135.8,167.6 138.3,148.2 140.7,128.8 C140.9,127 137.9,127 137.6,128.9 L137.6,128.9 Z" id="Path" fill="#161616"></path>
                    <path d="M221.9,127 C225.4,149 231.1,172.3 225.2,194.4 C224.7,196.3 227.6,197.1 228.1,195.2 C234.1,172.6 228.4,148.8 224.8,126.2 C224.5,124.3 221.6,125.1 221.9,127 L221.9,127 Z" id="Path" fill="#161616"></path>
                    <path d="M150.6,0.8 C159.7,17.8 168.8,38.1 176.5,61.4 C191.6,107.4 195.6,148.7 195.9,179.6 C185.7,180.2 175.5,180.8 165.3,181.4 C168.6,205.1 172,228.9 175.3,252.6 C168.9,248.9 159.1,244.2 146.5,241.4 C142.4,240.5 127.3,237.5 111.2,240.2 C77.4,245.9 57,273.6 52.4,280.2 C57,282.1 62.9,283.9 70,284.3 C91.8,285.6 107.7,273 112.4,269 C127.3,276.5 140.3,280.1 149.5,281.9 C165.6,285.2 184.4,289 194.8,279 C195.6,278.2 197.4,276.3 201.3,266.6 C207.4,251.2 210.6,236.8 214.8,210.7 C215.7,204.9 217,197.1 218.3,187.8 C220.8,190.3 223.4,192.9 225.9,195.4 C227.1,190.9 228.6,184.2 229.4,176 C231.5,154.7 227.4,137.9 223.5,124.2 C207.8,68.8 198.4,35.4 167,11.2 C160.5,6.4 154.5,2.9 150.6,0.8 Z" id="Path" fill="#3D3D3D" opacity="0.32"></path>
                    <path d="M203.5,69.3 C210.2,101.9 211.1,129.6 210.6,149.6 C210.1,168.2 208.2,181.8 206.2,195.5 C200.3,236.8 197.3,257.4 185.9,267 C164.3,285.2 125.8,271.4 116.6,267.9 C125.3,273.7 156.6,293.4 187.2,282.5 C190.4,281.3 193.9,279.8 197.3,277.6 C200.9,271.5 205.7,262.1 208.8,249.8 C210.6,242.5 211.1,237.2 211.8,231 C212.9,221 214.8,206.4 218,188.1 C220.9,190.6 223.9,193.1 226.8,195.6 C227.8,190.5 229.1,182.7 229.4,173.1 C230.3,149.9 225.2,132.3 219.3,112.2 C216.1,101.2 211.1,86.4 203.5,69.3 Z" id="Path" fill="#3D3D3D" opacity="0.29"></path>
                </g>
                <g id="head" transform="translate(684.000000, 179.000000)" fill-rule="nonzero">
                    <path d="M38.6,99.8 C39.6,110.5 41.4,125.5 45.4,143.2 C48,154.7 49.6,162 53,171.1 C58.1,184.8 67.8,211 93.1,228.1 C99.2,232.3 109.3,237.9 123.5,241.2 C125.8,241.4 128.1,241.7 130.4,241.9 C131.2,246.1 132.2,252.3 133.2,259.8 C135.6,279.1 134.4,285 139.4,290.2 C145.5,296.5 155.2,295.9 157.3,295.7 C174,294.6 182.4,278 182.8,277.1 C180.1,272.2 177.4,266.2 175.2,259.2 C170.4,243.7 170.3,229.9 171.1,220.5 C178.8,209.4 187.3,200.9 195.9,194.3 C199.2,191.8 202,188.4 206.9,186.7 C213.9,184.3 217.5,186.7 222.7,185.1 C231.3,182.4 235,171.3 236.6,166.7 C242.7,148.5 235.2,130.5 230.4,119.8 C226.1,110 214.9,85.7 187.6,66.7 C159.5,47.1 103.3,25.3 66.1,53.6 C59.7,58.5 45.1,71.6 38.6,99.8 Z" id="Path" fill="#FFFFFF"></path>
                    <path d="M42.8,141 C36.4,139.9 20.2,136.1 9.7,122.2 C-6.3,101.1 2.3,71.6 11.2,56 C25.2,31.5 50.7,23 82.7,12.3 C101.7,6 119.8,-1.11022302e-16 144.4,1 C158,1.6 204.1,3.6 231.7,37.9 C248.1,58.2 249.9,80 253.5,123 C255.2,142.7 253.9,153.4 250.5,163.6 C248,171 239.9,194.7 216.6,204.2 C204.4,209.2 193.1,208.2 186.9,207.2 C192.5,198.9 198.1,190.7 203.8,182.4 C207,182.6 218.4,182.8 227.1,174.9 C239,164 241.1,142.3 232.4,136.5 C226,132.2 213.3,136.4 202.3,146.3 C201.3,140 199.7,133.1 197,126 C184.4,92.1 157,73.5 143.6,65.8 C138.3,72.6 121.5,92.5 91.7,100.4 C68.1,106.6 48.5,102.2 39.8,99.6 C40.8,113.4 41.8,127.2 42.8,141 Z" id="Path" fill="#1E1E1E"></path>
                    <path d="M37.8,102.4 C41.9,133.3 46.2,165.4 61.3,193.2 C73.7,216 93.7,235.5 119.4,242 C121.3,242.5 122.1,239.6 120.2,239.1 C94.8,232.6 75.2,213 63.2,190.3 C48.9,163.3 44.8,132.3 40.8,102.4 C40.5,100.5 37.5,100.5 37.8,102.4 L37.8,102.4 Z" id="Path" fill="#161616"></path>
                    <path d="M119.4,242.4 C137.5,242.4 156.5,232.7 170.7,222.3 C185,211.8 196.7,198.3 205.1,182.7 C206,181 203.4,179.5 202.5,181.2 C194.4,196.4 183.1,209.6 169.2,219.7 C155.3,229.9 136.9,239.4 119.4,239.4 C117.4,239.4 117.4,242.4 119.4,242.4 L119.4,242.4 Z" id="Path" fill="#161616"></path>
                    <path d="M170.6,219.9 C168.6,240.1 172.5,260.3 181.7,278.4 C182.6,280.1 185.2,278.6 184.3,276.9 C175.3,259.2 171.7,239.6 173.6,219.9 C173.8,218 170.8,218 170.6,219.9 L170.6,219.9 Z" id="Path" fill="#161616"></path>
                    <path d="M127.1,241.9 C130.4,253.3 133.1,264.9 135.1,276.6 C136.4,284.4 136.9,293.2 145.6,296.1 C158.6,300.5 177.8,292.7 182.8,279.8 C183.5,278 180.6,277.2 179.9,279 C177.1,286.3 170.1,290.3 162.9,292.4 C156.9,294.1 147.8,295.9 142.7,291 C139.7,288.1 139.3,283.5 138.7,279.6 C138,275.5 137.3,271.4 136.5,267.3 C134.7,258.5 132.6,249.7 130.1,241.1 C129.5,239.3 126.6,240.1 127.1,241.9 L127.1,241.9 Z" id="Path" fill="#161616"></path>
                    <path d="M131.4,254.3 C149.2,252 160.9,238.4 169.5,223.8 C170.5,222.1 167.9,220.6 166.9,222.3 C159,235.9 148,249.2 131.4,251.3 C129.5,251.6 129.5,254.6 131.4,254.3 L131.4,254.3 Z" id="Path" fill="#161616"></path>
                    <path d="M130.7,244.1 C144.6,242.5 157.1,236 166.4,225.5 C167.7,224.1 165.6,221.9 164.3,223.4 C155.6,233.3 143.8,239.6 130.7,241.1 C128.9,241.3 128.8,244.3 130.7,244.1 L130.7,244.1 Z" id="Path" fill="#161616"></path>
                    <path d="M131.2,241.9 C142.4,240.3 152.5,235.7 161.1,228.4 C162.6,227.1 160.4,225 159,226.3 C150.8,233.3 141.1,237.6 130.4,239.1 C128.5,239.3 129.3,242.2 131.2,241.9 L131.2,241.9 Z" id="Path" fill="#161616"></path>
                    <path d="M130.6,244.4 C131.1,246.8 131,251.6 134,252.4 C136.9,253.2 141.3,249.8 143.6,248.4 C151.5,243.6 158.1,237.1 163.3,229.5 C164.4,227.9 161.8,226.4 160.7,228 C157,233.5 152.5,238.4 147.2,242.4 C144.7,244.3 142.1,245.9 139.4,247.4 C138.3,248 135.8,249.7 134.7,249 C134,248.6 133.7,244.3 133.6,243.6 C133.1,241.7 130.2,242.5 130.6,244.4 L130.6,244.4 Z" id="Path" fill="#161616"></path>
                    <path d="M132,247.2 C140.6,243.7 148.7,239.3 156.3,234 C157.9,232.9 156.4,230.3 154.8,231.4 C147.4,236.6 139.6,240.9 131.2,244.3 C129.4,245 130.2,247.9 132,247.2 L132,247.2 Z" id="Path" fill="#161616"></path>
                    <path d="M133.5,250.2 C143.1,246.8 151.5,241.5 158.5,234.1 C159.8,232.7 157.7,230.6 156.4,232 C149.7,238.9 141.8,244.1 132.7,247.3 C130.9,248 131.7,250.9 133.5,250.2 L133.5,250.2 Z" id="Path" fill="#161616"></path>
                    <path d="M135.1,248.6 C142.2,245.5 148.7,241.3 154.3,235.9 C155.7,234.6 153.6,232.5 152.2,233.8 C146.7,239 140.5,243 133.6,246 C131.8,246.8 133.3,249.4 135.1,248.6 L135.1,248.6 Z" id="Path" fill="#161616"></path>
                    <path d="M53.4,178.4 C37.1,172.6 31.7,151.3 33.3,135.9 C35,119 50.2,100.6 68.8,108.5 C77.7,112.3 81,122.1 83.4,130.8 C85.9,140 87,150.2 84.6,159.6 C82.5,167.9 77.4,175.8 69.4,179.4 C61.4,183 51.9,181 46.5,174.1 C45.3,172.6 43.2,174.7 44.4,176.2 C53.5,187.9 70.6,185.6 79.8,175.3 C91.5,162.2 90.3,142.3 85.3,126.6 C83,119.3 80,111.7 73.3,107.5 C67.5,103.8 60.1,102.9 53.6,104.6 C38.4,108.7 30.5,124.8 30.2,139.5 C29.9,155.6 36.2,175.5 52.8,181.3 C54.4,181.9 55.2,179 53.4,178.4 L53.4,178.4 Z" id="Path" fill="#161616"></path>
                    <path d="M88,148.5 C97.8,142.6 109.7,142 119.9,147.1 C121.6,148 123.1,145.4 121.4,144.5 C110.2,138.9 97.2,139.4 86.4,145.9 C84.9,146.9 86.4,149.5 88,148.5 L88,148.5 Z" id="Path" fill="#161616"></path>
                    <path d="M135.8,169.8 C124.5,158.9 119.8,142 124.2,126.8 C128.8,111 144.6,97.4 161.6,103 C180.4,109.2 181.4,136.1 176.5,151.9 C173.6,161.2 167.8,170.5 158.2,173.9 C148.6,177.3 140.3,172.2 132.6,166.8 C131,165.7 129.5,168.3 131.1,169.4 C137.4,173.9 144.2,178.4 152.2,178.1 C159.8,177.8 166.7,173.6 171.4,167.9 C182,155.1 184.1,135.6 179.7,120 C175.7,105.8 163.9,96.6 148.8,99.1 C134.4,101.4 123.8,114.4 120.6,128 C116.9,143.7 121.9,160.7 133.5,171.9 C135.1,173.3 137.2,171.1 135.8,169.8 L135.8,169.8 Z" id="Path" fill="#161616"></path>
                    <path d="M62.5,136.9 C61.5,143.2 62.6,149.3 66,154.7 C66.7,155.8 68.3,155.6 68.7,154.3 C71.1,147.4 67.7,140.6 64.3,134.7 C63.6,133.4 61.5,134 61.5,135.5 C61.6,140.8 62.7,146 64.7,150.9 C65.4,152.7 68.3,151.9 67.6,150.1 C65.7,145.4 64.6,140.6 64.5,135.5 C63.6,135.8 62.6,136 61.7,136.3 C64.8,141.6 68,147.4 65.8,153.6 C66.7,153.5 67.6,153.4 68.5,153.2 C65.5,148.5 64.4,143.2 65.3,137.7 C65.7,135.8 62.8,135 62.5,136.9 L62.5,136.9 Z" id="Path" fill="#161616"></path>
                    <path d="M151,134.1 C151,132.8 150.9,132.5 150.3,131.4 C149.6,130.1 147.5,130.7 147.5,132.2 C147.6,138.4 148.1,145.1 152.9,149.5 C153.9,150.4 155.3,149.7 155.5,148.4 C156.3,141 154.1,134.1 149.5,128.3 C148.5,127.1 146.7,128.4 147,129.8 C148.2,134.7 149.7,139.5 151.5,144.1 C152.2,145.9 155.1,145.1 154.4,143.3 C152.5,138.6 151,133.9 149.9,129 C149.1,129.5 148.2,130 147.4,130.5 C151.5,135.7 153.2,141.9 152.5,148.5 C153.4,148.1 154.2,147.8 155.1,147.4 C150.8,143.5 150.6,137.6 150.5,132.2 C149.6,132.5 148.6,132.7 147.7,133 C147.8,133.4 147.9,133.8 148,134.2 C148,136 151,136 151,134.1 L151,134.1 Z" id="Path" fill="#161616"></path>
                    <path d="M98,153.8 C96,159.8 94.3,165.9 93.2,172.1 C92.6,175.4 90.5,181.6 92,184.9 C95,191.6 108.3,187.5 112.9,185.3 C114.6,184.5 113.1,181.9 111.4,182.7 C107.7,184.5 103.7,185.4 99.6,185.1 C97.2,184.9 95.3,184.5 94.8,181.8 C94.5,180.3 95.5,176.4 95.8,174.7 C97,167.8 98.8,161.1 101,154.5 C101.5,152.8 98.6,152 98,153.8 L98,153.8 Z" id="Path" fill="#161616"></path>
                    <path d="M113.1,211.5 C120.6,210.5 127.1,205.7 130.4,198.8 C131.2,197.1 128.6,195.5 127.8,197.3 C124.8,203.6 119.2,207.7 112.3,208.6 C110.4,208.9 111.3,211.8 113.1,211.5 L113.1,211.5 Z" id="Path" fill="#161616"></path>
                    <path d="M56.2,128.3 C58.1,126 61.6,125.6 64,127.6 C65.5,128.9 67.6,126.7 66.1,125.5 C62.6,122.5 57.2,122.7 54.1,126.2 C52.8,127.6 54.9,129.7 56.2,128.3 L56.2,128.3 Z" id="Path" fill="#161616"></path>
                    <path d="M142,122.7 C145.1,120 149.8,120 152.9,122.6 C154.4,123.8 156.5,121.7 155,120.5 C150.6,116.7 144.2,116.8 139.8,120.6 C138.4,121.9 140.6,124 142,122.7 L142,122.7 Z" id="Path" fill="#161616"></path>
                    <path d="M181.4,136.5 C192.2,132.7 203.3,130.4 214.8,129.8 C216.7,129.7 216.7,126.7 214.8,126.8 C203.1,127.4 191.7,129.7 180.6,133.6 C178.8,134.3 179.5,137.2 181.4,136.5 L181.4,136.5 Z" id="Path" fill="#161616"></path>
                    <path d="M196.3,11.9 C202.3,19.6 225.4,51.2 221.1,94.6 C218.7,118.8 208.7,136.6 202.4,146 C206,143.2 209.1,141.3 211.4,140 C217.5,136.6 221.4,134.5 226.4,134.8 C227.9,134.9 231.5,135.2 234.1,137.3 C241.7,143.7 239.1,166.4 225.6,177 C218.2,182.8 209.5,183.4 205.1,183.3 C199.4,191.4 193.6,199.5 187.9,207.7 C191.7,208.3 197.5,208.8 204.2,207.8 C207.1,207.4 218.7,205.3 229.7,196.5 C240.5,187.8 244.9,177.2 247.8,170 C255.8,150 254.2,132.4 251.4,100.7 C250.2,86.6 249.5,79.4 246.7,69.9 C243.7,59.6 239,44.4 225.6,30.8 C216,20.8 205.2,15.2 196.3,11.9 Z" id="Path" fill="#3D3D3D" opacity="0.4"></path>
                    <path d="M99.7,97.4 C109.7,88.5 120.9,77.1 131.7,62.9 C138.4,54.1 144,45.6 148.6,37.7 C146.9,46.7 145.2,55.7 143.6,64.7 C139.7,70.3 133.2,78.3 123.1,85.6 C114.2,91.9 105.8,95.4 99.7,97.4 Z" id="Path" fill="#3D3D3D" opacity="0.48"></path>
                    <path d="M170.8,86 C178.4,111.3 179,132.5 178.3,146.5 C177.8,156.9 175,211.4 146.3,230.2 C143.5,232 136.4,236.2 136.7,236.8 C137.1,237.5 150.4,231.6 157.7,227.6 C169.2,221.4 186.9,208.9 203.3,182.5 C206,182.8 219.2,183.7 228.7,174.6 C240.2,163.7 242.2,142.3 233.1,136 C226.6,131.5 214.2,135.3 203.3,144.3 C202.2,139.7 200.8,134.9 198.9,129.8 C191.4,110 180.1,95.6 170.8,86 Z" id="Path" fill="#3D3D3D" opacity="0.27"></path>
                    <path d="M146.7,236 C149.3,244 151.9,252 154.5,260.1 C158.1,271.1 161.6,282.2 165.1,293.2 C167.1,292.8 172,291.4 176.3,287 C180.6,282.6 182,277.8 182.5,275.8 C178.6,268.1 174,256.4 172.4,241.6 C171.6,233.9 171.8,227.1 172.4,221.4 C163.9,226.3 155.3,231.2 146.7,236 Z" id="Path" fill="#3D3D3D" opacity="0.36"></path>
                    <path d="M96.8,157.3 C91.8,168 86.8,178.6 81.8,189.3 C90,189.1 98.1,189 106.3,188.8 C101.5,187.3 96.6,185.8 91.8,184.3 C93.4,175.3 95.1,166.3 96.8,157.3 Z" id="Path" fill="#3D3D3D" opacity="0.43"></path>
                </g>
            </g>
        </g>
    </g>
</svg>