<?xml version="1.0" encoding="UTF-8"?>
<svg width="1167px" height="1093px" viewBox="0 0 1167 1093" version="1.1" xmlns="http://www.w3.org/2000/svg" xmlns:xlink="http://www.w3.org/1999/xlink">
    <title>idea BW</title>
    <g id="Page-1" stroke="none" stroke-width="1" fill="none" fill-rule="evenodd">
        <g id="70-beautiful-illustrations-andy-dao" transform="translate(-9742.000000, -8086.000000)">
            <g id="idea-BW" transform="translate(9742.000000, 8086.000000)">
                <g id="color" transform="translate(207.000000, 78.000000)" fill-rule="nonzero">
                    <path d="M495.9,11.8 C471.4,26.3 464.4,51.3 461.5,61.6 C460.8,64.1 452.6,94.8 466.8,126.8 C471,136.3 475.5,146.1 485.7,150.8 C491.6,153.6 496.9,153.4 517.7,151.6 C527.4,150.8 537.9,149.8 549.1,148.6 C557,138.5 570.6,118.3 574.6,89.9 C575.3,84.6 583.5,21.4 549.1,4.6 C526.6,-6.5 499.5,9.6 495.9,11.8 Z" id="Path" fill="#8E8E8E"></path>
                    <ellipse id="Oval" fill="#898989" cx="43.5" cy="135.9" rx="22.6" ry="25"></ellipse>
                    <ellipse id="Oval" fill="#898989" cx="556" cy="545.3" rx="16.8" ry="16.2"></ellipse>
                    <circle id="Oval" fill="#898989" cx="43.7" cy="451.2" r="12.5"></circle>
                    <ellipse id="Oval" fill="#262626" cx="20.4" cy="131.7" rx="19.9" ry="20.9"></ellipse>
                    <ellipse id="Oval" fill="#262626" cx="551.4" cy="523.1" rx="12.3" ry="12.8"></ellipse>
                    <ellipse id="Oval" fill="#262626" cx="715.8" cy="168.5" rx="13.5" ry="14.4"></ellipse>
                    <path d="M422.6,271.9 C420.4,268.4 416.8,271.7 415.3,274.1 C412.2,279.1 410.2,285.3 412.5,291 C414.2,295.3 418.4,298.9 423.3,298.2 C427.8,297.6 431.2,293.9 431.1,289.4 C431.1,288.2 429.4,287.3 428.5,288.3 C423.2,295 416.7,304.5 422,313.1 C425.7,319 434.8,319.8 438.4,313.4 C437.5,313.3 436.6,313.2 435.7,313 C436.2,315.8 436.7,318.6 437.1,321.4 C437.4,323.3 440.3,322.5 440,320.6 C439.5,317.8 439,315 438.6,312.2 C438.4,310.9 436.4,310.8 435.9,311.8 C434.3,314.6 430.7,315.6 427.8,314.2 C424.6,312.6 423.2,309 423.2,305.5 C423.2,299.7 427.3,294.6 430.7,290.3 C429.8,289.9 429,289.6 428.1,289.2 C428.2,293 424.5,295.8 420.8,295 C418,294.4 416.2,292 415.2,289.4 C414.2,286.7 414.3,284 415.1,281.3 C415.2,281.1 419.3,272.2 419.9,273.2 C421,275 423.6,273.5 422.6,271.9 L422.6,271.9 Z" id="Path" fill="#3A3A3A"></path>
                    <path d="M14.3,280.9 C16.5,274.9 23.8,277.5 26.1,281.7 C26.9,283.1 27.3,284.7 27.5,286.3 C27.9,289.3 27.6,290.5 25,292.3 C22.2,295.1 21.5,294 23,289 C23.7,288.7 24.5,288.4 25.2,288.1 C27.1,287.6 29.3,287.7 31.2,288.3 C36,289.9 38.4,295 37.7,299.7 C37.5,300.9 38.7,302.1 39.9,301.4 C46.4,297.7 55,301.8 56.5,309.1 C56.9,311 59.8,310.2 59.4,308.3 C57.5,299.1 46.6,294.3 38.4,298.9 C39.1,299.5 39.9,300 40.6,300.6 C41.9,291.8 35.2,283.6 25.9,285 C22.7,285.5 17.9,287.5 17.5,291.3 C17.2,294.4 20.1,296.7 23,297 C31.6,297.8 31.4,285.3 28.6,280.3 C24.8,273.5 14.3,271.8 11.3,280.2 C10.7,281.9 13.6,282.7 14.3,280.9 L14.3,280.9 Z" id="Path" fill="#3A3A3A"></path>
                    <path d="M540.8,657.3 C548.5,662.4 555,668.9 560.2,676.5 C561.3,678.1 563.9,676.6 562.8,675 C557.3,667 550.5,660.2 542.4,654.8 C540.7,653.6 539.2,656.2 540.8,657.3 L540.8,657.3 Z" id="Path" fill="#3A3A3A"></path>
                    <path d="M560.3,662.8 C561.9,664.7 563.4,666.7 565,668.6 C566.2,670.1 568.3,668 567.1,666.5 C565.5,664.6 564,662.6 562.4,660.7 C561.2,659.2 559.1,661.4 560.3,662.8 L560.3,662.8 Z" id="Path" fill="#3A3A3A"></path>
                    <path d="M551.1,634.8 C558,641.2 563.7,648.5 568.1,656.8 C569,658.5 571.6,657 570.7,655.3 C566.2,646.8 560.3,639.2 553.2,632.7 C551.8,631.3 549.7,633.5 551.1,634.8 L551.1,634.8 Z" id="Path" fill="#3A3A3A"></path>
                </g>
                <g id="background" transform="translate(0.000000, 88.000000)" fill="#E8E8E8" fill-rule="nonzero">
                    <path d="M66.7,737.4 C68.9,759.1 72.7,780.5 78,801.7 C78.5,803.6 81.4,802.8 80.9,800.9 C75.7,780 71.9,758.8 69.7,737.4 C69.5,735.5 66.5,735.5 66.7,737.4 L66.7,737.4 Z" id="Path"></path>
                    <path d="M78.6,802.7 C98.3,807.8 118.8,807.8 138.5,802.7 C140.4,802.2 139.6,799.3 137.7,799.8 C118.5,804.8 98.6,804.8 79.4,799.8 C77.6,799.3 76.8,802.2 78.6,802.7 L78.6,802.7 Z" id="Path"></path>
                    <path d="M140.8,799.7 C142.1,778.4 143.8,757.1 145.8,735.8 C146,733.9 143,733.9 142.8,735.8 C140.8,757.1 139.1,778.4 137.8,799.7 C137.7,801.6 140.7,801.6 140.8,799.7 L140.8,799.7 Z" id="Path"></path>
                    <path d="M68.4,739 C93.3,744.1 118.9,743.9 143.8,738.3 C145.7,737.9 144.9,735 143,735.4 C118.7,740.8 93.6,741.1 69.2,736.1 C67.3,735.7 66.5,738.6 68.4,739 L68.4,739 Z" id="Path"></path>
                    <path d="M68.1,746.2 C68.9,750.3 74.1,750.1 77.3,750.4 C85.4,751.1 93.6,751.3 101.7,751.1 C109.5,750.9 117.3,750.3 125.1,749.4 C131.3,748.6 137.3,747.8 142.8,744.7 C144.5,743.8 143,741.2 141.3,742.1 C131.4,747.6 117.7,747.4 106.6,747.9 C101.1,748.1 95.5,748.2 90,748.1 C87.1,748 71.6,748.7 71,745.4 C70.6,743.5 67.8,744.3 68.1,746.2 L68.1,746.2 Z" id="Path"></path>
                    <path d="M73.8,780.9 C78.6,789.4 84.7,796.9 92,803.4 C93.4,804.7 95.6,802.6 94.1,801.3 C86.9,795 81,787.7 76.4,779.4 C75.5,777.7 72.9,779.2 73.8,780.9 L73.8,780.9 Z" id="Path"></path>
                    <path d="M69.9,757.8 C80.1,775 92.5,790.8 106.7,805 C108.1,806.4 110.2,804.2 108.8,802.9 C94.8,788.9 82.6,773.3 72.5,756.3 C71.5,754.7 68.9,756.2 69.9,757.8 L69.9,757.8 Z" id="Path"></path>
                    <path d="M86.6,750.6 C97.2,769.5 109.5,787.4 123.4,804.1 C124.6,805.6 126.7,803.5 125.5,802 C111.8,785.5 99.6,767.8 89.2,749.1 C88.3,747.4 85.7,748.9 86.6,750.6 L86.6,750.6 Z" id="Path"></path>
                    <path d="M105.7,751.3 C116,766.7 126.4,782 136.9,797.3 C138,798.9 140.6,797.4 139.5,795.8 C129,780.5 118.6,765.2 108.3,749.8 C107.2,748.2 104.6,749.7 105.7,751.3 L105.7,751.3 Z" id="Path"></path>
                    <path d="M121.7,750.4 C126.9,758.8 132.5,767 138.3,775 C139.4,776.5 142,775 140.9,773.5 C135.1,765.5 129.5,757.3 124.3,748.9 C123.3,747.3 120.7,748.8 121.7,750.4 L121.7,750.4 Z" id="Path"></path>
                    <path d="M35.2,649.4 C36.4,656.3 37.6,663.3 38.9,670.2 C39.3,672.1 39.6,674.1 41.2,675.3 C42.3,676.2 45.9,676.1 46.6,677.1 C46.7,676.5 46.8,675.9 46.8,675.3 C45.3,676.8 43.8,678.3 42.2,679.7 C41.8,680.1 41.7,680.7 41.8,681.2 C42.7,683.9 43.3,687.9 45.1,690.2 C46,691.4 47.6,691.2 48.3,691.9 C48.9,692.5 48.7,692.1 48.4,693.9 C48.2,695.4 48.2,697 48.4,698.6 C48.7,701 49.4,703.3 50.3,705.5 C55.5,718.1 65.6,728.3 75.3,737.7 C76.7,739 78.8,736.9 77.4,735.6 C71.2,729.6 65,723.4 59.9,716.4 C54.9,709.5 49,700.2 52.1,691.4 C52.3,690.9 52.1,690.2 51.7,689.9 C49.8,688.4 47.9,689 46.6,686.6 C44.1,682.1 45.5,680.6 48.7,677.5 C49.2,677.1 49.3,676.2 48.9,675.7 C48.1,674.5 47.5,674.1 46.2,673.7 C45.4,673.4 44.2,673.7 43.4,673.3 C41.7,672.4 41.7,670.2 41.4,668.6 C40.2,662 39,655.3 37.9,648.7 C37.7,646.7 34.8,647.5 35.2,649.4 L35.2,649.4 Z" id="Path"></path>
                    <path d="M37.4,649 C76.4,662 103.1,698.4 103.9,739.6 C103.9,741.5 106.9,741.5 106.9,739.6 C106.1,697.1 78.5,659.6 38.2,646.1 C36.4,645.5 35.6,648.4 37.4,649 L37.4,649 Z" id="Path"></path>
                    <path d="M97.3,698.6 C107,671.7 121.3,645.7 144.2,628 C145.7,626.8 144.2,624.2 142.7,625.4 C119.1,643.7 104.4,670.1 94.4,697.8 C93.8,699.6 96.7,700.4 97.3,698.6 L97.3,698.6 Z" id="Path"></path>
                    <path d="M141.6,627.4 C142.3,636.6 143.1,645.8 143.8,655.1 C144,657 147,657 146.8,655.1 C146.1,645.9 145.3,636.7 144.6,627.4 C144.5,625.5 141.5,625.5 141.6,627.4 L141.6,627.4 Z" id="Path"></path>
                    <path d="M145.1,654.1 C143.8,654.4 142.5,654.7 141.3,655.1 C139.4,655.6 140.2,658.5 142.1,658 C143.4,657.7 144.7,657.4 145.9,657 C147.8,656.5 147,653.7 145.1,654.1 L145.1,654.1 Z" id="Path"></path>
                    <path d="M139.8,657.8 C140.2,659.7 141.8,660.9 143.6,661.1 C144.4,661.2 145.1,660.4 145.1,659.6 C145.1,658.7 144.4,658.2 143.6,658.1 C143.9,658.1 143.6,658.1 143.5,658.1 C143.4,658.1 143.2,658 143.4,658.1 C143.3,658 143.2,658 143.1,657.9 C142.9,657.8 143.3,658.1 143,657.8 C142.9,657.7 142.9,657.7 142.8,657.6 C143,657.8 142.8,657.6 142.8,657.5 C142.7,657.4 142.7,657.2 142.7,657.4 C142.7,657.3 142.6,657.1 142.6,657 C142.4,656.2 141.5,655.7 140.8,656 C140,656.2 139.6,657 139.8,657.8 L139.8,657.8 Z" id="Path"></path>
                    <path d="M142.1,660 C142.2,665.7 142,671.3 141.4,676.9 C141.2,678.7 141.5,682.9 140.3,684.3 C140.2,684.4 138.4,684.7 138,685 C136.5,686.2 138.6,688.3 140.1,687.1 C140.6,686.7 141.8,687.1 142.6,686.2 C143.8,685 143.6,682.2 143.8,680.8 C144.7,673.9 145.1,666.9 145,659.9 C145.1,658.1 142.1,658.1 142.1,660 L142.1,660 Z" id="Path"></path>
                    <path d="M136.8,687.6 C140,691.4 139.1,697.7 138.8,702.3 C138.4,707.6 137.5,712.5 134.9,717.1 C131.2,723.9 126,729.6 123.3,737 C122.6,738.8 125.5,739.6 126.2,737.8 C129.8,728.1 138.1,720.9 140.6,710.7 C142.4,703.4 144.1,691.7 138.9,685.5 C137.7,684.1 135.6,686.2 136.8,687.6 L136.8,687.6 Z" id="Path"></path>
                    <path d="M113.2,738.4 C116,710 123.5,682.3 135.5,656.5 C136.3,654.8 133.7,653.2 132.9,655 C120.7,681.4 113,709.5 110.2,738.5 C110,740.4 113,740.3 113.2,738.4 L113.2,738.4 Z" id="Path"></path>
                    <path d="M54.2,665.7 C71.7,687.7 84.5,713 92,740 C92.5,741.9 95.4,741.1 94.9,739.2 C87.2,711.6 74.1,686 56.3,663.6 C55.1,662.1 53,664.2 54.2,665.7 L54.2,665.7 Z" id="Path"></path>
                    <path d="M56.1,702.6 C64.5,702.1 72.3,704.1 79.4,708.5 C81,709.5 82.6,706.9 80.9,705.9 C73.4,701.3 64.9,699.1 56.1,699.6 C54.1,699.7 54.1,702.7 56.1,702.6 L56.1,702.6 Z" id="Path"></path>
                    <path d="M74.4,689.2 C73.8,683.7 74.5,678.4 76.6,673.2 C77.3,671.4 74.4,670.6 73.7,672.4 C71.5,677.8 70.8,683.4 71.4,689.2 C71.6,691.1 74.6,691.1 74.4,689.2 L74.4,689.2 Z" id="Path"></path>
                    <path d="M106.8,672.6 C110.1,680.7 114.9,689.3 116.1,697.9 C116.4,699.8 119.3,699 119,697.1 C117.7,688.4 112.9,679.8 109.7,671.8 C109,670 106.1,670.8 106.8,672.6 L106.8,672.6 Z" id="Path"></path>
                    <path d="M125.2,682.1 C128.1,678.8 130.9,674.9 134.6,672.4 C137.7,670.3 141.1,668.9 143.5,666 C144.7,664.5 142.6,662.4 141.4,663.9 C138.8,667 135,668.3 131.9,670.7 C128.5,673.3 125.9,676.8 123.1,680 C121.8,681.5 123.9,683.6 125.2,682.1 L125.2,682.1 Z" id="Path"></path>
                    <path d="M126.2,737.4 C131,736.1 135.9,735.6 140.9,735.9 C142.8,736 142.8,733 140.9,732.9 C135.6,732.6 130.5,733.1 125.4,734.5 C123.6,735 124.3,737.9 126.2,737.4 L126.2,737.4 Z" id="Path"></path>
                    <path d="M125.8,738.6 C131.4,739.1 136.8,738.4 142.2,736.7 C144,736.1 143.2,733.2 141.4,733.8 C136.3,735.4 131.1,736 125.8,735.6 C123.9,735.5 123.9,738.5 125.8,738.6 L125.8,738.6 Z" id="Path"></path>
                    <path d="M69.7,738.1 C71,738.1 72.2,738.1 73.5,738.1 C75.4,738.1 75.4,735.1 73.5,735.1 C72.2,735.1 71,735.1 69.7,735.1 C67.8,735.1 67.8,738.1 69.7,738.1 L69.7,738.1 Z" id="Path"></path>
                    <path d="M143,762.3 C174.7,762.3 206.5,762.3 238.2,762.3 C240.1,762.3 240.1,759.3 238.2,759.3 C206.5,759.3 174.7,759.3 143,759.3 C141.1,759.3 141.1,762.3 143,762.3 L143,762.3 Z" id="Path"></path>
                    <path d="M679.6,742.5 C698.5,742.5 717.3,742.5 736.2,742.5 C738.1,742.5 738.1,739.5 736.2,739.5 C717.3,739.5 698.5,739.5 679.6,739.5 C677.7,739.5 677.7,742.5 679.6,742.5 L679.6,742.5 Z" id="Path"></path>
                    <path d="M851.2,744.3 C932.7,744.3 1014.2,744.3 1095.7,744.3 C1118.9,744.3 1142.1,744.3 1165.3,744.3 C1167.2,744.3 1167.2,741.3 1165.3,741.3 C1083.8,741.3 1002.3,741.3 920.8,741.3 C897.6,741.3 874.4,741.3 851.2,741.3 C849.3,741.3 849.3,744.3 851.2,744.3 L851.2,744.3 Z" id="Path"></path>
                    <path d="M730.5,416 C722.9,431.7 714.7,447.1 706,462.2 C705.6,463 705.9,464.3 706.9,464.4 C749.8,470.9 788.2,492.2 825.2,513.7 C826.9,514.7 828.4,512.1 826.7,511.1 C789.4,489.5 750.8,468.1 707.6,461.5 C707.9,462.2 708.2,463 708.5,463.7 C717.3,448.6 725.4,433.2 733,417.5 C733.9,415.8 731.4,414.2 730.5,416 L730.5,416 Z" id="Path"></path>
                    <path d="M737.1,470.5 C740.1,461.9 743.1,453.2 746.1,444.6 C747.4,441 748.3,437 750,433.5 C750.4,431.4 751.7,429.8 753.7,428.6 C754.9,428.9 756.1,429.2 757.3,429.5 C759.1,430 760.9,430.4 762.6,430.9 C766.7,431.9 773.3,431.9 772.6,437.4 C772.1,441.3 769.8,445.5 768.5,449.3 C765.5,457.8 762.6,466.3 759.6,474.8 C759,476.6 761.9,477.4 762.5,475.6 C766.4,464.4 770.3,453.1 774.2,441.9 C775.1,439.3 777.6,434.9 775.6,432.1 C773.4,429.1 766.8,428.9 763.4,428 C760.1,427.2 754.3,424.2 750.9,425.8 C748,427.1 747.4,432.1 746.5,434.6 C742.4,446.3 738.3,458.1 734.2,469.8 C733.6,471.5 736.5,472.3 737.1,470.5 L737.1,470.5 Z" id="Path"></path>
                    <path d="M775.7,481.2 C782.1,467.7 788.6,454.1 795,440.6 C798.2,433.8 801.4,427.1 804.7,420.3 C806.2,417.2 807.4,413.5 809.3,410.6 C810.9,408.1 811.3,407.5 814.1,408.6 C815.6,409.2 817.4,410.7 818.7,411.6 C820.4,412.8 823.1,414.1 824.3,415.7 C825.8,417.6 825.2,419.6 824.3,422 C823.1,425.2 821.3,428.3 819.8,431.4 C816.5,438.2 813.2,445 809.7,451.8 C803.1,464.7 796.2,477.5 789.1,490.2 C788.1,491.9 790.7,493.4 791.7,491.7 C800.4,476.3 808.7,460.7 816.5,444.9 C820.4,437.1 824.7,429.1 828,421 C830.3,415.1 825.3,412.7 820.9,409.6 C817.4,407.2 811.9,401.7 808.1,406.2 C805.7,409 804.4,413.7 802.8,417.1 C800.8,421.2 798.9,425.3 796.9,429.5 C788.9,446.3 780.9,463.1 773,479.9 C772.3,481.4 774.9,483 775.7,481.2 L775.7,481.2 Z" id="Path"></path>
                    <path d="M808.9,502 C817.5,488.5 827.2,475.7 837.9,463.9 C837.3,464 836.7,464.1 836.1,464.1 C839.9,466.7 843.6,469.2 847.4,471.8 C847.2,471.1 847,470.4 846.9,469.7 C838.4,483 829.9,496.2 821.4,509.5 C820.4,511.1 822.9,512.6 824,511 C832.5,497.7 841,484.5 849.5,471.2 C850,470.5 849.6,469.6 849,469.1 C845.2,466.5 841.5,464 837.7,461.4 C837.2,461 836.3,461.2 835.9,461.6 C825,473.7 815.1,486.6 806.4,500.3 C805.3,502.2 807.9,503.7 808.9,502 L808.9,502 Z" id="Path"></path>
                    <path d="M928.2,406.9 C918.2,403.1 911.9,393.1 913.7,382.4 C915.5,371.5 926.2,361.8 937.2,368.3 C944.8,372.8 948.7,383 945.8,391.3 C942.8,400.2 933,405.5 923.9,404.1 C922,403.8 921.2,406.7 923.1,407 C933.8,408.6 945.1,402.7 948.7,392.1 C952.3,381.5 946.5,368.7 936.1,364.4 C923.9,359.4 912.8,369.9 910.7,381.6 C908.5,394 915.8,405.4 927.3,409.8 C929.2,410.5 930,407.6 928.2,406.9 L928.2,406.9 Z" id="Path"></path>
                    <path d="M948.7,405 C928.8,404.4 936.3,372.5 953.9,373.7 C971.5,375 964.3,410.9 945,404.3 C943.2,403.7 942.4,406.6 944.2,407.2 C966.5,414.8 976.5,374.2 955.2,370.8 C944.8,369.1 935.4,378.9 933.8,388.6 C932.2,398.2 938.7,407.6 948.7,407.9 C950.6,408.1 950.6,405.1 948.7,405 L948.7,405 Z" id="Path"></path>
                    <path d="M933.8,314.5 C932.1,312.7 931.3,309.8 932.6,307.6 C933.9,305.5 937.1,304.5 939.1,306.1 C940.9,307.5 941.3,310.5 939.6,312 C937.6,313.8 934.4,312.9 932.5,311.4 C931,310.2 928.9,312.3 930.4,313.5 C933.5,315.9 938.3,317.1 941.6,314.2 C944.6,311.5 944.3,306.5 941.3,303.9 C938.2,301.2 933.3,302 930.7,305 C927.8,308.4 928.6,313.5 931.6,316.6 C933,318 935.1,315.9 933.8,314.5 L933.8,314.5 Z" id="Path"></path>
                    <path d="M643.6,389.8 C640.8,372.8 650.7,352.3 669.9,352.5 C679.7,352.6 689.2,356.6 699.1,355.2 C706.1,354.2 712.1,350.2 716.3,344.7 C720.5,339.2 722.9,332.3 723.3,325.4 C723.8,315.2 719.9,304.8 722.7,294.7 C724.1,289.6 727.1,284.9 732.2,283 C737.1,281.3 742.4,282.3 747.5,282.1 C754.9,281.8 760.7,278.6 764.4,272.1 C769.6,263 768.4,252.1 772,242.5 C776.3,230.9 788.4,221 801.2,226.7 C802.9,227.5 804.5,224.9 802.7,224.1 C785.3,216.3 770.8,232 767.4,247.8 C765.2,258.1 765.6,274.1 753.3,278.2 C744.7,281.1 735,276.6 727.1,282.5 C720.6,287.3 718.7,296.1 718.8,303.8 C719.1,315.1 722.6,326.1 717.6,336.9 C713,347.1 703.9,353.2 692.6,352.5 C682.6,351.9 672.7,347.8 662.6,350.4 C645.5,354.7 638.2,374.9 640.9,390.7 C641.1,392.4 644,391.6 643.6,389.8 L643.6,389.8 Z" id="Path"></path>
                    <path d="M770,318.5 C766.3,310.1 771.4,302.1 779.5,299.4 C785.4,297.4 791.9,297.3 797,293.3 C801,290.2 802.3,286.3 801.8,281.3 C801.3,276.6 801.3,272.9 805,269.7 C808.1,267 812.2,266 816.2,265.8 C827.2,265.4 842.3,271 850.3,260.3 C854,255.3 852.9,249.1 854.6,243.5 C856.9,235.7 864.4,230.9 872.4,231.3 C874.3,231.4 874.3,228.4 872.4,228.3 C866.3,228 860.4,230.3 856.2,234.7 C851,240.2 851.7,246.4 850.1,253.3 C845.8,272.2 819.5,258.9 807.1,264.8 C802.5,267 798.8,270.9 798.4,276.1 C797.9,282.2 800.7,287.2 794.5,291.4 C791.2,293.6 787.4,294.3 783.6,295.2 C777.3,296.7 771.1,298.6 767.9,304.7 C765.3,309.5 765.3,315 767.5,319.9 C768.2,321.8 770.7,320.2 770,318.5 L770,318.5 Z" id="Path"></path>
                    <path d="M948.2,185.3 C947.8,184.4 947.4,183.4 947.1,182.4 C948.4,180.9 949.6,179.4 950.9,177.9 C951.3,177.8 953.1,179 953.7,179 C955.2,179.2 956.5,178.8 957.7,177.9 C961.4,175 960.1,170.4 961.2,166.5 C963,159.8 970.9,164.4 974.5,159.4 C978.1,154.5 976.8,144.1 986.4,146.9 C988.3,147.4 989.1,144.5 987.2,144 C981.7,142.4 976.7,145 974.7,150.3 C974.1,151.8 973.9,153.5 973.3,155 C972,158.5 970.6,159 966.8,159.2 C964,159.4 961.8,159.2 959.9,161.6 C958.3,163.7 958.3,166.4 958,168.9 C957.7,172.6 958,175.7 952.5,175.3 C951.4,175.2 950.5,174.2 949.3,174.2 C942.7,174.1 943.8,182.2 945.4,186.1 C946,187.9 949,187.1 948.2,185.3 L948.2,185.3 Z" id="Path"></path>
                    <path d="M967,193.6 C965.4,191.5 962.7,185.4 967.4,183.8 C969.1,183.2 971.3,183.9 973.1,183.9 C974.7,183.9 976.1,183.9 977.4,182.8 C981.4,179.6 978.5,173.9 980.6,169.9 C984,163.4 990.8,168.5 995.6,165.1 C999,162.7 999.9,158.1 1000.5,154.3 C1000.8,152.4 997.9,151.6 997.6,153.5 C996.9,158 996.1,163 990.5,163.5 C987.6,163.8 985.4,162.8 982.7,164.1 C978.3,166.2 976.9,170.1 976.8,174.6 C976.7,178.4 977.6,180.3 971.2,180.6 C970.4,180.6 969.6,180.4 968.8,180.4 C966.5,180.6 964.5,181.8 963.2,183.7 C960.4,187.7 962,192.3 964.8,195.8 C966.1,197.3 968.2,195.1 967,193.6 L967,193.6 Z" id="Path"></path>
                    <path d="M116.8,247.8 C125.1,237.8 136.9,229.6 150.5,231 C165.3,232.5 172.6,244.3 174,258.1 C176.4,281 170.8,308.4 186.3,327.9 C192.4,335.6 201.5,339.7 211.3,337.3 C223.1,334.5 232.3,325.2 242.8,319.7 C255.2,313.2 272.3,309.7 283.5,320.6 C291.7,328.6 293.5,340.8 296.2,351.4 C298.7,361 303,371.6 311.6,377.3 C316.8,380.7 322.5,381 328.5,380.6 C335.2,380.1 348.9,379.7 347.5,390.2 C347.3,392.1 350.3,392.1 350.5,390.2 C351,386.1 349.1,382.8 345.8,380.4 C340.6,376.6 334.6,377.2 328.5,377.6 C321.6,378.1 315.7,377.5 310.4,372.6 C305.6,368.2 302.7,362 300.6,355.9 C297.1,345.4 296.1,333.9 290.1,324.3 C284.2,314.8 274,310.2 263,310.6 C249.1,311.1 237.4,319.1 226.3,326.5 C221,330 215.3,333.7 208.8,334.8 C201,336.1 194.1,332.7 189.1,326.9 C179.7,315.9 178.2,300.2 177.7,286.4 C177.2,273.5 178.9,259.5 174.6,247 C170.7,235.6 160.8,228.5 148.9,227.9 C135.1,227.2 123,235.5 114.5,245.7 C113.4,247.2 115.5,249.3 116.8,247.8 L116.8,247.8 Z" id="Path"></path>
                    <path d="M66.3,402.1 C81.9,428.1 95.8,455 108.1,482.7 C108.9,484.5 111.5,482.9 110.7,481.2 C98.4,453.5 84.4,426.6 68.9,400.6 C67.9,398.9 65.3,400.4 66.3,402.1 L66.3,402.1 Z" id="Path"></path>
                    <path d="M68.2,400.9 C92.5,385.8 117.5,371.7 143.2,358.9 C144.9,358 143.4,355.4 141.7,356.3 C116.1,369.1 91.1,383.2 66.7,398.3 C65,399.4 66.5,402 68.2,400.9 L68.2,400.9 Z" id="Path"></path>
                    <path d="M141.4,357.6 C154.1,384.3 167.5,410.6 181.7,436.5 C182.6,438.2 185.2,436.7 184.3,435 C170.1,409.1 156.6,382.8 144,356.1 C143.1,354.3 140.6,355.8 141.4,357.6 L141.4,357.6 Z" id="Path"></path>
                    <path d="M111.5,483.3 C135.4,468.9 159,454.1 182.4,438.9 C184,437.9 182.5,435.3 180.9,436.3 C157.5,451.5 133.9,466.3 110,480.7 C108.4,481.7 109.9,484.3 111.5,483.3 L111.5,483.3 Z" id="Path"></path>
                    <path d="M109.6,392.1 C109,411.3 110.1,430.4 112.9,449.4 C113.2,451.3 116.1,450.5 115.8,448.6 C113,429.9 112,411 112.6,392.1 C112.7,390.2 109.7,390.2 109.6,392.1 L109.6,392.1 Z" id="Path"></path>
                    <path d="M109.7,391.1 C123.6,402 137.5,412.7 151.6,423.3 C153.1,424.5 154.6,421.9 153.1,420.7 C139.2,410.3 125.4,399.7 111.8,389 C110.3,387.8 108.2,389.9 109.7,391.1 L109.7,391.1 Z" id="Path"></path>
                    <path d="M116,450 C127.5,439.7 142.5,434.2 153.4,423.1 C154.8,421.7 152.6,419.6 151.3,421 C140.4,432 125.5,437.6 113.9,447.9 C112.4,449.1 114.6,451.2 116,450 L116,450 Z" id="Path"></path>
                    <path d="M70.3,417.8 C73.5,416.2 76.7,414.7 79.9,413.1 C81.6,412.3 80.1,409.7 78.4,410.5 C75.2,412.1 72,413.6 68.8,415.2 C67.1,416.1 68.6,418.6 70.3,417.8 L70.3,417.8 Z" id="Path"></path>
                    <path d="M80.6,434.8 C83.3,433 86.2,431.5 89.2,430.2 C91,429.5 90.2,426.6 88.4,427.3 C85.1,428.7 82,430.3 79,432.2 C77.5,433.3 79,435.9 80.6,434.8 L80.6,434.8 Z" id="Path"></path>
                    <path d="M91.9,454.4 C94.7,453 97.5,451.6 100.3,450.3 C102,449.4 100.5,446.9 98.8,447.7 C96,449.1 93.2,450.5 90.4,451.8 C88.7,452.6 90.2,455.2 91.9,454.4 L91.9,454.4 Z" id="Path"></path>
                    <path d="M97.7,474 C100.8,471.3 104,469 107.6,467 C109.3,466 107.8,463.5 106.1,464.4 C102.4,466.5 98.9,469 95.6,471.9 C94.1,473.2 96.2,475.3 97.7,474 L97.7,474 Z" id="Path"></path>
                    <path d="M147.1,377.3 C149.4,375.7 151.8,374.6 154.5,373.9 C156.4,373.4 155.6,370.6 153.7,371 C150.8,371.7 148,372.9 145.5,374.7 C144,375.8 145.5,378.4 147.1,377.3 L147.1,377.3 Z" id="Path"></path>
                    <path d="M156,394.4 C159.2,392.4 162.4,390.4 165.5,388.3 C167.1,387.3 165.6,384.7 164,385.7 C160.8,387.7 157.6,389.7 154.5,391.8 C152.8,392.9 154.3,395.5 156,394.4 L156,394.4 Z" id="Path"></path>
                    <path d="M166.2,414.9 C169.6,413.4 173.1,411.9 176.5,410.4 C178.3,409.6 176.7,407 175,407.8 C171.6,409.3 168.1,410.8 164.7,412.3 C162.9,413.1 164.5,415.7 166.2,414.9 L166.2,414.9 Z" id="Path"></path>
                    <path d="M173.5,428.3 C176.2,425.7 179.2,423.5 182.5,421.6 C184.2,420.7 182.7,418.1 181,419 C177.5,421 174.3,423.3 171.4,426.1 C170,427.5 172.1,429.6 173.5,428.3 L173.5,428.3 Z" id="Path"></path>
                    <path d="M120,470.1 C122.5,473.8 124.6,477.7 126.2,481.8 C126.9,483.6 129.8,482.8 129.1,481 C127.4,476.6 125.3,472.4 122.6,468.5 C121.5,467 118.9,468.5 120,470.1 L120,470.1 Z" id="Path"></path>
                    <path d="M135.3,461.8 C137.2,465.2 139,468.5 140.9,471.9 C141.8,473.6 144.4,472.1 143.5,470.4 C141.6,467 139.8,463.7 137.9,460.3 C137,458.6 134.4,460.1 135.3,461.8 L135.3,461.8 Z" id="Path"></path>
                    <path d="M153,449.1 C155,452.7 157,456.3 159,459.9 C159.9,461.6 162.5,460.1 161.6,458.4 C159.6,454.8 157.6,451.2 155.6,447.6 C154.7,445.9 152.1,447.4 153,449.1 L153,449.1 Z" id="Path"></path>
                    <path d="M168.9,439.6 C170.5,443.4 172.1,447.2 173.8,450.9 C174.6,452.7 177.1,451.1 176.4,449.4 C174.8,445.6 173.2,441.8 171.5,438.1 C170.7,436.4 168.1,437.9 168.9,439.6 L168.9,439.6 Z" id="Path"></path>
                    <path d="M78.2,385.5 C80.1,388.6 81.9,391.7 83.8,394.7 C84.8,396.4 87.4,394.8 86.4,393.2 C84.5,390.1 82.7,387 80.8,384 C79.8,382.4 77.2,383.9 78.2,385.5 L78.2,385.5 Z" id="Path"></path>
                    <path d="M95.4,375.5 C97.2,379.5 99,383.5 100.8,387.5 C101.6,389.3 104.2,387.7 103.4,386 C101.6,382 99.8,378 98,374 C97.1,372.2 94.6,373.7 95.4,375.5 L95.4,375.5 Z" id="Path"></path>
                    <path d="M110.9,365.9 C113.6,369.5 115.7,373.4 117.1,377.6 C117.7,379.4 120.6,378.6 120,376.8 C118.5,372.3 116.4,368.1 113.5,364.4 C112.4,362.9 109.8,364.3 110.9,365.9 L110.9,365.9 Z" id="Path"></path>
                    <path d="M127.6,358.2 C129.7,361.4 131.7,364.5 133.8,367.7 C134.8,369.3 137.4,367.8 136.4,366.2 C134.3,363 132.3,359.9 130.2,356.7 C129.1,355.1 126.5,356.6 127.6,358.2 L127.6,358.2 Z" id="Path"></path>
                    <path d="M283.1,159.9 C273.4,156.9 272.9,146.6 277.5,138.9 C282,131.4 290.7,129.4 297.5,135.6 C303.1,140.8 303.6,149.7 298.4,155.4 C293.2,161.2 284.7,161.1 278.7,156.7 C277.2,155.5 275.7,158.1 277.2,159.3 C284.8,164.9 295.9,164 301.6,156.1 C307.5,148.1 305.4,136.9 297.1,131.5 C277.1,118.6 259.9,155.8 282.3,162.8 C284.2,163.4 285,160.5 283.1,159.9 L283.1,159.9 Z" id="Path"></path>
                    <path d="M299.2,162.5 C291.7,164.8 289.9,155.8 293.2,151 C295.9,147.1 301.2,144.8 306,146.1 C310.6,147.3 313.9,152 312.7,156.7 C311.2,162.6 305,164.7 299.5,163.8 C297.6,163.5 296.8,166.4 298.7,166.7 C306.1,168 314.1,164.8 315.7,156.8 C317.1,149.9 311.7,143.6 305,142.8 C297.6,141.9 289.5,147.3 288.5,154.9 C287.6,161.5 293.6,167.4 300.2,165.3 C301.9,164.8 301.1,161.9 299.2,162.5 L299.2,162.5 Z" id="Path"></path>
                    <path d="M235.4,227.6 C233,232.5 236.4,237.4 241.4,238.7 C245.2,239.7 249.2,238.8 253.1,239 C257.3,239.2 261.5,240.2 265.3,241.9 C273.7,245.7 279.1,252.6 279.4,261.9 C279.7,269.7 277.4,277.8 280.8,285.2 C288,300.8 307.8,288.9 318,299 C326.5,307.5 323,323 334.4,329.5 C336.1,330.5 337.6,327.9 335.9,326.9 C325.7,321.1 328.1,306 320.9,297.6 C317.1,293.2 311.6,292 306,291.6 C299.2,291.2 290.4,292.6 285.4,286.8 C279.6,280 282.7,269.8 282.4,261.8 C282.2,255.5 280.1,249.8 275.7,245.3 C271.8,241.4 266.7,238.7 261.4,237.3 C258.7,236.6 255.9,236.1 253.1,236 C249.5,235.8 233.9,237.6 238.1,229.1 C238.9,227.4 236.3,225.9 235.4,227.6 L235.4,227.6 Z" id="Path"></path>
                    <path d="M1.6,767.4 C19.7,767.4 37.7,767.4 55.8,767.4 C57.7,767.4 57.7,764.4 55.8,764.4 C37.7,764.4 19.7,764.4 1.6,764.4 C-0.4,764.4 -0.4,767.4 1.6,767.4 L1.6,767.4 Z" id="Path"></path>
                    <path d="M30.8,835.2 C65.6,835.2 100.3,835.2 135.1,835.2 C137,835.2 137,832.2 135.1,832.2 C100.3,832.2 65.6,832.2 30.8,832.2 C28.8,832.2 28.8,835.2 30.8,835.2 L30.8,835.2 Z" id="Path"></path>
                    <path d="M130.9,816.4 C163.2,816.4 195.6,816.4 227.9,816.4 C229.8,816.4 229.8,813.4 227.9,813.4 C195.6,813.4 163.2,813.4 130.9,813.4 C128.9,813.4 128.9,816.4 130.9,816.4 L130.9,816.4 Z" id="Path"></path>
                    <path d="M668.8,811.2 C685.1,807.2 701.5,806.8 718.1,809.4 C725.1,810.5 732.2,811.6 739.3,811 C746.2,810.4 752.9,808.3 759.6,806.5 C767.2,804.4 774.8,802.8 782.8,803.4 C791,804 798.9,806.3 806.9,808.1 C813.8,809.7 820.8,810.8 827.9,810.7 C835.4,810.5 842.8,809.2 850.1,808.1 C870.1,804.9 888.9,806.9 908.7,810.2 C910.6,810.5 911.4,807.6 909.5,807.3 C893.5,804.7 877.4,802 861.1,803.6 C844.1,805.3 828.3,809.5 811.1,806 C796.7,803.1 783,798.6 768.2,801.4 C760.3,802.9 752.8,805.7 744.9,807.2 C736.1,808.9 727.6,807.9 718.8,806.5 C701.7,803.9 684.8,804.1 667.9,808.3 C666.2,808.8 667,811.7 668.8,811.2 L668.8,811.2 Z" id="Path"></path>
                    <path d="M822.4,780.8 C853.8,779.1 885.2,777.4 916.6,775.8 C932.1,775 947.1,775.3 962.5,777.4 C969.4,778.3 976,778.5 982.9,777.7 C990.6,776.8 998.6,775.6 1005.8,779.3 C1007.5,780.2 1009,777.6 1007.3,776.7 C995.1,770.5 981,776.3 967.9,775.1 C960.1,774.4 952.5,772.9 944.7,772.5 C936.6,772.1 928.5,772.3 920.4,772.7 C887.7,774.2 855,776.2 822.3,777.9 C820.5,777.9 820.5,780.9 822.4,780.8 L822.4,780.8 Z" id="Path"></path>
                    <path d="M207.5,866.7 C222.3,868.1 237.2,869.5 252,867.8 C258.9,867 265.5,865.5 272.2,863.5 C280.9,860.9 288.7,860.2 297.7,861.8 C304.6,863 311.4,864.7 318.3,865.3 C325.6,865.9 332.9,865.5 340.2,864.8 C355.5,863.3 370.8,860.7 386,864.1 C387.9,864.5 388.7,861.6 386.8,861.2 C372.2,858 357.6,860.1 342.9,861.6 C335.6,862.3 328.3,863 321,862.6 C312.7,862.2 304.7,860 296.6,858.7 C289.8,857.6 283.3,857.6 276.6,859.2 C269.4,861 262.6,863.4 255.2,864.5 C239.4,866.8 223.3,865.2 207.5,863.8 C205.5,863.5 205.6,866.5 207.5,866.7 L207.5,866.7 Z" id="Path"></path>
                    <path d="M365.7,59.8 C361.8,57.1 356.5,52.8 358.1,47.4 C359.8,41.8 364,44.5 367.9,43.2 C373.1,41.5 372.8,35.2 371.3,31.1 C369.8,27.1 366.6,17.4 374.9,20.7 C376.8,21.5 378.2,22.8 380.4,22.1 C382.4,21.5 383.4,19.7 383.9,17.8 C384.3,16.1 384,14.3 383.9,12.5 C383.7,11.3 383.6,10 383.6,8.8 C383.2,5.9 385,4.7 388.8,5.2 C388.9,7.1 391.9,7.1 391.8,5.2 C391.6,2.4 389.5,0.4 386.5,0.5 C383,0.6 381.1,4 380.7,7.2 C380.4,9.4 382.2,14.5 381.2,16.3 C380,17.1 378.8,18 377.5,18.8 C377,18.5 376.5,18.2 376,17.9 C375.1,17.6 374.4,17 373.5,16.8 C370.4,16.1 367.9,18 366.8,20.8 C364.9,25.6 368.3,29.6 369.3,34.1 C370.6,40.3 365.9,39.6 361.8,40.3 C360,40.6 358.5,41.5 357.3,42.8 C351,50.1 358.3,58.2 364.3,62.4 C365.8,63.5 367.3,60.9 365.7,59.8 L365.7,59.8 Z" id="Path"></path>
                    <path d="M385.4,57 C382.1,53.2 379.6,48 386,46 C387.6,45.5 389.4,45.7 390.9,44.7 C394.2,42.4 392.8,39.3 392.2,36.1 C391.9,34.3 391.2,31.9 392.3,30.1 C393.1,28.8 396,28.3 397.5,28 C399.6,27.5 401.8,27.2 403.6,26 C406.3,24.1 407.3,20.7 405.5,17.8 C404.5,16.2 401.9,17.7 402.9,19.3 C405.9,24.1 391.9,25.4 389.5,28.9 C386.7,33 392.6,40.2 387.7,42.8 C385.8,43.8 383.4,43.1 381.6,44.4 C380.3,45.3 379.4,46.7 379,48.2 C377.9,52.5 380.8,56.2 383.4,59.2 C384.6,60.6 386.7,58.5 385.4,57 L385.4,57 Z" id="Path"></path>
                    <path d="M267.3,33.3 C264.7,31.5 264.4,28.3 265.2,25.5 C265.7,23.6 268.1,18.4 270.4,18.2 C274.2,17.8 276.1,22.6 277.1,25.4 C278,28.1 278.3,30.8 278.4,33.6 C278.4,35.5 281.4,35.5 281.4,33.6 C281.3,28 277.6,10.8 268.4,15.8 C264.9,17.7 262.3,23.2 261.9,27 C261.5,30.6 262.9,33.8 265.8,35.9 C267.3,37 268.8,34.4 267.3,33.3 L267.3,33.3 Z" id="Path"></path>
                    <path d="M266.1,34.9 C262.5,35.8 258.9,36.7 255.2,37.6 C253.1,38.1 249.5,38.3 247.8,39.9 C244.9,42.6 245.7,50.9 245.7,54.4 C245.7,55.4 246.7,56.1 247.6,55.8 C248.1,55.7 248.6,55.5 249.2,55.4 C251.8,54 253.1,54.9 253.2,57.9 C255.2,59.9 255.2,61.1 253.2,61.3 C252,61.8 250.8,62 249.5,62 C248.7,62.1 248,62.6 248,63.5 C248.2,69.9 248.7,76.2 249.4,82.6 C249.6,84.5 252.6,84.5 252.4,82.6 C251.7,76.2 251.2,69.9 251,63.5 C250.5,64 250,64.5 249.5,65 C253.7,64.5 260.4,62.8 259.5,57.1 C258.5,51 251.1,51.7 246.9,52.9 C247.5,53.4 248.2,53.9 248.8,54.3 C248.8,52 248.8,49.8 249,47.5 C249.3,43.9 249.1,42.6 252.4,41.3 C256.9,39.5 262.2,38.9 266.9,37.7 C268.8,37.4 268,34.5 266.1,34.9 L266.1,34.9 Z" id="Path"></path>
                    <path d="M280.5,35.8 C284.7,35.6 289,35.6 293.2,36.1 C297.2,36.6 297,37.2 297.6,40.7 C298,42.9 298.1,45.2 298.3,47.4 C299.1,56 299.7,64.6 300.2,73.2 C300.3,75.1 303.3,75.1 303.2,73.2 C302.6,61.5 302.2,49.5 300.3,37.9 C299.8,35 299.3,34.1 296.3,33.6 C291.1,32.6 285.7,32.6 280.5,32.9 C278.6,32.9 278.6,35.9 280.5,35.8 L280.5,35.8 Z" id="Path"></path>
                    <path d="M251.6,84.7 C257.5,83.7 263.4,82.7 269.2,81.7 C275.9,80.6 282.3,81.1 289,80.6 C292.1,80.3 306.8,78.8 301.4,72.7 C300.1,71.3 298,73.4 299.3,74.8 C300.1,75.7 286.5,77.7 286.2,77.7 C282,77.8 277.8,77.6 273.6,78.1 C266,79 258.4,80.6 250.8,81.9 C248.9,82.1 249.7,85 251.6,84.7 L251.6,84.7 Z" id="Path"></path>
                </g>
                <g id="robot" transform="translate(753.000000, 748.000000)">
                    <path d="M29.8,0.6 C29.5,11.1 29.2,21.6 28.9,32.2 C42.2,33.1 55.4,33.9 68.7,34.8 C68.7,24 68.7,13.2 68.7,2.4 C55.7,1.8 42.8,1.2 29.8,0.6 Z" id="Path" stroke="#161616" stroke-width="2" fill="#FFFFFF" fill-rule="nonzero"></path>
                    <path d="M47.1,117.3 C48.9,128.9 49.7,138.5 50.1,145.4 C51.4,168.3 50.4,173.6 48.4,177.8 C43.5,188.1 34.6,192.4 35.4,193.8 C36,194.7 40.4,193.7 60,183.4 C58.8,160.6 57.7,137.9 56.5,115.1 C53.4,115.9 50.3,116.6 47.1,117.3 Z" id="Path" stroke="#161616" stroke-width="2" fill="#FFFFFF" fill-rule="nonzero"></path>
                    <path d="M21.2,43.8 C38.2,43.9 55.2,44.1 72.2,44.2 C70.3,67 68.5,89.7 66.6,112.5 C51.8,111.3 36.9,110.2 22.1,109 C21.7,87.3 21.4,65.6 21.2,43.8 Z" id="Path" stroke="#161616" stroke-width="2" fill="#FFFFFF" fill-rule="nonzero"></path>
                    <path d="M28.1,116.5 C33.5,129.6 35.3,140.9 35.9,148.5 C36.8,159.7 37.4,168.3 32,174 C30,176.2 26.7,178.3 20.3,182.6 C14.6,186.4 11.9,187.8 12.1,188.2 C12.4,188.8 17.9,187.6 41.9,179.1 C43.5,171 44.8,160.6 44.5,148.4 C44.1,135.4 42,124.3 39.7,116 C35.9,116.2 32,116.3 28.1,116.5 Z" id="Path" stroke="#161616" stroke-width="2" fill="#FFFFFF" fill-rule="nonzero"></path>
                    <path d="M36.8,194.7 C39.8,192.2 42.6,189.5 45.3,186.6 C48.4,183.2 53,178 57.8,182.5 C57.9,181.7 58,180.9 58.1,180.1 C51,183.6 44,187.1 36.9,190.5 C35.5,191.2 36.2,193.3 37.7,193.3 C44.4,193.4 48.6,181.7 55.5,183.9 C57.3,184.5 58.1,181.6 56.3,181 C53.3,180.1 51,180.9 48.5,182.7 C45.6,184.8 41.5,190.3 37.8,190.3 C38.1,191.2 38.3,192.2 38.6,193.1 C45.7,189.6 52.7,186.1 59.8,182.7 C60.7,182.3 60.8,181 60.1,180.3 C57.4,177.8 52.6,176.9 49.2,178.5 C46.7,179.6 45.1,182.5 43.3,184.4 C40.6,187.3 37.8,189.9 34.8,192.5 C33.2,193.8 35.3,196 36.8,194.7 L36.8,194.7 Z" id="Path" fill="#161616" fill-rule="nonzero"></path>
                    <path d="M49.1,179.1 C52.1,179.2 55,179.8 57.8,181 C59.5,181.8 61.1,179.2 59.3,178.4 C56,176.9 52.7,176.1 49.1,176 C47.2,176.1 47.2,179.1 49.1,179.1 L49.1,179.1 Z" id="Path" fill="#161616" fill-rule="nonzero"></path>
                    <path d="M32.7,175.6 C35,176.2 37,177.4 38.6,179.2 C39.9,180.6 42,178.5 40.7,177.1 C38.7,175 36.2,173.5 33.4,172.8 C31.7,172.2 30.9,175.1 32.7,175.6 L32.7,175.6 Z" id="Path" fill="#161616" fill-rule="nonzero"></path>
                    <path d="M16.5,187.7 C19.6,185.4 22.8,183.3 26.1,181.3 C27.6,180.4 29.2,179.2 30.8,178.7 C33.3,177.8 34.8,178.4 37.1,179.4 C37.1,178.5 37.1,177.7 37.1,176.8 C33.9,178.2 30.3,178.1 27,179.5 C23.8,180.8 20.8,184 17.5,184.6 C17.9,185.5 18.3,186.4 18.7,187.3 C24.6,184.4 31.2,183.9 37.1,181 C38.8,180.1 37.3,177.6 35.6,178.4 C29.7,181.3 23.1,181.8 17.2,184.7 C15.6,185.5 16.8,187.7 18.4,187.4 C22,186.8 24.9,183.5 28.3,182.2 C31.7,180.9 35.4,180.8 38.7,179.4 C39.7,179 39.7,177.2 38.7,176.8 C34.9,175.1 33.2,174.1 29.4,176.1 C24.4,178.7 19.7,181.8 15.2,185.1 C13.4,186.2 14.9,188.8 16.5,187.7 L16.5,187.7 Z" id="Path" fill="#161616" fill-rule="nonzero"></path>
                    <path d="M33.6,131.8 C36.1,130.9 38.6,131 40.9,132.2 C42.6,133.1 44.1,130.5 42.4,129.6 C39.4,128 36,127.7 32.8,128.9 C31,129.6 31.8,132.5 33.6,131.8 L33.6,131.8 Z" id="Path" fill="#161616" fill-rule="nonzero"></path>
                    <path d="M36.1,141.8 C38.2,141.6 40.2,142.1 41.8,143.5 C43.3,144.7 45.4,142.6 43.9,141.4 C41.7,139.6 39,138.6 36.1,138.8 C34.2,138.9 34.2,141.9 36.1,141.8 L36.1,141.8 Z" id="Path" fill="#161616" fill-rule="nonzero"></path>
                    <path d="M37.2,154.3 C39.1,154.1 40.9,154.8 42,156.4 C43,158 45.6,156.5 44.6,154.9 C43.1,152.4 40.2,150.9 37.3,151.3 C36.5,151.4 35.8,151.9 35.8,152.8 C35.7,153.5 36.4,154.4 37.2,154.3 L37.2,154.3 Z" id="Path" fill="#161616" fill-rule="nonzero"></path>
                    <path d="M50.1,131.1 C51.9,130.1 54.2,130.2 55.9,131.6 C57.4,132.8 59.5,130.7 58,129.5 C55.3,127.3 51.7,126.8 48.6,128.5 C46.9,129.5 48.4,132.1 50.1,131.1 L50.1,131.1 Z" id="Path" fill="#161616" fill-rule="nonzero"></path>
                    <path d="M51.8,150 C53.4,149.3 55.2,149.6 56.5,150.8 C57.9,152.1 60.1,150 58.6,148.7 C56.3,146.6 53.1,146.1 50.2,147.5 C48.5,148.2 50.1,150.8 51.8,150 L51.8,150 Z" id="Path" fill="#161616" fill-rule="nonzero"></path>
                    <path d="M52.2,166 C53.8,165 55.8,165 57.3,166.2 C58.8,167.4 60.9,165.3 59.4,164.1 C56.9,162 53.4,161.7 50.7,163.5 C49.1,164.5 50.6,167.1 52.2,166 L52.2,166 Z" id="Path" fill="#161616" fill-rule="nonzero"></path>
                    <path d="M74.6,44.1 C72.6,67.1 70.6,90.1 68.6,113.1" id="Path" stroke="#161616" stroke-width="6"></path>
                    <path d="M21.8,109.9 C38.5,111.1 55.2,112.2 71.9,113.4" id="Path" stroke="#161616" stroke-width="6"></path>
                    <path d="M72,1.5 C71.6,12.9 71.1,24.2 70.7,35.6" id="Path" stroke="#161616" stroke-width="6"></path>
                    <path d="M74.1,57.6 C83.4,55.9 93.3,63.2 94,72.8 C95,84.8 81.3,86.9 72.3,85.6 C70.4,85.3 69.6,88.2 71.5,88.5 C82.5,90.1 98,87 97,72.8 C96.2,61.1 84.5,52.6 73.3,54.7 C71.4,55 72.2,57.9 74.1,57.6 L74.1,57.6 Z" id="Path" fill="#161616" fill-rule="nonzero"></path>
                    <path d="M71.9,90.9 C75.8,91.7 78.9,94.5 80,98.3 C80.5,100.2 83.4,99.4 82.9,97.5 C81.6,92.7 77.7,88.9 72.8,88 C70.8,87.7 70,90.5 71.9,90.9 L71.9,90.9 Z" id="Path" fill="#161616" fill-rule="nonzero"></path>
                    <path d="M70.4,89.9 C72.8,93.4 73.9,97.3 73.5,101.6 C73.4,103.5 76.4,103.5 76.5,101.6 C76.8,96.9 75.6,92.3 72.9,88.4 C71.9,86.8 69.3,88.3 70.4,89.9 L70.4,89.9 Z" id="Path" fill="#161616" fill-rule="nonzero"></path>
                    <path d="M21.1,56.2 C14.5,52 2.4,64.1 0.9,70 C-2.1,82 13.3,80.6 19.7,84.6 C21.3,85.6 22.8,83 21.2,82 C16.6,79.1 9.8,80.2 5.8,76.6 C0.9,72.2 5.4,66.9 8.8,63.8 C10.6,62.2 16.7,56.9 19.6,58.7 C21.2,59.9 22.8,57.3 21.1,56.2 L21.1,56.2 Z" id="Path" fill="#161616" fill-rule="nonzero"></path>
                    <path d="M19.5,83.2 C16.9,84.2 14.5,85.7 12.5,87.8 C11,89.4 9.1,91.9 10.6,94.1 C11.7,95.7 14.3,94.2 13.2,92.6 C12.5,91.6 15.1,89.4 15.8,88.8 C17.1,87.6 18.6,86.7 20.3,86.1 C22.1,85.4 21.4,82.5 19.5,83.2 L19.5,83.2 Z" id="Path" fill="#161616" fill-rule="nonzero"></path>
                    <path d="M18.3,85.3 C16.4,88.3 15.8,91.7 16.5,95.1 C16.9,97 19.8,96.2 19.4,94.3 C18.8,91.6 19.4,89.1 20.9,86.8 C22,85.2 19.4,83.7 18.3,85.3 L18.3,85.3 Z" id="Path" fill="#161616" fill-rule="nonzero"></path>
                    <path d="M27.8,54.3 C27.3,61.6 27.4,69 27.9,76.3 C28.1,78.2 31.1,78.2 30.9,76.3 C30.3,69 30.3,61.6 30.8,54.3 C31,52.4 28,52.4 27.8,54.3 L27.8,54.3 Z" id="Path" fill="#161616" fill-rule="nonzero"></path>
                    <path d="M30,55.1 C40.6,55.7 51.1,56.1 61.7,56.3 C61.2,55.8 60.7,55.3 60.2,54.8 C59.9,62.3 59.6,69.9 59.2,77.4 C59.1,79.3 62.1,79.3 62.2,77.4 C62.5,69.9 62.8,62.3 63.2,54.8 C63.2,54 62.5,53.3 61.7,53.3 C51.1,53.1 40.6,52.7 30,52.1 C28.1,52 28.1,55 30,55.1 L30,55.1 Z" id="Path" fill="#161616" fill-rule="nonzero"></path>
                    <path d="M28.8,77.6 C33.2,78.8 38.1,78.5 42.5,78.8 C47.9,79.1 53.4,79.5 58.8,79.8 C60.7,79.9 60.7,76.9 58.8,76.8 C54,76.5 49.2,76.2 44.4,75.9 C39.6,75.6 34.2,75.9 29.5,74.7 C27.8,74.2 27,77.1 28.8,77.6 L28.8,77.6 Z" id="Path" fill="#161616" fill-rule="nonzero"></path>
                    <path d="M32.2,93.1 C34,97 37.9,93.6 40.9,95 C42.3,95.6 42,96.5 43.9,96.6 C46.1,96.7 51.5,92.3 52.6,96.4 C52.9,97.5 54.3,97.8 55.1,97.1 C56.1,96.8 57.2,96.5 58.2,96.3 C59.4,97.8 61.6,95.6 60.3,94.2 C58,91.5 55.1,93 52.9,95 C53.7,95.2 54.6,95.4 55.4,95.7 C54.5,92.2 50.8,89.9 47.3,91.5 C45.6,92.3 45.4,93.8 42.8,92.8 C42.3,92.6 42.1,91.8 41.6,91.6 C40.5,91.2 34.7,91.8 34.7,91.7 C34,89.8 31.4,91.3 32.2,93.1 L32.2,93.1 Z" id="Path" fill="#161616" fill-rule="nonzero"></path>
                    <path d="M37.5,14.4 C37.7,13.3 39,13 39.9,13.4 C41.2,13.9 41.9,15.4 42.5,16.5 C43.3,18.2 45.9,16.7 45.1,15 C44,12.8 42.3,10.5 39.6,10.2 C37.4,10 35.1,11.3 34.7,13.5 C34.2,15.5 37.1,16.3 37.5,14.4 L37.5,14.4 Z" id="Path" fill="#161616" fill-rule="nonzero"></path>
                    <path d="M55.9,15.8 C56.1,14.8 57,14.2 58,14.6 C59.2,15 59.7,16.5 59.9,17.6 C60.2,19.5 63.1,18.7 62.8,16.8 C62.4,14.4 60.8,11.9 58.2,11.5 C55.9,11.2 53.4,12.6 53,15 C52.7,16.9 55.6,17.7 55.9,15.8 L55.9,15.8 Z" id="Path" fill="#161616" fill-rule="nonzero"></path>
                    <path d="M39,20.7 C42.4,26.7 50.5,27.6 54.9,22.2 C56.1,20.7 54,18.6 52.8,20.1 C49.6,24 44.1,23.7 41.6,19.2 C40.7,17.5 38.1,19 39,20.7 L39,20.7 Z" id="Path" fill="#161616" fill-rule="nonzero"></path>
                </g>
                <g id="lightbulb" transform="translate(579.000000, 0.000000)" fill="#161616" fill-rule="nonzero">
                    <path d="M108.1,225.3 C95.5,220.2 87.9,208 83.3,195.8 C78.4,183.1 76.3,169.3 77,155.7 C78.2,130.6 88.9,105.2 108.7,89.2 C127.4,74 155.1,69.7 175.9,83.5 C197.6,97.9 201.5,127.6 201.7,151.5 C201.9,178.1 195.7,206 176,225.1 C174.6,226.4 176.7,228.6 178.1,227.2 C196.8,209 203.9,183 204.6,157.6 C205.3,132.7 202.3,101.2 181.8,84.1 C162.6,68.1 134.1,68.9 113.6,81.9 C90.9,96.3 77.5,122.4 74.6,148.7 C72.8,165 74.8,181.9 80.8,197.3 C85.9,210.3 94,222.7 107.4,228.1 C109.1,228.9 109.8,226 108.1,225.3 L108.1,225.3 Z" id="Path"></path>
                    <path d="M106.7,227.2 C103.3,232 104,239.1 109,242.7 C112.8,245.4 118.4,245.8 122.9,246.4 C128.3,247.2 133.8,247.5 139.3,247.5 C149.1,247.4 160.3,246.7 169.4,242.9 C176,240.1 181,233.5 177.5,226.4 C176.7,224.7 174.1,226.2 174.9,227.9 C182.4,243.2 146.9,244.5 139.2,244.5 C132.1,244.5 125,243.9 118.1,242.6 C114.8,242 111.1,241.4 109,238.5 C106.9,235.5 107.3,231.6 109.3,228.8 C110.4,227.1 107.8,225.6 106.7,227.2 L106.7,227.2 Z" id="Path"></path>
                    <path d="M109.9,243.4 C109.9,248.4 110,253.5 110.6,258.5 C110.9,260.8 111.4,262.8 113.3,264.2 C116,266.2 120.5,266.1 123.7,266.4 C129.1,266.8 134.6,266.8 140,266.6 C145.1,266.4 150.2,266 155.3,265.5 C158.3,265.2 161.7,265.3 164,263 C169.1,258 169.2,248.5 167.9,242.2 C167.5,240.3 164.6,241.1 165,243 C165.7,246.4 165.9,249.8 165.2,253.3 C164.2,258.2 162.8,261.4 157.3,262.4 C150.9,263.6 143.7,263.6 137.2,263.7 C130.8,263.8 123.6,264.1 117.3,262.6 C111.5,261.2 113,248.2 113,243.4 C112.9,241.5 109.9,241.5 109.9,243.4 L109.9,243.4 Z" id="Path"></path>
                    <path d="M110.9,135.7 C122.9,143.2 132,154.2 137.1,167.4 C137.8,169.2 140.7,168.4 140,166.6 C134.6,152.6 125.1,141 112.5,133.1 C110.8,132 109.3,134.6 110.9,135.7 L110.9,135.7 Z" id="Path"></path>
                    <path d="M139.5,167.4 C145.4,155 154,144.4 165,136.2 C166.5,135.1 165,132.4 163.5,133.6 C152.1,142.1 143.1,153.1 136.9,165.9 C136.1,167.6 138.7,169.1 139.5,167.4 L139.5,167.4 Z" id="Path"></path>
                    <path d="M137.1,163.9 C138.6,184.5 139.3,205.1 139,225.7 C139,227.6 142,227.6 142,225.7 C142.3,205.1 141.6,184.4 140.1,163.9 C139.9,161.9 136.9,161.9 137.1,163.9 L137.1,163.9 Z" id="Path"></path>
                    <path d="M20,214.3 C33.3,209.8 46.5,205.3 59.8,200.8 C61.6,200.2 60.8,197.3 59,197.9 C45.7,202.4 32.5,206.9 19.2,211.4 C17.3,212 18.1,214.9 20,214.3 L20,214.3 Z" id="Path"></path>
                    <path d="M35.2,194.3 C39.8,193 44.4,191.6 49,190.3 C50.8,189.8 50.1,186.9 48.2,187.4 C43.6,188.7 39,190.1 34.4,191.4 C32.6,192 33.3,194.9 35.2,194.3 L35.2,194.3 Z" id="Path"></path>
                    <path d="M1.9,161 C19.5,160.8 37,161.3 54.5,162.4 C56.4,162.5 56.4,159.5 54.5,159.4 C37,158.3 19.4,157.9 1.9,158 C0,158 0,161 1.9,161 L1.9,161 Z" id="Path"></path>
                    <path d="M39.1,147.4 C43.3,148.5 47.6,149 51.9,149.1 C53.8,149.1 53.8,146.1 51.9,146.1 C47.8,146 43.8,145.5 39.9,144.5 C38,144 37.2,146.9 39.1,147.4 L39.1,147.4 Z" id="Path"></path>
                    <path d="M32.6,54.3 C48.3,67.8 62.6,82.6 75.5,98.8 C76.7,100.3 78.8,98.2 77.6,96.7 C64.7,80.5 50.4,65.6 34.7,52.2 C33.3,50.9 31.1,53 32.6,54.3 L32.6,54.3 Z" id="Path"></path>
                    <path d="M76.5,82.7 C79.2,85.5 81.8,88.3 84.5,91.2 C85.8,92.6 87.9,90.5 86.6,89.1 C83.9,86.3 81.3,83.5 78.6,80.6 C77.3,79.2 75.2,81.3 76.5,82.7 L76.5,82.7 Z" id="Path"></path>
                    <path d="M15.6,88.3 C20.5,91.2 25.5,93.9 30.6,96.4 C32.3,97.3 33.8,94.7 32.1,93.8 C27,91.2 22,88.5 17.1,85.7 C15.4,84.7 13.9,87.3 15.6,88.3 L15.6,88.3 Z" id="Path"></path>
                    <path d="M189.6,65.5 C204.4,50.7 219.2,35.9 234,21.1 C235.4,19.7 233.2,17.6 231.9,19 C217.1,33.8 202.3,48.6 187.5,63.4 C186.1,64.8 188.2,66.9 189.6,65.5 L189.6,65.5 Z" id="Path"></path>
                    <path d="M204.5,72.4 C208.3,69.6 212.1,66.9 215.9,64.1 C217.4,63 216,60.4 214.4,61.5 C210.6,64.3 206.8,67 203,69.8 C201.4,70.9 202.9,73.5 204.5,72.4 L204.5,72.4 Z" id="Path"></path>
                    <path d="M143.4,45.9 C146.4,31.4 148.7,16.8 150.1,2.1 C150.3,0.2 147.3,0.2 147.1,2.1 C145.7,16.5 143.5,30.9 140.5,45.1 C140.1,47 143,47.8 143.4,45.9 L143.4,45.9 Z" id="Path"></path>
                    <path d="M227.5,137.9 C254.7,135.4 281.8,132.9 309,130.4 C310.9,130.2 310.9,127.2 309,127.4 C281.8,129.9 254.7,132.4 227.5,134.9 C225.6,135 225.5,138 227.5,137.9 L227.5,137.9 Z" id="Path"></path>
                    <path d="M113.2,230.8 C130.1,234.5 147.3,234.4 164.1,230.6 C166,230.2 165.2,227.3 163.3,227.7 C147,231.4 130.3,231.5 114,227.9 C112.1,227.5 111.3,230.4 113.2,230.8 L113.2,230.8 Z" id="Path"></path>
                    <path d="M115.7,256.2 C128.6,257.9 141.5,258.3 154.5,257.4 C156.4,257.3 156.4,254.3 154.5,254.4 C141.5,255.3 128.6,254.9 115.7,253.2 C113.8,253 113.8,256 115.7,256.2 L115.7,256.2 Z" id="Path"></path>
                    <path d="M208.6,220.7 C228.9,235 249.6,248.8 270.6,262.1 C272.2,263.1 273.7,260.5 272.1,259.5 C251.1,246.2 230.4,232.4 210.1,218.1 C208.5,217 207,219.6 208.6,220.7 L208.6,220.7 Z" id="Path"></path>
                </g>
                <g id="leg_l" transform="translate(442.000000, 710.000000)" fill-rule="nonzero">
                    <path d="M90.1,214.1 C71.1,237.4 52.2,260.6 33.2,283.9 C55.5,362.3 68.1,382.9 75.6,381.8 C81,381 83.6,369.3 86.5,356.2 C93.7,323.5 89.4,295.4 85,277.9 C97,264.5 108.9,251 120.9,237.6 C110.6,229.8 100.4,222 90.1,214.1 Z" id="Path" stroke="#161616" stroke-width="2" fill="#161616"></path>
                    <path d="M20,94.1 C31.9,103.3 43.3,100 66.9,104 C87,107.4 109.6,114.9 133.6,129.9 C108,159.9 82.4,191.6 57,225 C50.9,233.1 44.8,241.2 38.9,249.3 C48.7,251.6 60.5,255.2 73.3,261 C85.8,266.6 96,272.9 104.1,278.6 C142.2,245.4 176.2,213.3 206.5,183 C220.5,169 240.3,147.6 243.4,117.3 C243.6,115.6 243.6,114.1 243.6,112.6 C242.9,62.3 179.6,25.9 141.1,12.5 C99,-2.1 26.6,-10 6.4,24.9 C-5.5,45.5 1.5,79.8 20,94.1 Z" id="Path" fill="#4C4C4C"></path>
                    <path d="M93.9,43.8 C93.2,53.3 91.5,64.6 88,77.1 C85.5,86 82.5,93.9 79.5,100.6 C76.2,101.9 73,103.2 69.7,104.5 C91.2,113 112.8,121.5 134.3,130 C118.3,148.3 102.2,167.5 86,187.5 C69.3,208.1 53.4,228.3 38.3,248.2 C49,251.7 59.6,255.2 70.3,258.6 C108.6,216.4 146.9,174.1 185.2,131.9 C189.2,120.4 189,111.4 187.8,105.1 C182.3,74.3 144.6,49.2 93.9,43.8 Z" id="Path" fill="#282828" opacity="0.29"></path>
                    <path d="M134.1,129.8 C137.6,135.1 141,140.5 144.5,145.8 C114.7,181.7 84.9,217.5 55.1,253.4 C49.8,252 44.4,250.5 39.1,249.1 C58.2,222.9 78.8,196 101.1,168.9 C112.2,155.4 123.2,142.4 134.1,129.8 Z" id="Path" fill="#111111" opacity="0.24"></path>
                </g>
                <g id="leg_r" transform="translate(252.000000, 708.000000)" fill-rule="nonzero">
                    <path d="M224.6,178.1 C254.1,183.5 283.7,188.8 313.2,194.2 C347.3,268.6 351.1,292.6 344.7,296.7 C340.1,299.6 330.5,292.4 319.8,284.3 C293,264 278.1,239.8 270,223.5 C252.2,221.1 234.4,218.6 216.6,216.2 C219.2,203.5 221.9,190.8 224.6,178.1 Z" id="Path" stroke="#161616" stroke-width="2" fill="#161616"></path>
                    <path d="M163.8,12.4 C110,28.2 77.2,61 56.1,82.6 C27.6,111.9 -7.4,147.8 2.7,174.3 C7.9,187.8 23.7,196.1 97.3,208.9 C152.9,218.6 201.1,223.8 238.7,226.7 C243.4,209.5 248.1,192.4 252.7,175.2 C214.9,163 177.2,150.9 139.4,138.7 C162.6,133.8 187,128 212.4,120.9 C231.7,115.5 250.1,109.9 267.6,104 C283.8,71.3 287.3,36 270.4,16 C246.8,-12 193.9,3.5 163.8,12.4 Z" id="Path" fill="#4C4C4C"></path>
                    <path d="M283.5,47 C283,56.9 281.3,69.6 276.7,83.6 C273.9,92.1 270.7,99.5 267.5,105.6 C264.8,105.8 262.1,106.1 259.4,106.3 C236.6,113.8 212.3,120.9 186.6,127.5 C170,131.8 153.8,135.5 138.1,138.9 C176,150.8 213.9,162.6 251.8,174.5 C251,178.6 250,182.9 248.8,187.4 C247.4,192.6 245.8,197.4 244.3,201.8 C192,188.9 139.7,176 87.4,163.1 C85,160.2 77.1,149.7 78.3,135.8 C79.6,120.7 94,110 112.4,100.2 C165.6,72 254.8,52.9 283.5,47 Z" id="Path" fill="#282828" opacity="0.29"></path>
                    <path d="M111.2,141 C120.7,140.3 130.3,139.6 139.8,138.8 C177.1,151.2 214.4,163.7 251.7,176.1 C250.1,182 248.5,188 246.9,193.9 C201.7,176.2 156.4,158.6 111.2,141 Z" id="Path" fill="#111111" opacity="0.24"></path>
                </g>
                <g id="torso" transform="translate(401.000000, 468.000000)" fill-rule="nonzero">
                    <path d="M0.7,25.8 C15.5,17.1 41.2,4.7 75.4,1.1 C127.8,-4.4 168,14.4 183.9,22.9 C181,62.2 176.5,93.6 172.9,115.2 C168.6,141 165.1,155.3 163.5,179 C161.5,208.7 164,233.1 166.3,249.1 C148.9,254.5 122.6,260.4 90.2,259.7 C59,259 33.8,252.2 16.9,246.3 C21.4,210.5 19.9,182.1 17.7,162.8 C15.2,141.3 11.8,130.8 7.7,104.8 C2.4,71.2 1,43.7 0.7,25.8 Z" id="Path" stroke="#161616" stroke-width="2" fill="#FFFFFF"></path>
                    <path d="M108.9,13 C111,20.6 113.4,31.1 115,43.7 C116.1,52.2 120.6,90.7 106.6,141.5 C98,172.8 88.9,205.9 59.1,233.1 C49.5,241.9 40.2,247.8 33.4,251.5 C48.5,255.4 68.2,259.1 91.5,259.3 C122,259.6 147.2,254.1 164.7,248.7 C163.7,241.2 162.4,229.9 161.9,216.3 C161.5,204.4 161.5,185.4 169.7,131.9 C176.2,89.8 180.8,71.7 183.1,33.6 C183.4,29.2 183.5,25.5 183.7,23 C176.4,18.7 166.9,14 155.2,10.2 C144.4,6.7 134.7,4.9 126.7,4.1 C120.9,7 114.9,10 108.9,13 Z" id="Path" fill="#6D6C6C" opacity="0.14"></path>
                    <path d="M180.8,39.3 C175.2,71 167.8,96.6 162,114.4 C145,166.4 133.1,201.4 101,227 C81.1,242.9 60.4,249.6 47.1,252.8 C60.6,256.6 79.7,260.3 102.8,259.8 C129.4,259.2 150.9,253.2 165,248.1 C163.1,235.9 160.9,217.6 161.5,195.3 C162.2,166.4 166.9,149 172.1,117.3 C175,98.7 178.7,72.1 180.8,39.3 Z" id="Path" fill="#6D6C6C" opacity="0.17"></path>
                </g>
                <g id="hand_r" transform="translate(325.000000, 493.000000)" fill-rule="nonzero">
                    <path d="M76.1,0.3 C63.1,9.3 46.4,23.5 31.8,44.6 C-1.1,92.4 -0.2,143.1 1.1,161.8 C7.1,177.9 17.4,199 35.4,219.7 C45.9,231.8 61.3,249.2 87.6,260.4 C96.4,264.2 104.1,266.3 109.7,267.5 C114.5,263.2 119.2,258.9 124,254.6 C108.6,236.6 93.1,217.7 77.6,198.2 C65.7,183.3 54.3,168.5 43.3,153.9 C43.7,141.6 46.3,119.3 59.7,96 C67.3,82.8 76.2,73.2 83.3,66.7 C80.9,44.6 78.5,22.5 76.1,0.3 Z" id="Path" stroke="#161616" stroke-width="2" fill="#FFFFFF"></path>
                    <path d="M78,22.6 C49.2,55.1 35.5,85.9 28.7,105.3 C16.8,138.9 19.3,156.5 21.1,164.9 C22.6,171.5 25.9,182.8 38,200 C48.5,214.9 70.6,241.6 112.7,263.6 C116.4,260 120.1,256.5 123.8,252.9 C111.9,239.5 99.9,225.4 87.8,210.7 C71.9,191.4 57.1,172.4 43.4,153.8 C43.8,143.7 45.5,129.6 51.4,113.8 C60.3,90.1 74.3,74.5 83,66.2 C81.2,51.7 79.6,37.2 78,22.6 Z" id="Path" fill="#6D6C6C" opacity="0.13"></path>
                    <path d="M43.3,155.1 C45.1,166.8 48.8,181.7 56.6,197.8 C73.8,232.8 100.7,252.1 114.4,260.5 C117.1,258.1 119.7,255.8 122.4,253.4 C96,220.6 69.7,187.8 43.3,155.1 Z" id="Path" fill="#6D6C6C" opacity="0.16"></path>
                </g>
                <g id="hand_l" transform="translate(532.000000, 491.000000)" fill-rule="nonzero">
                    <path d="M54.4,0.5 C69,9.4 87.8,23.3 104.1,44 C141.1,90.9 140,140.7 138.6,159.1 C131.8,174.9 120.3,195.6 100.1,216 C88.3,227.8 71,244.9 41.5,256 C31.6,259.7 22.9,261.8 16.6,263 C11.3,258.8 5.9,254.6 0.6,250.4 C17.8,232.7 35.3,214.2 52.7,195 C66,180.3 78.8,165.8 91.2,151.5 C90.7,139.5 87.9,117.6 72.8,94.6 C64.2,81.6 54.3,72.2 46.3,65.8 C49.1,44 51.8,22.3 54.4,0.5 Z" id="Path" stroke="#161616" stroke-width="2" fill="#FFFFFF"></path>
                    <path d="M53.7,24.8 C66.4,38.1 83.7,59.4 97.2,89.1 C103.6,103.2 114,126.1 114.2,147.7 C114.9,213.4 21.9,258.6 16.5,261.2 C11.2,257.8 6,254.5 0.7,251.1 C30.8,218.1 60.8,185.1 90.9,152.1 C90.3,141.3 87.8,121.2 75.8,99.8 C65.9,82.2 53.6,70.8 45.5,64.5 C48.3,51.3 51,38.1 53.7,24.8 Z" id="Path" fill="#6D6C6C" opacity="0.16"></path>
                    <path d="M91.9,152.4 C90.4,161.1 87.9,170.6 84,180.4 C66.4,224.8 30.8,249.1 12.8,259.5 C8.5,256.7 4.3,253.9 0,251.1 C30.6,218.2 61.2,185.3 91.9,152.4 Z" id="Path" fill="#6D6C6C" opacity="0.12"></path>
                </g>
                <g id="laptop" transform="translate(363.000000, 649.000000)" fill-rule="nonzero">
                    <rect id="Rectangle" stroke="#161616" stroke-width="2" fill="#FFFFFF" x="0.5" y="1.8" width="245.9" height="155.7"></rect>
                    <path d="M119.9,94.5 C106.9,96.1 100.6,80.3 104,69.8 C107.3,59.4 119.6,54.5 129.6,58.1 C139.5,61.7 144.3,73.8 140.8,83.5 C136.9,94.3 123.3,98.7 113.3,93.9 C111.6,93.1 110,95.7 111.8,96.5 C120.7,100.8 131.6,99.2 138.7,92.2 C145.6,85.3 146.6,74.4 142.3,65.9 C132.5,46.5 102.2,52.7 100.1,74 C99,85.4 107.2,99.1 119.9,97.6 C121.8,97.3 121.8,94.3 119.9,94.5 L119.9,94.5 Z" id="Path" fill="#161616"></path>
                    <path d="M92.8,1.4 C126.1,13 148.8,42.7 149.5,74.6 C150.4,114.6 116.8,152.2 71,156 C129.3,156.5 187.6,157 246,157.5 C245.8,105.3 245.7,53.1 245.5,1 C194.6,1 143.7,1.2 92.8,1.4 Z" id="Path" fill="#6D6C6C" opacity="0.14"></path>
                    <path d="M246,0.9 C245.1,32.7 238.8,57.5 233.5,73.8 C225.7,97.5 220.1,114.8 204,130.1 C182.1,151.1 154.8,155 142.8,156 C176.9,156.3 211,156.6 245.1,157 C245.2,127.3 245.4,97.6 245.6,67.8 C245.6,45.5 245.8,23.2 246,0.9 Z" id="Path" fill="#6D6C6C" opacity="0.26"></path>
                </g>
                <g id="head" transform="translate(396.000000, 271.000000)" fill-rule="nonzero">
                    <path d="M83.2,142.1 C77.7,148.8 83,157 82,178.9 C81.5,189.8 79.7,198.6 78.3,204.5 C83,206.7 91.3,209.8 102,210.1 C115.2,210.4 125.2,206.3 130.1,203.9 C127.9,199.5 125,192.7 123.2,183.9 C118.7,161.5 126.7,151 120.1,142.7 C112.4,133.1 90.6,133 83.2,142.1 Z" id="Path" stroke="#161616" stroke-width="2" fill="#FFFFFF"></path>
                    <path d="M48.3,45.9 C42,62.1 44.4,76.7 45.8,83 C45.2,83.1 33.5,85.6 30.3,94.6 C27.1,103.7 33.7,116.6 47.5,120.8 C52.5,133 64.6,156.6 90.1,169.5 C94.4,171.6 98.5,173.3 102.6,174.5 C106.3,173.1 111.3,170.9 117,167.6 C134.8,157.3 144.7,144.5 147,141.4 C151.2,135.8 156.9,126.8 160.9,114.4 C163.1,114.8 167,115 170.8,113.1 C179.4,108.7 183.7,95 177.7,86.1 C172.7,78.7 163,78.4 161.8,78.4 C163.1,73.2 167.1,54.5 157,36 C145.4,14.7 120.5,3.5 97.1,6.7 C62.5,11.2 48.9,44.3 48.3,45.9 Z" id="Path" stroke="#161616" stroke-width="2" fill="#FFFFFF"></path>
                    <path d="M81.9,168.6 C88,172.2 94.7,177.8 102.2,177.2 C108.4,176.7 115.3,173.1 120,169.3 C121.5,168.1 119.4,166 117.9,167.2 C113.5,170.7 106.4,174.4 100.6,174.3 C94.5,174.2 88.3,169.1 83.3,166 C81.8,165 80.3,167.6 81.9,168.6 L81.9,168.6 Z" id="Path" fill="#161616"></path>
                    <path d="M81.5,169.9 C87.2,174.8 93.7,180.3 101.7,179.9 C109.5,179.5 116.8,174.3 121.9,168.7 C123.2,167.3 121.1,165.2 119.8,166.6 C115.4,171.4 109.2,176.1 102.4,176.8 C94.9,177.5 88.9,172.4 83.6,167.8 C82.2,166.5 80.1,168.6 81.5,169.9 L81.5,169.9 Z" id="Path" fill="#161616"></path>
                    <path d="M85.3,170.5 C85.3,170.4 85.3,170.4 85.3,170.5 C84.7,169.6 83.6,169.4 82.9,170.1 C82.9,170.1 82.9,170.1 82.8,170.2 C82.2,170.7 82.2,171.8 82.8,172.3 C93.8,182.8 114,186.2 121.9,170.1 C122.7,168.4 120.2,166.8 119.3,168.6 C112.3,183 94.6,179.5 85,170.2 C85,170.9 85,171.6 85,172.3 C85,172.3 85,172.3 85.1,172.2 C84.3,172.1 83.5,172 82.7,171.9 C82.7,171.9 82.7,172 82.7,172 C83.7,173.6 86.3,172.1 85.3,170.5 L85.3,170.5 Z" id="Path" fill="#161616"></path>
                    <path d="M97.3,78 C96,94.2 96.7,110.3 99.3,126.3 C99.4,127.1 100.4,127.6 101.1,127.3 C105,126 107.8,123.7 109.9,120.2 C110.9,118.5 108.3,117 107.3,118.7 C105.6,121.6 103.5,123.3 100.3,124.4 C100.9,124.7 101.5,125.1 102.1,125.4 C99.5,109.7 98.9,93.8 100.2,77.9 C100.5,76 97.5,76 97.3,78 L97.3,78 Z" id="Path" fill="#161616"></path>
                    <path d="M79.5,93.9 C79.7,94.8 81.2,100.4 79.5,101.3 C77.8,102.2 73,98.6 71.5,93.9 C70.3,89.9 71.3,84.9 73.2,84.5 C75.2,84 78.3,89.5 79.5,93.9 Z" id="Path" stroke="#161616" fill="#161616"></path>
                    <path d="M131.1,93.9 C131.3,94.8 132.8,100.4 131.1,101.3 C129.4,102.2 124.6,98.6 123.1,93.9 C121.9,89.9 122.9,84.9 124.8,84.5 C126.8,84 129.9,89.5 131.1,93.9 Z" id="Path" stroke="#161616" fill="#161616"></path>
                    <path d="M93.7,139.5 C105.9,144.7 117,137.4 126,129.5 C127.5,128.2 125.3,126.1 123.9,127.4 C116.1,134.2 106.1,141.5 95.3,136.9 C93.4,136.2 91.9,138.8 93.7,139.5 L93.7,139.5 Z" id="Path" fill="#161616"></path>
                    <path d="M128.9,109.8 C130.8,109.8 130.8,106.8 128.9,106.8 C127,106.8 127,109.8 128.9,109.8 L128.9,109.8 Z" id="Path" fill="#161616"></path>
                    <path d="M140,104.2 C140.1,104.1 140.2,104 140.3,103.9 C140.9,103.3 140.9,102.4 140.3,101.8 C139.7,101.2 138.8,101.2 138.2,101.8 C138.1,101.9 138,102 137.9,102.1 C137.3,102.7 137.3,103.6 137.9,104.2 C138.5,104.8 139.4,104.8 140,104.2 L140,104.2 Z" id="Path" fill="#161616"></path>
                    <path d="M136.7,111.5 C136.8,111.5 136.9,111.5 137,111.5 C137.8,111.5 138.5,110.8 138.5,110 C138.5,109.2 137.8,108.5 137,108.5 C136.9,108.5 136.8,108.5 136.7,108.5 C135.9,108.5 135.2,109.2 135.2,110 C135.2,110.8 135.8,111.5 136.7,111.5 L136.7,111.5 Z" id="Path" fill="#161616"></path>
                    <path d="M67.7,76 C71.5,72.8 77.1,72.7 80.9,75.8 C82.4,77 84.5,74.9 83,73.7 C77.8,69.5 70.6,69.5 65.5,73.9 C64.1,75.1 66.3,77.2 67.7,76 L67.7,76 Z" id="Path" fill="#161616"></path>
                    <path d="M116.5,74.9 C120.8,71.1 126.9,70.4 132,73.1 C133.7,74 135.2,71.4 133.5,70.5 C127.2,67.1 119.7,68 114.4,72.8 C112.9,74.1 115,76.2 116.5,74.9 L116.5,74.9 Z" id="Path" fill="#161616"></path>
                    <path d="M68.5,109.5 C70.4,109.5 70.4,106.5 68.5,106.5 C66.6,106.5 66.6,109.5 68.5,109.5 L68.5,109.5 Z" id="Path" fill="#161616"></path>
                    <path d="M79.1,108.1 C81,108.1 81,105.1 79.1,105.1 C77.2,105.1 77.2,108.1 79.1,108.1 L79.1,108.1 Z" id="Path" fill="#161616"></path>
                    <path d="M73.8,110.4 C73.7,110.5 73.6,110.6 73.5,110.7 C72.9,111.3 72.9,112.2 73.5,112.8 C74.1,113.4 75,113.4 75.6,112.8 C75.7,112.7 75.8,112.6 75.9,112.5 C76.5,111.9 76.5,111 75.9,110.4 C75.3,109.8 74.4,109.8 73.8,110.4 L73.8,110.4 Z" id="Path" fill="#161616"></path>
                    <path d="M64.6,13.4 C58.6,17.1 45.5,25.2 36.6,41.8 C27.7,58.3 27.8,73.9 28.2,80.6 C13.6,106.9 7,130.1 3.8,145.9 C-1.4,171 1.4,180.2 5,186.3 C13.8,201.3 31.5,205 35.8,205.9 C57.9,210.6 75.5,199.3 79.5,196.7 C80.6,193.4 81.7,189.3 82.3,184.7 C83.4,176.8 82.8,170 81.9,165.1 C76.9,161 71.1,155.5 65.5,148.3 C57,137.3 52.2,126.5 49.5,118.7 C40.7,117.8 34.1,111.8 33.5,105.1 C32.9,98.8 37.3,90.7 43.1,90.7 C47.4,90.7 50.5,95.1 51.1,95.9 C54.4,94 59,90.7 63.1,85.5 C69,78 70,71.3 72.7,64.3 C75.3,57.5 80.3,48.1 91.1,38.3 C101.5,42 109.8,45.6 115.5,48.3 C133.8,56.8 144.2,61.8 152.3,72.7 C156.8,78.7 159.1,84.6 160.3,88.3 C169.6,81.2 173.4,83.1 174.2,83.5 C180.1,86.8 179.9,104.9 170.7,109.9 C167.2,111.8 163.2,111.3 160.7,110.7 C157.8,120.8 151.4,137.3 136.7,151.9 C131.8,156.8 126.8,160.6 122.3,163.5 C121.9,167.2 121.7,172.3 122.7,178.3 C123.6,183.8 125.2,188.3 126.7,191.5 C151,207.5 181.2,204.6 197.6,187.4 C212.2,172 212.2,148.7 206.7,132.8 C201.7,118.3 192,109.6 187.2,105.8 C188.5,100.2 195.7,67 174.8,36.5 C169.4,28.6 154.3,9.5 127.1,2.9 C98.3,-4.1 74.6,7.3 64.6,13.4 Z" id="Path" fill="#191919"></path>
                    <path d="M128,54.5 C139.3,68.7 142.3,81.8 143.3,88.6 C147.4,117.2 130.8,140.4 122.4,152.3 C115.5,162 108.4,168.9 103.3,173.4 C107.7,185.2 112,196.9 116.4,208.7 C120.9,207.2 125.4,205.7 129.9,204.2 C127.8,200.5 125.6,195.9 123.9,190.3 C120.8,180.3 120.6,171.5 120.9,165.5 C126.4,161.6 132.8,156.3 139,149.3 C151.4,135.3 157.6,120.9 160.8,111.2 C162.8,111.6 167.1,112.1 171.2,109.8 C179.8,104.9 178.4,92.7 178.3,91.9 C178,89.3 177.4,85.1 174.4,83.4 C170.9,81.5 165.1,83.3 160.5,88.7 C159.1,83.8 155.1,72.5 144.3,63.5 C138.3,58.5 132.2,55.9 128,54.5 Z" id="Path" fill="#6D6C6C" opacity="0.17"></path>
                    <path d="M98.7,78.9 C98.1,78.8 96.1,87.5 90,125.9 C93.5,125.9 97,125.9 100.5,125.9 C99.8,120.8 99,113.4 98.6,104.4 C98.1,89 99.3,79 98.7,78.9 Z" id="Path" fill="#6D6C6C" opacity="0.19"></path>
                    <path d="M186.6,106.8 C184.9,107.8 191.3,116.4 190.4,129.2 C190.1,133.2 189.5,142.3 182.3,148.4 C181.8,148.8 171.1,157.6 160.5,152 C154.2,148.7 150.4,141.7 150.6,134.1 C147.6,139.7 142.7,147.1 135,154.3 C130.2,158.8 125.5,162.1 121.4,164.6 C121.1,169 121.1,175 122.7,181.8 C123.6,185.5 124.7,188.7 125.8,191.3 C128.9,193.3 133.5,196 139.5,198.1 C143.3,199.4 164.2,206.7 184.6,196.6 C188.2,194.8 196.2,190.7 202,181.9 C202.7,180.8 205.3,176.9 207.2,170.3 C214,147.7 204,127.3 203.1,125.6 C197.6,114.5 188.7,105.6 186.6,106.8 Z" id="Path" fill="#282828" opacity="0.54"></path>
                    <path d="M49.4,119.1 C48.5,119.2 50.5,127.4 48.3,135.5 C46.7,141.5 41.6,151.3 32.9,153.3 C23.8,155.3 12.5,148.6 7.3,136.1 C4.9,141.6 1.7,150.4 1.2,161.6 C0.9,168.9 0.5,176.7 4.1,184.4 C12.2,201.6 36,208.3 53.7,206.7 C65.5,205.6 74.4,201 79.2,197.9 C80.4,194.5 81.6,190.4 82.4,185.7 C83.7,177.6 83.4,170.5 82.7,165.3 C74.8,159.6 69.4,153.7 66,149.4 C61.2,143.3 54.7,135.1 51.4,123.7 C50.9,122.4 50,119 49.4,119.1 Z" id="Path" fill="#282828" opacity="0.35"></path>
                </g>
            </g>
        </g>
    </g>
</svg>