<?xml version="1.0" encoding="UTF-8"?>
<svg width="16px" height="16px" viewBox="0 0 16 16" version="1.1" xmlns="http://www.w3.org/2000/svg" xmlns:xlink="http://www.w3.org/1999/xlink">
    <title>favicon-16x16</title>
    <g id="favicon-16x16" stroke="none" stroke-width="1" fill="none" fill-rule="evenodd">
        <rect fill="#1B1A1A" x="0" y="0" width="16" height="16"></rect>
        <g id="Group" transform="translate(8.500000, 8.000000) scale(-1, 1) translate(-8.500000, -8.000000) translate(5.000000, 3.500000)" fill="#FFFFFF" fill-rule="nonzero">
            <path d="M2.35551331,0 C1.05967438,0 0,1.10422595 0,2.45454545 C0,3.80486495 1.05967438,4.90909091 2.35551331,4.90909091 L3.92585552,4.90909091 L3.92585552,8.8700361 C3.92585552,8.94181318 3.98157119,9 4.05029996,9 L4.70635402,9 C4.77508279,9 4.83079847,8.94181318 4.83079847,8.8700361 L4.83079847,0.883163768 C4.83079847,0.847275229 4.85865632,0.818181819 4.89302069,0.818181819 L6.03283483,0.818181819 C6.0671992,0.818181819 6.09505705,0.847275229 6.09505705,0.883163768 L6.09505705,8.8700361 C6.09505705,8.94181318 6.15077272,9 6.21950149,9 L6.87555556,9 C6.94428432,9 7,8.94181318 7,8.8700361 L7,0.129963899 C7,0.0581868195 6.94428432,0 6.87555556,0 L2.35551331,0 L2.35551331,0 Z M2.34885931,0.818181819 L3.79475709,0.818181819 C3.86348586,0.818181819 3.91920153,0.876368638 3.91920153,0.948145718 L3.91920153,4.02592714 C3.91920153,4.06181567 3.89134368,4.09090909 3.85697931,4.09090909 L2.34885931,4.09090909 L2.34885931,4.09090909 C1.47781012,4.09090909 0.778517112,3.36221591 0.778517112,2.45454545 C0.778517112,1.546875 1.47781012,0.818181819 2.34885931,0.818181819 Z" id="Shape"></path>
        </g>
    </g>
</svg>